<?xml version="1.0" encoding="UTF-8" standalone="no"?>
<!-- Created with Inkscape (http://www.inkscape.org/) -->

<svg
   width="50mm"
   height="50mm"
   viewBox="0 0 50 50"
   version="1.1"
   id="svg7082"
   inkscape:version="1.2.2 (732a01da63, 2022-12-09)"
   sodipodi:docname="Blackout.svg"
   xmlns:inkscape="http://www.inkscape.org/namespaces/inkscape"
   xmlns:sodipodi="http://sodipodi.sourceforge.net/DTD/sodipodi-0.dtd"
   xmlns="http://www.w3.org/2000/svg"
   xmlns:svg="http://www.w3.org/2000/svg">
  <sodipodi:namedview
     id="namedview7084"
     pagecolor="#ffffff"
     bordercolor="#000000"
     borderopacity="0.25"
     inkscape:showpageshadow="2"
     inkscape:pageopacity="0"
     inkscape:pagecheckerboard="0"
     inkscape:deskcolor="#d1d1d1"
     inkscape:document-units="mm"
     showgrid="false"
     inkscape:zoom="0.74564394"
     inkscape:cx="193.12167"
     inkscape:cy="347.35077"
     inkscape:window-width="1920"
     inkscape:window-height="1017"
     inkscape:window-x="-8"
     inkscape:window-y="-8"
     inkscape:window-maximized="1"
     inkscape:current-layer="layer1" />
  <defs
     id="defs7079" />
  <g
     inkscape:label="Layer 1"
     inkscape:groupmode="layer"
     id="layer1">
    <g
       id="g7919"
       transform="matrix(0.39871984,0,0,0.39871984,14.247426,14.67187)">
      <path
         id="path3002"
         style="fill:#000000;stroke-width:0.231698"
         d="m 26.22543,42.85717 -1.98496,4.21195 c 1.12172,0.0279 2.2456,0.0426 3.36992,0.0442 28.96914,2e-5 57.02301,-8.64979 57.02328,-19.19037 -0.005,-8.54119 -15.50718,-16.2542 -38.09741,-18.57597 l -3.67357,6.34547 c 0.0739,0.0706 0.73235,0.35482 0.80487,0.42694 0.10083,0.10067 0.2003,0.20276 0.29839,0.30625 0.098,0.10363 0.19452,0.20864 0.28966,0.31501 0.0952,0.10624 0.18896,0.21383 0.28127,0.32273 0.0923,0.10903 0.18318,0.21936 0.27255,0.33097 0.0893,0.11147 0.1771,0.2242 0.26338,0.33816 0.0863,0.11392 0.17104,0.22906 0.25424,0.34538 0.0833,0.11654 0.16497,0.23425 0.24508,0.3531 0.0801,0.11864 0.15864,0.23841 0.23555,0.35928 0.0768,0.12092 0.15202,0.24292 0.22558,0.36597 0.0735,0.12319 0.14544,0.24742 0.21565,0.37265 0.0704,0.12513 0.13908,0.25125 0.20608,0.37832 0.0668,0.12706 0.13196,0.25507 0.19536,0.38398 0.0634,0.12883 0.12508,0.25855 0.18501,0.38913 0.06,0.13077 0.11821,0.26237 0.17466,0.39479 0.0566,0.13219 0.11132,0.26517 0.16431,0.39891 0.0529,0.13395 0.10393,0.26865 0.15318,0.40405 0.0493,0.13521 0.0968,0.27111 0.14244,0.40766 0.0456,0.13663 0.0894,0.27391 0.1313,0.41178 0.0419,0.13789 0.082,0.27636 0.12015,0.41538 0.0382,0.13914 0.0746,0.27881 0.10901,0.41898 0.0345,0.14005 0.0671,0.28058 0.0979,0.42156 0.0308,0.14096 0.0598,0.28235 0.0868,0.42413 0.027,0.1417 0.052,0.28377 0.0752,0.42618 0.0231,0.14262 0.0443,0.28555 0.0636,0.42877 0.0193,0.14301 0.0367,0.28629 0.0522,0.42979 0.0155,0.14358 0.029,0.28737 0.0406,0.43133 0.0116,0.14415 0.0213,0.28846 0.0291,0.43288 0.008,0.1442 0.0136,0.28851 0.0175,0.43288 0.004,0.14444 0.005,0.28892 0.005,0.4334 10e-6,0.43343 -0.0174,0.86668 -0.0522,1.29864 -0.0348,0.43199 -0.087,0.86233 -0.15637,1.28989 -0.0695,0.42763 -0.15618,0.85212 -0.25981,1.27239 -0.10341,0.42013 -0.22366,0.8357 -0.36045,1.24562 -0.13701,0.41005 -0.29045,0.81411 -0.45993,1.21113 -0.16928,0.397 -0.35444,0.78664 -0.55503,1.16791 -0.20072,0.38115 -0.41668,0.75361 -0.64733,1.11642 -0.23066,0.36302 -0.47581,0.71608 -0.73485,1.05827 -0.25899,0.34206 -0.53163,0.67297 -0.81722,0.99187 -0.28555,0.31896 -0.5838,0.62566 -0.894,0.91929 -0.31021,0.29355 -0.63209,0.5738 -0.96482,0.84002 -0.33282,0.26617 -0.6762,0.51809 -1.02926,0.7551 -0.35298,0.23714 -0.71535,0.45917 -1.08618,0.66553 -0.37082,0.20629 -0.74978,0.39673 -1.1359,0.57083 -0.38619,0.17413 -0.77922,0.33177 -1.17808,0.47251 -0.39882,0.14082 -0.80313,0.26463 -1.2119,0.37111 -0.11377,0.0259 -0.22783,0.0504 -0.34215,0.0736 -0.23403,0.008 -0.46824,0.0157 -0.70263,0.0226 -0.99334,0.0211 -6.55816,0.13658 -7.55361,0.13645 -0.64413,-5.3e-4 -1.28815,-0.006 -1.93164,-0.0149 z m 21.10765,-28.99682 0.0589,0.006 c 0.31417,0.0346 0.62718,0.0703 0.93896,0.10706 0.31173,0.037 0.62222,0.0751 0.9314,0.11427 0.30929,0.0392 0.61725,0.0796 0.92384,0.12096 0.30644,0.0413 0.61149,0.0837 0.91509,0.12713 0.30373,0.0434 0.60599,0.0878 0.90674,0.13331 0.30075,0.0456 0.59996,0.0923 0.89758,0.14001 0.29751,0.0478 0.5934,0.0967 0.88763,0.1467 0.29426,0.0497 0.58684,0.10053 0.87769,0.15235 0.29088,0.052 0.58001,0.10501 0.86734,0.15905 0.28738,0.0541 0.57293,0.10913 0.85661,0.16522 0.28372,0.056 0.56556,0.11293 0.84546,0.17089 0.27981,0.058 0.55767,0.11706 0.83353,0.17706 0.2759,0.0599 0.54978,0.12085 0.82159,0.18273 0.27172,0.0618 0.54135,0.12464 0.80886,0.18839 0.26754,0.0639 0.53293,0.12877 0.79612,0.19457 0.26322,0.0656 0.52424,0.13221 0.783,0.1997 0.25878,0.0675 0.51528,0.13601 0.76947,0.20538 0.2542,0.0695 0.50607,0.13979 0.75555,0.21103 0.24948,0.0712 0.49657,0.14325 0.74122,0.21619 0.24464,0.0729 0.48682,0.14669 0.72651,0.22132 0.23965,0.0747 0.47678,0.15015 0.71137,0.22648 0.23453,0.0764 0.4665,0.15359 0.69585,0.23162 0.22942,0.078 0.45622,0.1567 0.68036,0.23626 0.22417,0.0797 0.44567,0.16015 0.66444,0.2414 0.21878,0.0811 0.43483,0.16292 0.64812,0.24553 0.21326,0.0826 0.42374,0.16603 0.63141,0.25016 0.20774,0.0842 0.41265,0.16912 0.61469,0.25477 0.20197,0.0858 0.40105,0.17224 0.59721,0.25942 0.19616,0.087 0.3894,0.17467 0.57968,0.26303 0.19038,0.0884 0.37778,0.17743 0.56219,0.26714 0.18432,0.0898 0.36562,0.1802 0.54387,0.27126 0.17827,0.0912 0.35347,0.18296 0.52558,0.27537 0.17206,0.0922 0.34103,0.18504 0.50688,0.27846 0.16588,0.0934 0.32862,0.18747 0.48819,0.28207 0.15968,0.0947 0.31618,0.18989 0.46948,0.28567 0.15308,0.0957 0.30294,0.19198 0.44957,0.28876 0.14677,0.0969 0.29027,0.1944 0.4305,0.29236 0.14029,0.0978 0.27729,0.19614 0.41099,0.29494 0.13355,0.0987 0.26379,0.19788 0.3907,0.29751 0.12696,0.0998 0.25057,0.19996 0.37081,0.30059 0.12036,0.10064 0.23733,0.2017 0.35091,0.30317 0.11349,0.10152 0.22358,0.20345 0.33023,0.30575 0.10662,0.10223 0.2098,0.20483 0.30954,0.30779 0.0997,0.10295 0.19603,0.20624 0.28885,0.30987 0.0929,0.10365 0.18226,0.20763 0.26816,0.31192 0.0859,0.10419 0.16822,0.20869 0.24708,0.31347 0.0789,0.1049 0.15419,0.21008 0.22599,0.31552 0.0718,0.10527 0.14014,0.21079 0.2049,0.31655 0.0647,0.10598 0.12585,0.21219 0.18342,0.31861 0.0577,0.10635 0.11179,0.2129 0.16232,0.31964 0.0504,0.10655 0.0972,0.21328 0.14044,0.32016 0.0434,0.10709 0.0832,0.21434 0.11937,0.32171 0.0361,0.10728 0.0686,0.21469 0.0975,0.32221 0.0289,0.10765 0.0542,0.21541 0.0759,0.32324 0.0216,0.10768 0.0397,0.21544 0.0541,0.32325 0.0145,0.10787 0.0254,0.2158 0.0327,0.32375 0.007,0.1079 0.0108,0.21583 0.0108,0.32376 5e-5,0.32385 -0.0325,0.64761 -0.0975,0.97076 -0.0652,0.32317 -0.16284,0.64556 -0.29283,0.96665 -0.12988,0.32111 -0.29203,0.64075 -0.48618,0.95841 -0.19421,0.31767 -0.42032,0.63319 -0.67797,0.94605 -0.2576,0.31286 -0.54661,0.62289 -0.86655,0.92959 -0.32008,0.30665 -0.67092,0.60981 -1.05195,0.909 -0.38095,0.29923 -0.7919,0.59432 -1.23219,0.8848 -0.44021,0.29059 -0.90955,0.57641 -1.40725,0.85701 -0.49766,0.28038 -1.02338,0.55539 -1.57632,0.82458 -0.55306,0.2693 -1.13307,0.53263 -1.73908,0.78958 -0.60605,0.25698 -1.2378,0.50744 -1.89422,0.75098 -0.65627,0.24344 -1.33686,0.47982 -2.04065,0.70877 -0.70391,0.22901 -1.43066,0.45045 -2.1791,0.66399 -0.74845,0.21368 -1.5182,0.41934 -2.30802,0.61663 -0.78968,0.19712 -1.59897,0.38578 -2.42657,0.56568 -0.82776,0.18002 -1.67342,0.35117 -2.5356,0.51318 -0.86198,0.16183 -1.74,0.31444 -2.63266,0.45758 -0.89278,0.14327 -1.79974,0.277 -2.71941,0.40097 -0.91967,0.12398 -1.85157,0.23814 -2.7942,0.34229 -0.36594,0.0377 -0.73334,0.0739 -1.10209,0.10861 4.9011,-3.55704 7.74553,-8.88848 7.74603,-14.51872 -5.5e-4,-5.20006 -2.42852,-10.16592 -6.70282,-13.70906 z"
         sodipodi:nodetypes="ccccccccccssccccccssccccsscccccsssccsccccccccccccsccccccccccsccccccscccscccccssccccssccscccsscccscccsssscccccccsscccccssccccsscscccccsccccc" />
      <path
         id="path3037"
         style="fill:#000000;stroke-width:0.235089"
         d="m 32.26211,8.73903 c -1.34063,-0.0507 -6.39424,-0.031 -7.74178,-0.0457 -0.19714,-0.005 -0.39435,-0.008 -0.59157,-0.008 -0.0315,9.4e-4 -0.0631,0.002 -0.0946,0.003 -0.24857,-0.002 -0.49718,-0.003 -0.74579,-0.003 -29.705905,6e-5 -53.787069,8.57904 -53.786556,19.16162 4.79e-4,8.84354 16.568866,16.43295 40.694495,18.51634 l 4.042212,-7.03594 C 13.860127,39.1819 13.475725,39.08527 13.303845,38.93207 12.985763,38.63727 12.679927,38.32936 12.387118,38.00913 12.094275,37.68896 11.814708,37.35674 11.549132,37.01332 11.28351,36.66977 11.032117,36.31531 10.795597,35.95085 10.559088,35.5866 10.337639,35.21266 10.131817,34.82999 9.926136,34.4472 9.736264,34.05602 9.562689,33.65745 9.388897,33.25885 9.231555,32.85319 9.091066,32.44151 8.950654,32.02996 8.827204,31.61275 8.721031,31.19094 8.61491,30.769 8.526167,30.34282 8.455029,29.9135 8.383879,29.48424 8.330385,29.05219 8.294693,28.61848 c -0.03565,-0.43367 -0.05348,-0.86864 -0.05344,-1.30379 -5.7e-5,-0.43533 0.01777,-0.87047 0.05344,-1.30432 0.03569,-0.43371 0.08918,-0.86575 0.160336,-1.29501 0.07115,-0.42915 0.159895,-0.85515 0.266002,-1.27692 0.106159,-0.42199 0.22961,-0.83937 0.370035,-1.25109 0.140502,-0.41151 0.297844,-0.817 0.471623,-1.21543 0.173575,-0.39857 0.363447,-0.78975 0.569128,-1.17254 0.205809,-0.38284 0.427259,-0.75695 0.66378,-1.12137 0.236532,-0.36429 0.487925,-0.71858 0.753535,-1.06196 0.265576,-0.34341 0.545143,-0.67563 0.837986,-0.9958 0.292809,-0.32023 0.598645,-0.62814 0.916727,-0.92294 0.318095,-0.29472 0.648158,-0.57608 0.989345,-0.84336 0.341273,-0.26741 0.693387,-0.52049 1.055438,-0.75861 0.361953,-0.23808 0.73353,-0.461 1.11378,-0.66818 0.224261,-0.11712 0.451301,-0.22878 0.68092,-0.33486 0.132903,-0.007 0.265905,-0.0143 0.399,-0.0212 1.012047,-0.0425 2.028185,-0.0743 3.04678,-0.0956 1.018572,-0.0213 2.039062,-0.032 3.059832,-0.032 0.34015,1.5e-4 0.68029,10e-4 1.02035,0.004 0.34023,0.002 0.68037,0.006 1.02036,0.0109 0.28395,0.004 4.27587,-0.0435 4.55954,-0.038 z M 9.326828,13.66567 C 4.890155,17.22319 2.363204,22.23692 2.358161,27.49222 2.363461,33.18393 5.325033,38.56733 10.412865,42.1337 9.808579,42.0795 9.207778,42.02145 8.610828,41.95955 7.644239,41.85499 6.688651,41.74038 5.7456,41.6159 4.802553,41.49144 3.872546,41.35718 2.957072,41.21334 2.041584,41.06963 1.141103,40.91641 0.257075,40.75394 -0.626883,40.59128 -1.493892,40.41946 -2.342559,40.23873 -3.19134,40.05812 -4.021339,39.86871 -4.831222,39.6708 c -0.809751,-0.19808 -1.598931,-0.40455 -2.366272,-0.61908 -0.767461,-0.21439 -1.512691,-0.43671 -2.234493,-0.66663 -0.721821,-0.22986 -1.419836,-0.46718 -2.092926,-0.71158 -0.672973,-0.2445 -1.320644,-0.49596 -1.941975,-0.75396 -0.621412,-0.25797 -1.216153,-0.52235 -1.78327,-0.79272 -0.567,-0.27026 -1.106091,-0.54636 -1.616408,-0.82785 -0.510489,-0.28171 -0.991888,-0.56867 -1.443425,-0.86042 -0.451477,-0.29163 -0.872872,-0.58789 -1.263507,-0.88831 -0.390581,-0.30038 -0.750201,-0.60474 -1.078284,-0.91261 -0.328075,-0.30792 -0.624426,-0.61918 -0.888577,-0.93328 -0.264198,-0.3141 -0.496053,-0.63088 -0.695193,-0.94981 -0.199227,-0.31892 -0.365635,-0.63983 -0.498958,-0.96221 -0.133161,-0.32237 -0.233169,-0.64604 -0.299864,-0.97049 -0.06682,-0.32444 -0.10029,-0.64948 -0.100362,-0.97462 7.2e-5,-0.32513 0.03354,-0.65018 0.100362,-0.97461 0.06666,-0.32462 0.166668,-0.64846 0.299864,-0.971 0.133322,-0.32239 0.299731,-0.6433 0.498958,-0.96222 0.199175,-0.31876 0.43103,-0.63536 0.695193,-0.94929 0.264151,-0.3141 0.560502,-0.62536 0.888577,-0.93328 0.32805,-0.30804 0.687671,-0.61258 1.078284,-0.91312 0.390635,-0.30042 0.812029,-0.59668 1.263507,-0.88832 0.451569,-0.29157 0.932968,-0.57836 1.443425,-0.8599 0.510286,-0.28167 1.049378,-0.55794 1.616408,-0.82837 0.567117,-0.27037 1.161858,-0.53475 1.78327,-0.79272 0.621359,-0.25783 1.269031,-0.50911 1.941975,-0.75344 0.673062,-0.24458 1.371078,-0.48207 2.092926,-0.7121 0.721802,-0.22992 1.467032,-0.45224 2.234493,-0.66663 0.767366,-0.21435 1.556546,-0.42065 2.366272,-0.61856 0.809883,-0.19791 1.639882,-0.38732 2.488663,-0.56793 0.848667,-0.18073 1.715676,-0.35255 2.599634,-0.51521 0.884006,-0.16265 1.784487,-0.31604 2.699997,-0.45992 0.915495,-0.14367 1.845502,-0.27775 2.788528,-0.40204 0.943051,-0.12448 1.898639,-0.23909 2.865228,-0.34365 0.238083,-0.0237 0.476757,-0.0468 0.716,-0.0693 z"
         sodipodi:nodetypes="ccccccccccccccscscccssccccccccscccsccsccccccscccccccccccsccccccccccccccccccsccsccccc" />
      <rect
         style="fill:#000000;stroke-width:0.208542"
         id="rect2820"
         width="5.6774287"
         height="18.806461"
         x="24.934361"
         y="-12.455792"
         rx="0.6687808" />
      <rect
         style="fill:#000000;stroke-width:0.208542"
         id="rect2820-7-1"
         width="5.6774287"
         height="18.806461"
         x="0.21076015"
         y="-11.003504"
         rx="0.6687808"
         transform="rotate(-11.037321)" />
      <rect
         style="fill:#000000;stroke-width:0.208542"
         id="rect2820-7-1-2-1"
         width="5.6774287"
         height="18.806461"
         x="-23.780645"
         y="-15.097953"
         rx="0.6687808"
         transform="rotate(-22.290303)" />
      <path
         id="path3064"
         style="fill:#000000;stroke-width:0.208542"
         d="m 51.59355,-11.72715 c -0.31155,0.003 -0.58698,0.22286 -0.64905,0.54105 l -1.89808,9.54619 2.20865,1.50843 c 0.0397,0.0238 0.0762,0.0511 0.10904,0.0811 0.0328,0.0301 0.0622,0.0631 0.0879,0.0982 0.0256,0.0351 0.0475,0.0722 0.0656,0.11111 0.0181,0.0389 0.0325,0.0795 0.0429,0.12092 0.0104,0.0415 0.0169,0.0838 0.0191,0.12661 0.002,0.0428 4.4e-4,0.0862 -0.006,0.12919 -0.006,0.043 -0.0167,0.0857 -0.0315,0.12764 -0.0148,0.042 -0.034,0.0833 -0.0579,0.12299 L 48.11808,6.7024 c 0.0556,0.0288 -0.0287,0.003 0.036,0.0155 l 4.23348,0.85665 c 0.36365,0.0709 0.71352,-0.16448 0.78445,-0.52813 L 56.5165,-10.0993 c 0.0709,-0.36365 -0.165,-0.71352 -0.52864,-0.78445 l -4.25918,-0.83096 c -0.0454,-0.009 -0.0909,-0.0128 -0.13539,-0.0124 z"
         sodipodi:nodetypes="ccccccssccscccccccccc" />
      <rect
         style="fill:#000000;stroke-width:0.208542"
         id="rect2820-7-1-2-1-0"
         width="5.6774287"
         height="18.806461"
         x="-72.617805"
         y="-35.477139"
         rx="0.6687808"
         transform="matrix(-0.92527393,-0.37929957,-0.37929957,0.92527393,0,0)" />
      <rect
         style="fill:#000000;stroke-width:0.264583"
         id="rect2939-2"
         width="10.223701"
         height="74.558205"
         x="33.577339"
         y="-25.607857"
         rx="0.66878074"
         transform="rotate(30.965674)" />
    </g>
  </g>
</svg>
