<?xml version="1.0" standalone="no"?>
<!DOCTYPE svg PUBLIC "-//W3C//DTD SVG 20010904//EN"
 "http://www.w3.org/TR/2001/REC-SVG-20010904/DTD/svg10.dtd">
<svg version="1.0" xmlns="http://www.w3.org/2000/svg"
 width="512.000000pt" height="512.000000pt" viewBox="0 0 512.000000 512.000000"
 preserveAspectRatio="xMidYMid meet">

<g transform="translate(0.000000,512.000000) scale(0.100000,-0.100000)"
fill="#000000" stroke="none">
<path d="M2135 4624 c-117 -21 -199 -48 -300 -98 -340 -167 -568 -482 -618
-855 l-13 -95 -54 -14 c-71 -17 -221 -88 -298 -141 -262 -177 -431 -480 -449
-802 -7 -121 10 -265 34 -291 25 -28 45 -22 119 37 154 123 321 184 527 192
82 4 133 10 140 18 7 7 36 42 66 79 246 299 666 444 1046 362 409 -88 727
-388 830 -781 10 -38 23 -76 29 -84 5 -7 34 -24 63 -36 200 -89 396 -286 498
-500 19 -41 44 -79 54 -85 26 -13 447 -13 566 0 205 24 370 103 511 247 430
435 236 1174 -354 1353 -70 21 -72 23 -72 55 0 62 -31 207 -60 283 -45 116
-96 196 -188 293 -126 133 -258 211 -429 255 -112 28 -285 33 -393 10 -36 -8
-66 -13 -66 -12 -1 0 -19 30 -40 66 -233 402 -702 624 -1149 544z"/>
<path d="M1970 2705 c-84 -17 -135 -36 -221 -81 -138 -73 -289 -244 -340 -386
-17 -46 -26 -58 -38 -52 -93 38 -135 48 -227 52 -181 8 -309 -43 -439 -173
-128 -127 -182 -264 -172 -437 l4 -87 -56 -7 c-233 -28 -414 -186 -466 -406
-66 -281 115 -567 399 -633 58 -14 218 -15 1304 -13 l1237 3 80 27 c114 39
199 92 286 178 85 84 138 170 177 288 22 67 26 94 26 207 0 114 -4 140 -27
210 -38 116 -91 199 -182 290 -110 109 -238 174 -397 200 l-38 6 0 77 c-1 470
-448 831 -910 737z"/>
</g>
</svg>
