<?xml version="1.0" encoding="UTF-8" standalone="no"?>
<!-- Created with Inkscape (http://www.inkscape.org/) -->

<svg
   width="511.99997"
   height="511.99997"
   viewBox="0 0 135.46666 135.46666"
   version="1.1"
   id="svg1"
   xml:space="preserve"
   inkscape:version="1.4.3 (0d15f75, 2025-12-25)"
   sodipodi:docname="earthquakes.svg"
   inkscape:export-filename="earthquakes.png"
   inkscape:export-xdpi="96"
   inkscape:export-ydpi="96"
   xmlns:inkscape="http://www.inkscape.org/namespaces/inkscape"
   xmlns:sodipodi="http://sodipodi.sourceforge.net/DTD/sodipodi-0.dtd"
   xmlns="http://www.w3.org/2000/svg"
   xmlns:svg="http://www.w3.org/2000/svg"><sodipodi:namedview
     id="namedview1"
     pagecolor="#ffffff"
     bordercolor="#000000"
     borderopacity="0.25"
     inkscape:showpageshadow="2"
     inkscape:pageopacity="0.0"
     inkscape:pagecheckerboard="0"
     inkscape:deskcolor="#d1d1d1"
     inkscape:document-units="mm"
     inkscape:zoom="1"
     inkscape:cx="246"
     inkscape:cy="145.5"
     inkscape:window-width="2560"
     inkscape:window-height="1387"
     inkscape:window-x="1912"
     inkscape:window-y="-8"
     inkscape:window-maximized="1"
     inkscape:current-layer="layer7"
     inkscape:clip-to-page="false" /><defs
     id="defs1"><inkscape:path-effect
       effect="fillet_chamfer"
       id="path-effect4"
       is_visible="true"
       lpeversion="1"
       nodesatellites_param="F,0,0,1,0,13.230199,0,1 @ F,0,0,1,0,14.675827,0,1 @ F,0,0,1,0,15.608831,0,1"
       radius="0"
       unit="px"
       method="auto"
       mode="F"
       chamfer_steps="1"
       flexible="false"
       use_knot_distance="true"
       apply_no_radius="true"
       apply_with_radius="true"
       only_selected="false"
       hide_knots="false" /></defs><g
     inkscape:groupmode="layer"
     id="layer7"
     inkscape:label="Layer 1"
     transform="translate(-34.157037,-15.951505)"><path
       style="fill:#020202;stroke:none;stroke-width:0.951699"
       d="m 42.969927,49.686734 c -1.664823,2.16601 -3.101152,4.526073 -4.616275,6.798884 -1.478597,2.218012 -3.921428,4.79525 -4.149208,7.554315 -0.302464,3.663678 3.765087,6.1878 7.002905,4.640228 1.827697,-0.873576 2.868938,-3.026322 3.944818,-4.640228 2.552479,-3.828929 6.919223,-8.40426 8.194473,-12.842336 1.165962,-4.057747 -3.762216,-8.963502 -5.84437,-12.086903 -0.674907,-1.012415 -2.362479,-2.728796 -2.139107,-4.028969 0.195324,-1.136912 1.344397,-2.333212 1.971244,-3.273536 2.349789,-3.524878 10.14792,-11.84556 3.692825,-15.249105 -5.453311,-2.875349 -8.9899,5.442512 -11.330664,8.953843 -1.745169,2.617897 -4.91728,5.907241 -5.45657,9.065178 -0.329309,1.928354 0.747789,3.509539 1.763549,5.036209 2.130747,3.202469 4.131964,7.474748 6.96638,10.07242 m 29.963826,5.03621 V 83.681152 H 34.157037 v 67.737018 c 0.02805,-1.1e-4 38.701653,-0.0138 38.731397,-0.014 0.142528,-9.5e-4 1.533401,-2.52291 2.097582,-3.51137 l 4.456569,-7.80613 4.318241,-7.55432 c 0.590879,-1.03465 1.450395,-2.27543 1.090922,-3.52437 -0.533707,-1.85428 -2.287203,-1.76354 -3.860495,-1.76365 -3.692853,-2.3e-4 -7.386266,0.0193 -11.079062,-1.9e-4 -1.67112,-0.009 -4.385821,-1.06862 -3.4352,-3.27334 1.25845,-2.91865 4.811384,-5.69797 6.918585,-8.05794 4.931785,-5.52338 9.903362,-11.02388 14.752845,-16.619482 1.677865,-1.936017 5.403616,-7.943194 8.397694,-4.978895 1.301309,1.288362 0.813966,2.70591 0.308342,4.223464 -0.977787,2.934623 -1.97751,5.866303 -2.914708,8.813363 -0.475532,1.49532 -1.388098,3.37245 -0.0076,4.6752 1.055814,0.99634 3.101598,0.61282 4.433064,0.61282 h 11.079047 c 1.79008,0 4.75997,-0.18562 5.08996,2.26629 0.13832,1.02773 -0.69661,2.12514 -1.09617,3.02173 -1.06437,2.38839 -2.25863,4.7118 -3.42802,7.05069 -2.84637,5.69306 -5.58799,11.43154 -8.43364,17.12314 -1.49508,2.99032 -2.818269,5.69319 -4.594091,9.31698 H 169.6237 V 83.681152 H 130.84703 V 54.722944 c 3.76361,0 10.66729,0.363407 9.69865,-5.53983 -0.61835,-3.768367 -5.96961,-7.311066 -8.69147,-9.675662 -6.21345,-5.397926 -12.02536,-11.283782 -18.12937,-16.807183 -3.51669,-3.182181 -6.70494,-6.748764 -11.83445,-6.748764 -5.096269,0 -8.375658,3.547109 -11.834449,6.768975 -5.94657,5.539247 -11.851805,11.146641 -17.877578,16.599274 -2.658736,2.405848 -7.904015,5.741192 -8.801621,9.359738 -1.533692,6.182806 5.602422,6.043452 9.557011,6.043452 M 154.26414,16.062072 c -2.74349,0.50525 -4.54748,3.180106 -3.8947,5.925507 0.78415,3.297866 4.1266,6.769044 5.993,9.5688 0.66006,0.990135 2.17718,2.535941 2.17718,3.777157 0,1.241224 -1.51712,2.787021 -2.17718,3.777158 -1.87369,2.810697 -4.9474,6.069065 -5.92557,9.316988 -0.75567,2.509121 0.83526,4.576929 2.14862,6.547073 l 6.54671,9.820609 c 1.7152,2.572943 3.4968,4.962415 6.96638,4.181685 2.44627,-0.550459 3.93698,-3.313804 3.39189,-5.692548 -0.78278,-3.416002 -4.15418,-6.935124 -6.07772,-9.820609 -0.64776,-0.971709 -1.96467,-2.324759 -2.06779,-3.525347 -0.10707,-1.246258 1.41652,-2.800193 2.06779,-3.777157 1.91911,-2.878808 4.80568,-6.031011 5.93199,-9.316989 0.78997,-2.304694 -0.50461,-4.196324 -1.73538,-6.043452 l -7.5539,-11.331472 c -1.35881,-2.037354 -3.08682,-3.905476 -5.79132,-3.407403 m -47.58961,67.61908 H 92.322112 V 72.601489 c 0,-1.627054 -0.349075,-3.732532 0.176994,-5.28802 0.840566,-2.485399 5.047351,-6.467913 7.376914,-7.554314 -1.669739,-3.5808 -8.246415,-6.245482 -7.202831,-10.827853 0.353459,-1.552028 1.72875,-3.008208 2.634933,-4.280777 1.90267,-2.671952 3.65057,-6.296085 6.125108,-8.462271 1.47038,-1.287163 3.73578,-0.999167 4.8026,0.66081 1.65895,2.581342 -1.75242,6.96212 -2.79969,9.312324 -0.29172,0.654685 -1.06151,1.660452 -0.87468,2.411242 0.26532,1.066198 1.82405,2.010411 2.60229,2.696857 2.26397,1.996956 6.21601,4.717843 6.44841,7.986046 0.36471,5.128764 -6.83964,6.948096 -8.40936,11.079662 -0.4101,1.079424 0.46074,2.737802 0.77249,3.777157 0.94508,3.150806 2.03269,6.347857 2.69924,9.5688 z"
       id="path4"
       sodipodi:nodetypes="csssssssssssscccccscccsscssssssssssssscccccsssssssccssssssssssssscccccsscssssssssssc" /></g></svg>
