<?xml version="1.0" standalone="no"?>
<!DOCTYPE svg PUBLIC "-//W3C//DTD SVG 20010904//EN"
 "http://www.w3.org/TR/2001/REC-SVG-20010904/DTD/svg10.dtd">
<svg version="1.0" xmlns="http://www.w3.org/2000/svg"
 width="512.000000pt" height="512.000000pt" viewBox="0 0 512.000000 512.000000"
 preserveAspectRatio="xMidYMid meet">

<g transform="translate(0.000000,512.000000) scale(0.100000,-0.100000)"
fill="#000000" stroke="none">
<path d="M2281 4898 c-30 -7 -56 -23 -86 -53 -57 -56 -68 -111 -63 -295 3
-132 5 -139 33 -185 40 -65 97 -95 179 -95 104 1 182 53 206 138 13 49 13 306
-1 355 -16 58 -72 114 -132 132 -57 17 -73 17 -136 3z"/>
<path d="M769 4276 c-59 -21 -96 -53 -123 -108 -31 -63 -33 -117 -6 -177 25
-53 178 -213 240 -249 94 -56 213 -25 278 72 27 41 32 57 32 108 0 83 -20 116
-146 238 -133 129 -182 150 -275 116z"/>
<path d="M2115 4036 c-358 -59 -655 -222 -893 -490 -396 -446 -481 -1119 -209
-1661 144 -288 390 -530 681 -670 201 -96 361 -134 601 -142 183 -6 290 4 422
38 79 21 240 82 255 97 5 5 -28 36 -74 69 -546 398 -780 1084 -593 1736 91
314 305 621 569 812 125 92 120 80 51 111 -87 38 -159 63 -255 85 -110 27
-434 35 -555 15z"/>
<path d="M3700 3834 c-557 -71 -998 -475 -1116 -1024 -26 -119 -26 -381 0
-500 56 -261 183 -488 372 -670 149 -142 301 -234 489 -295 469 -154 980 -23
1323 339 272 288 394 674 336 1063 -78 530 -481 953 -1015 1069 -72 15 -319
27 -389 18z"/>
<path d="M115 2751 c-154 -69 -154 -313 0 -382 59 -27 351 -27 410 0 154 69
154 313 0 382 -34 16 -66 19 -205 19 -139 0 -171 -3 -205 -19z"/>
<path d="M919 1397 c-53 -20 -85 -45 -180 -144 -97 -101 -125 -154 -117 -227
17 -147 176 -236 303 -169 53 28 231 210 250 256 19 46 19 139 1 175 -46 88
-171 141 -257 109z"/>
<path d="M2239 827 c-29 -16 -54 -40 -74 -72 l-30 -48 0 -171 c0 -148 3 -176
19 -206 26 -49 46 -69 86 -90 90 -45 191 -31 256 34 55 54 64 92 64 261 0 156
-8 200 -47 246 -59 70 -187 91 -274 46z"/>
</g>
</svg>
