<?xml version="1.0" standalone="no"?>
<!DOCTYPE svg PUBLIC "-//W3C//DTD SVG 20010904//EN"
 "http://www.w3.org/TR/2001/REC-SVG-20010904/DTD/svg10.dtd">
<svg version="1.0" xmlns="http://www.w3.org/2000/svg"
 width="512.000000pt" height="512.000000pt" viewBox="0 0 512.000000 512.000000"
 preserveAspectRatio="xMidYMid meet">

<g transform="translate(0.000000,512.000000) scale(0.100000,-0.100000)"
fill="#000000" stroke="none">
<path d="M115 4434 c-97 -53 -139 -157 -100 -250 41 -100 191 -272 320 -369
74 -56 208 -125 295 -154 383 -124 776 -47 1080 211 l65 55 52 -47 c159 -146
387 -246 624 -272 295 -33 627 74 842 272 l52 47 65 -55 c349 -296 827 -353
1230 -146 156 80 302 208 400 350 83 119 97 175 65 252 -36 84 -106 126 -200
120 -77 -5 -117 -32 -177 -121 -49 -73 -135 -161 -198 -203 -81 -55 -207 -102
-308 -115 -269 -34 -522 84 -684 318 -69 99 -115 127 -202 121 -81 -5 -119
-30 -177 -117 -116 -171 -283 -282 -478 -317 -96 -17 -146 -17 -242 0 -195 35
-361 145 -478 318 -58 86 -96 111 -177 116 -84 6 -133 -22 -194 -110 -90 -132
-222 -241 -348 -288 -91 -35 -206 -52 -296 -45 -118 9 -160 20 -272 75 -115
56 -209 138 -282 247 -62 92 -100 117 -181 120 -47 2 -75 -1 -96 -13z"/>
<path d="M135 2975 c-51 -18 -110 -81 -126 -133 -19 -65 -5 -120 54 -208 232
-345 624 -533 1032 -493 230 23 440 113 619 266 l59 51 65 -55 c420 -357 1024
-356 1445 1 l65 55 59 -51 c293 -257 695 -338 1073 -216 91 29 242 108 322
168 139 105 301 309 314 397 9 64 -10 120 -60 169 -48 48 -104 68 -166 58 -61
-10 -97 -39 -176 -143 -86 -113 -162 -179 -269 -231 -113 -56 -180 -71 -310
-71 -133 0 -197 15 -323 77 -105 51 -199 136 -287 258 -59 82 -103 109 -179
109 -78 0 -126 -31 -192 -124 -62 -89 -158 -180 -236 -227 -126 -75 -293 -110
-440 -91 -211 26 -381 132 -512 318 -75 106 -143 141 -235 120 -62 -14 -92
-38 -154 -127 -76 -108 -163 -184 -272 -238 -121 -59 -188 -75 -315 -75 -239
-1 -434 99 -579 296 -73 99 -108 130 -159 145 -48 13 -68 12 -117 -5z"/>
<path d="M112 1494 c-86 -43 -130 -143 -102 -230 48 -146 280 -378 477 -478
257 -129 582 -153 849 -62 141 48 282 129 380 218 l53 49 80 -64 c139 -114
273 -183 445 -229 70 -19 106 -22 266 -22 160 0 196 3 266 22 172 46 306 115
445 229 l80 64 53 -49 c100 -90 237 -170 379 -218 269 -91 593 -68 850 62 153
78 320 225 413 364 81 120 91 169 50 257 -18 39 -35 58 -71 78 -67 40 -120 43
-188 12 -47 -21 -63 -36 -105 -98 -98 -144 -229 -248 -376 -295 -107 -35 -277
-44 -381 -20 -156 37 -319 144 -405 267 -70 99 -119 145 -170 159 -91 25 -165
-7 -229 -99 -157 -225 -365 -341 -611 -341 -246 0 -454 116 -611 341 -64 92
-138 124 -229 99 -51 -14 -100 -60 -170 -159 -86 -123 -249 -230 -405 -267
-104 -24 -274 -15 -381 20 -147 47 -278 151 -376 294 -41 61 -59 78 -101 98
-67 31 -111 30 -175 -2z"/>
</g>
</svg>
