<?xml version="1.0" standalone="no"?>
<!DOCTYPE svg PUBLIC "-//W3C//DTD SVG 20010904//EN"
 "http://www.w3.org/TR/2001/REC-SVG-20010904/DTD/svg10.dtd">
<svg version="1.0" xmlns="http://www.w3.org/2000/svg"
 width="512.000000pt" height="512.000000pt" viewBox="0 0 512.000000 512.000000"
 preserveAspectRatio="xMidYMid meet">

<g transform="translate(0.000000,512.000000) scale(0.100000,-0.100000)"
fill="#000000" stroke="none">
<path d="M580 4598 c-77 -30 -160 -114 -189 -193 -32 -83 -27 -207 11 -280 35
-67 100 -128 173 -162 l60 -28 545 0 545 0 57 23 c75 31 150 101 185 177 24
51 28 73 28 145 0 71 -4 94 -27 142 -32 69 -96 135 -163 168 l-50 25 -560 2
c-549 2 -561 2 -615 -19z m1160 -204 c62 -53 76 -118 39 -184 -11 -20 -35 -45
-52 -56 -30 -18 -58 -19 -547 -19 l-515 0 -33 23 c-84 60 -84 191 1 242 31 19
54 20 554 20 l521 0 32 -26z"/>
<path d="M2770 4611 c-91 -28 -174 -101 -217 -189 -23 -48 -27 -70 -27 -142
-1 -71 4 -94 26 -142 49 -105 143 -177 260 -198 36 -7 398 -10 1044 -8 1102 3
1022 -2 1124 73 60 44 103 111 126 193 31 111 -3 235 -88 321 -24 24 -65 55
-93 70 l-50 26 -1040 2 c-572 1 -1051 -2 -1065 -6z m2099 -225 c61 -58 64
-139 10 -201 -17 -19 -47 -39 -67 -45 -51 -14 -1933 -14 -1984 0 -20 6 -50 26
-67 45 -57 65 -50 150 17 205 l37 30 1012 -2 1012 -3 30 -29z"/>
<path d="M2598 3616 c-167 -69 -254 -245 -203 -412 8 -27 15 -50 15 -50 0 -1
-55 -4 -122 -6 -107 -3 -130 -7 -179 -30 -69 -32 -129 -90 -166 -160 -25 -48
-28 -63 -28 -153 0 -89 3 -106 27 -150 35 -68 97 -128 166 -162 l57 -28 1030
0 1030 0 56 28 c67 33 142 109 171 175 27 61 34 171 15 233 l-14 46 77 6 c103
7 184 43 246 109 71 75 89 125 89 238 0 84 -3 101 -28 148 -35 67 -92 124
-159 159 l-53 28 -985 2 -985 3 -57 -24z m2028 -218 c32 -31 38 -45 42 -90 3
-44 0 -59 -20 -88 -44 -65 -65 -70 -321 -70 l-229 0 -29 -29 c-31 -31 -39 -83
-19 -122 14 -25 61 -49 97 -49 101 0 168 -135 110 -221 -49 -73 20 -69 -1062
-69 -1083 0 -1013 -5 -1063 70 -32 47 -27 127 9 166 49 52 58 54 339 54 213 0
266 3 290 15 36 19 50 43 50 89 0 53 -34 87 -98 97 -63 10 -109 40 -128 85
-30 71 -7 144 58 184 32 20 49 20 985 18 l953 -3 36 -37z"/>
<path d="M243 3132 c-157 -55 -241 -183 -231 -350 8 -130 80 -235 198 -291
l55 -26 530 0 530 0 56 28 c31 15 79 51 106 80 160 169 106 446 -106 546 l-56
26 -515 2 c-475 3 -519 1 -567 -15z m1065 -202 c98 -60 94 -201 -8 -252 -32
-16 -77 -18 -503 -18 -505 0 -507 0 -556 54 -19 20 -26 40 -29 84 -4 64 14 97
72 133 29 18 58 19 511 19 461 0 481 -1 513 -20z"/>
<path d="M1009 2156 c-102 -27 -181 -95 -228 -196 -22 -46 -26 -69 -26 -140 1
-106 31 -174 105 -244 78 -73 123 -89 270 -95 142 -7 182 -22 213 -81 29 -56
19 -123 -27 -168 l-36 -37 -503 -5 c-557 -6 -543 -5 -640 -76 -203 -148 -170
-471 60 -585 l48 -24 1335 0 1335 0 53 28 c70 37 123 91 158 163 25 51 29 70
29 144 0 106 -30 177 -104 249 -73 71 -134 91 -296 100 -107 5 -135 10 -157
26 -82 60 -74 194 14 242 30 16 77 18 558 23 l525 5 58 29 c258 131 251 501
-11 624 l-57 27 -1315 2 c-1021 1 -1325 -1 -1361 -11z m2667 -212 c47 -35 67
-70 67 -116 0 -52 -22 -98 -60 -124 -26 -18 -59 -19 -553 -24 l-525 -5 -57
-27 c-76 -35 -142 -98 -175 -167 -25 -49 -28 -67 -28 -151 0 -89 2 -99 34
-158 38 -70 90 -120 160 -154 37 -18 70 -23 181 -28 153 -7 184 -18 219 -80
36 -64 21 -133 -38 -183 l-33 -27 -1288 0 -1288 0 -32 26 c-62 53 -76 118 -39
184 44 77 22 74 589 80 502 5 505 5 551 28 75 37 125 87 161 160 30 61 33 75
33 157 0 79 -4 97 -29 148 -36 71 -99 130 -174 165 -48 22 -76 26 -184 31
-107 5 -131 9 -155 27 -88 64 -77 200 19 247 30 15 150 16 1325 14 1287 -2
1292 -2 1319 -23z"/>
<path d="M4429 2157 c-103 -29 -181 -96 -228 -197 -22 -46 -26 -69 -26 -140 0
-108 30 -175 110 -249 92 -84 131 -93 375 -89 236 3 260 10 350 94 74 70 104
138 105 244 0 72 -4 94 -26 141 -37 79 -90 133 -167 171 l-67 33 -190 2 c-130
2 -204 -1 -236 -10z m407 -203 c101 -48 110 -188 15 -251 -32 -22 -44 -23
-206 -23 -162 0 -174 1 -206 23 -94 62 -86 201 13 250 48 24 335 24 384 1z"/>
<path d="M3940 1179 c-108 -22 -201 -94 -251 -197 -20 -39 -24 -63 -24 -142 0
-89 2 -99 34 -158 38 -70 90 -120 160 -154 46 -23 48 -23 531 -23 l485 0 53
28 c70 37 128 97 161 166 22 47 26 70 26 141 0 71 -4 94 -27 143 -36 76 -112
149 -185 179 -57 22 -64 23 -488 25 -236 1 -450 -3 -475 -8z m907 -213 c36
-22 73 -82 73 -120 0 -41 -24 -89 -59 -119 l-33 -27 -435 0 c-419 0 -437 1
-468 20 -105 65 -78 223 44 261 14 4 211 7 436 6 384 -2 412 -3 442 -21z"/>
</g>
</svg>
