<?xml version="1.0" encoding="UTF-8" standalone="no"?>
<!-- Created with Inkscape (http://www.inkscape.org/) -->

<svg
   width="135.46667mm"
   height="135.46667mm"
   viewBox="0 0 135.46667 135.46667"
   version="1.1"
   id="svg1"
   inkscape:version="1.4.3 (0d15f75, 2025-12-25)"
   sodipodi:docname="forsaken.svg"
   inkscape:export-filename="forsaken.png"
   inkscape:export-xdpi="96"
   inkscape:export-ydpi="96"
   xmlns:inkscape="http://www.inkscape.org/namespaces/inkscape"
   xmlns:sodipodi="http://sodipodi.sourceforge.net/DTD/sodipodi-0.dtd"
   xmlns="http://www.w3.org/2000/svg"
   xmlns:svg="http://www.w3.org/2000/svg">
  <sodipodi:namedview
     id="namedview1"
     pagecolor="#ffffff"
     bordercolor="#000000"
     borderopacity="0.25"
     inkscape:showpageshadow="2"
     inkscape:pageopacity="0.0"
     inkscape:pagecheckerboard="0"
     inkscape:deskcolor="#d1d1d1"
     inkscape:document-units="mm"
     inkscape:zoom="2.8284271"
     inkscape:cx="289.0299"
     inkscape:cy="226.09739"
     inkscape:window-width="2560"
     inkscape:window-height="1387"
     inkscape:window-x="1912"
     inkscape:window-y="-8"
     inkscape:window-maximized="1"
     inkscape:current-layer="layer1" />
  <defs
     id="defs1">
    <inkscape:path-effect
       effect="offset"
       id="path-effect8"
       is_visible="true"
       lpeversion="1.3"
       linejoin_type="miter"
       unit="mm"
       offset="8"
       miter_limit="4"
       attempt_force_join="false"
       update_on_knot_move="true" />
    <inkscape:path-effect
       effect="mirror_symmetry"
       start_point="114.25431,9.9413177"
       end_point="114.25431,277.11261"
       center_point="114.25431,143.52696"
       id="path-effect7"
       is_visible="true"
       lpeversion="1.2"
       lpesatellites=""
       mode="vertical"
       discard_orig_path="false"
       fuse_paths="true"
       oposite_fuse="false"
       split_items="false"
       split_open="false"
       link_styles="false" />
    <inkscape:path-effect
       effect="fillet_chamfer"
       id="path-effect6"
       is_visible="true"
       lpeversion="1"
       nodesatellites_param="F,0,0,1,0,0,0,1 @ F,0,0,1,0,2.0786258,0,1 @ F,0,0,1,0,0,0,1 @ F,0,0,1,0,0,0,1 @ F,0,0,1,0,0,0,1 @ F,0,0,1,0,0,0,1"
       radius="0"
       unit="px"
       method="auto"
       mode="F"
       chamfer_steps="1"
       flexible="false"
       use_knot_distance="true"
       apply_no_radius="true"
       apply_with_radius="true"
       only_selected="false"
       hide_knots="false" />
    <inkscape:path-effect
       effect="mirror_symmetry"
       start_point="105,0"
       end_point="105,297"
       center_point="105,148.5"
       id="path-effect5"
       is_visible="true"
       lpeversion="1.2"
       lpesatellites=""
       mode="vertical"
       discard_orig_path="false"
       fuse_paths="true"
       oposite_fuse="false"
       split_items="false"
       split_open="false"
       link_styles="false" />
    <inkscape:path-effect
       effect="mirror_symmetry"
       start_point="105,0"
       end_point="105,297"
       center_point="105,148.5"
       id="path-effect4"
       is_visible="true"
       lpeversion="1.2"
       lpesatellites=""
       mode="vertical"
       discard_orig_path="false"
       fuse_paths="true"
       oposite_fuse="false"
       split_items="false"
       split_open="false"
       link_styles="false" />
    <inkscape:path-effect
       effect="mirror_symmetry"
       start_point="105,0"
       end_point="105,297"
       center_point="105,148.5"
       id="path-effect3"
       is_visible="true"
       lpeversion="1.2"
       lpesatellites=""
       mode="vertical"
       discard_orig_path="false"
       fuse_paths="true"
       oposite_fuse="false"
       split_items="false"
       split_open="false"
       link_styles="false" />
    <rect
       x="69.562866"
       y="31.540928"
       width="482.61942"
       height="346.51813"
       id="rect1" />
    <font
       horiz-adv-x="1000"
       id="font1"
       inkscape:label="font 1"
       horiz-origin-x="0"
       horiz-origin-y="0"
       vert-origin-x="512"
       vert-origin-y="768"
       vert-adv-y="1024">
      <font-face
         units-per-em="1000"
         ascent="750"
         cap-height="600"
         x-height="400"
         descent="200"
         id="font-face1"
         font-family="Weather-Icons" />
      <missing-glyph
         d="M0,0h1000v1000h-1000z"
         id="missing-glyph1" />
    </font>
  </defs>
  <g
     inkscape:label="Layer 1"
     inkscape:groupmode="layer"
     id="layer1"
     style="display:inline"
     transform="translate(-18.90985,-8.8263382)">
    <path
       id="text1"
       style="white-space:pre;stroke-width:11.3198"
       d="m 86.924276,8.8263382 c -1.555824,0 -2.808051,1.2472288 -2.808051,2.7963498 v 63.143373 4.260586 c 0,1.325213 0.916663,2.429634 2.155641,2.721145 a 12.482646,12.428874 0 0 0 0.05186,0.07602 h -3.181199 c -5.269057,0 -7.153434,4.777012 -9.511343,9.468745 L 64.05942,110.33939 c -0.368848,0.73394 4.590862,2.44076 7.988113,3.38538 l -7.234864,13.51468 c -0.34962,0.65309 0.12675,1.44268 0.870016,1.44148 l 8.867908,-0.0146 v 13.07202 c 0,1.34586 0.978898,2.42927 2.194835,2.42927 h 5.735704 c 1.215938,0 2.194836,-1.08341 2.194836,-2.42927 v -13.08909 l 2.248313,-0.004 2.248721,0.004 v 13.08909 c 0,1.34586 0.978898,2.42927 2.194824,2.42927 h 5.735308 c 1.215926,0 2.194824,-1.08341 2.194824,-2.42927 V 128.6663 l 8.867912,0.0146 c 0.74327,0.002 1.22006,-0.78839 0.87042,-1.44148 l -7.23526,-13.51468 c 3.39725,-0.94462 8.35696,-2.65144 7.9881,-3.38538 L 100.21777,91.292556 C 99.497386,89.859145 98.821301,88.417849 98.079282,87.107163 A 12.482646,12.428874 0 0 0 109.0812,74.766061 12.482646,12.428874 0 0 0 96.598921,62.337137 12.482646,12.428874 0 0 0 89.732724,64.385933 V 11.622688 c 0,-1.549121 -1.252625,-2.7963498 -2.808448,-2.7963498 z m -16.300785,0.066259 c -0.08849,3.39e-5 -0.398956,0.044007 -0.930436,0.1321112 -0.443108,0.088104 -0.930231,0.1767168 -1.461995,0.265047 -5.58351,0.8823976 -10.635597,3.3090606 -15.155591,7.2801116 -4.519983,3.882799 -7.710598,8.604012 -9.571764,14.163471 -0.354509,1.058945 -0.664526,2.29419 -0.930436,3.706116 -0.26591,1.411928 -0.398876,2.515152 -0.398876,3.309365 0,0.264765 -0.04427,0.529666 -0.133091,0.794317 0,0.264765 -0.0442,0.441053 -0.132683,0.529269 0,0.08811 -0.221554,0.220612 -0.664662,0.397159 -0.443108,0.176547 -0.975041,0.352834 -1.595494,0.529269 -4.874503,1.323676 -9.128621,3.926987 -12.762343,7.809787 -3.633723,3.794549 -6.115308,8.25093 -7.444711,13.369166 -0.177311,0.970728 -0.310277,1.897235 -0.398876,2.77969 -0.08849,0.794181 -0.132683,2.25042 -0.132683,4.36831 0,2.117891 0.0442,3.617968 0.132683,4.500423 0.08849,0.794181 0.266171,1.676872 0.531967,2.647578 1.595279,5.824189 4.608424,10.76556 9.039797,14.824862 4.43135,3.97104 9.527521,6.353786 15.288284,7.148 0.354509,0.08811 1.506522,0.132519 3.456366,0.132519 1.861166,0 4.653199,0.04401 8.375543,0.13211 h 7.603519 l 4.640743,-9.23459 c 1.794167,-3.570019 4.256422,-9.502157 9.817141,-11.896391 -0.02723,-22.496111 0.03963,-44.992416 -0.0045,-67.4885164 -1.014406,-0.132947 -1.963424,-0.1991834 -3.578442,-0.1991834 -1.77234,-0.088104 -2.968607,-0.088104 -3.58906,0 z m 25.429577,9.0390678 v 38.120486 c 0.181962,-0.0053 0.363845,-0.0078 0.546261,-0.0078 10.389361,3.05e-4 18.802251,8.375835 18.802211,18.720822 0,6.535867 -3.35479,12.340786 -8.53313,15.695999 l 3.61396,7.191906 25.1495,-0.07439 2.25974,-0.794317 c 3.19058,-1.058945 5.98262,-2.559021 8.37556,-4.500421 2.39293,-2.02964 4.29847,-4.500535 5.71651,-7.41264 0.88621,-1.76491 1.50636,-3.397403 1.86087,-4.89758 0.35451,-1.588419 0.53197,-3.397606 0.53197,-5.427257 0,-1.9414 -0.17758,-3.662042 -0.53197,-5.16222 -0.35451,-1.588418 -0.93056,-3.220912 -1.72818,-4.897581 -1.50667,-3.088585 -3.58926,-5.691896 -6.24808,-7.809787 -2.57018,-2.206142 -5.49481,-3.750497 -8.77402,-4.632951 l -1.4624,-0.264641 -0.39887,-2.779678 c -0.62042,-5.471228 -2.57041,-10.104293 -5.84962,-13.898841 -3.19058,-3.8828 -7.40026,-6.618528 -12.62926,-8.206957 -1.06352,-0.352982 -1.94959,-0.57357 -2.65861,-0.661788 -0.70902,-0.0881 -2.03855,-0.132111 -3.98834,-0.132111 -1.59529,0 -2.83628,0.04401 -3.72255,0.132111 -0.79762,0.08811 -1.50668,0.176718 -2.12707,0.265048 -0.44311,0.176547 -0.84162,0.308929 -1.19621,0.397146 -0.26591,0.0881 -0.39887,0.0881 -0.39887,0 l -0.2662,-0.397146 c -0.17731,-0.352982 -0.39885,-0.750243 -0.66465,-1.191475 -0.79761,-1.500167 -1.59519,-2.77969 -2.392838,-3.838634 -0.797617,-1.058946 -1.861189,-2.206041 -3.190592,-3.441477 -0.03176,-0.03162 -0.06336,-0.06341 -0.09512,-0.0939 z M 33.375482,104.15562 v 4.1e-4 c -0.315711,-0.0169 -0.706409,0.0418 -1.171717,0.17398 -0.797617,0.26476 -1.5952,1.01456 -2.392839,2.25001 -0.709018,1.14719 -2.215596,4.01534 -4.519904,8.60411 -1.949799,3.8828 -3.190784,6.44183 -3.722548,7.67726 -0.531707,1.14719 -0.797344,1.98558 -0.797344,2.51505 0.08849,1.58842 0.797605,2.77979 2.127053,3.574 1.418036,0.70596 2.836083,0.66167 4.254119,-0.13252 0.531707,-0.26476 1.0633,-0.88262 1.595086,-1.85326 0.531707,-0.97073 1.949788,-3.66216 4.254118,-8.07443 2.038421,-4.05929 3.323479,-6.66218 3.855242,-7.80938 0.531707,-1.23544 0.797753,-2.16237 0.797753,-2.78009 0,-0.79419 -0.221542,-1.50018 -0.66465,-2.11789 -0.354509,-0.61775 -0.930458,-1.14699 -1.728189,-1.58822 -0.620419,-0.26476 -1.152352,-0.39716 -1.595494,-0.39716 -0.08848,-0.0226 -0.185524,-0.0362 -0.290686,-0.0419 z m 114.769698,0 v 4.1e-4 c -0.49858,-0.0169 -0.94725,0.0418 -1.34605,0.17398 h -4e-4 c -0.17731,0.0881 -0.44284,0.22061 -0.79735,0.39716 -0.26591,0.17654 -0.48745,0.35283 -0.66465,0.52927 -0.17731,0.0881 -0.79773,1.10289 -1.86128,3.04432 -0.97493,1.9414 -2.08289,4.19172 -3.32368,6.75084 -2.3043,4.50052 -3.6779,7.23625 -4.12103,8.20694 -0.35451,0.97073 -0.53156,1.76482 -0.53156,2.38254 0.17731,1.23543 0.66478,2.20624 1.46241,2.9122 0.88632,0.70596 1.90535,1.01465 3.0575,0.92643 1.15216,-0.17655 2.03821,-0.70574 2.65861,-1.58822 0.70902,-0.97072 2.34898,-3.97127 4.91918,-9.00126 2.03842,-4.05929 3.32346,-6.66259 3.85524,-7.80979 0.53171,-1.23543 0.79734,-2.16196 0.79734,-2.77968 0,-0.70597 -0.17705,-1.32338 -0.53156,-1.85286 -0.26591,-0.61774 -0.70891,-1.14738 -1.32931,-1.58862 -0.44311,-0.35299 -1.01917,-0.57357 -1.72819,-0.66179 -0.17731,-0.0226 -0.34903,-0.0362 -0.51522,-0.0419 z M 46.243565,118.9443 c -0.630061,-0.0135 -1.2774,0.14465 -1.942107,0.47561 -0.620419,0.35298 -1.196425,0.97073 -1.728189,1.85326 -0.443108,0.79418 -1.861155,3.52953 -4.254117,8.20654 l -3.988334,7.94232 c -0.531706,1.23543 -0.797344,2.11768 -0.797344,2.64716 0,1.85316 0.841984,3.13268 2.525941,3.83864 1.683912,0.70596 3.190489,0.44159 4.519892,-0.79391 0.177311,-0.0881 0.75326,-1.10334 1.728188,-3.04473 1.063527,-1.94141 2.215585,-4.14744 3.456366,-6.61831 2.570184,-5.11824 4.032701,-8.25083 4.38721,-9.39802 0.354509,-1.1472 0.265513,-2.16228 -0.266194,-3.04473 -0.709018,-0.97072 -1.550628,-1.58812 -2.525522,-1.85285 -0.365626,-0.13238 -0.737684,-0.20273 -1.11579,-0.21098 z m 77.518015,0.006 v 4.1e-4 c -0.49858,-0.0169 -0.94725,0.0418 -1.34605,0.17399 h -4e-4 c -0.17732,0.0881 -0.44284,0.22059 -0.79735,0.39715 -0.26591,0.17654 -0.48745,0.35283 -0.66465,0.52927 -0.17732,0.0881 -0.79774,1.10289 -1.86128,3.04432 -0.97494,1.9414 -2.08289,4.19173 -3.32368,6.75084 -2.30431,4.50052 -3.67789,7.23626 -4.12103,8.20695 -0.35451,0.97074 -0.53156,1.76482 -0.53156,2.38253 0.17731,1.23543 0.66478,2.20624 1.4624,2.91221 0.88633,0.70596 1.90536,1.01465 3.05751,0.92642 1.15214,-0.17655 2.03821,-0.70574 2.65861,-1.58821 0.70902,-0.97073 2.34899,-3.97128 4.91918,-9.00126 2.03842,-4.05929 3.32346,-6.66259 3.85524,-7.80979 0.5317,-1.23543 0.79734,-2.16196 0.79734,-2.77969 0,-0.70597 -0.17705,-1.32337 -0.53156,-1.85285 -0.26591,-0.61775 -0.70891,-1.14739 -1.32931,-1.58862 -0.44311,-0.35298 -1.01917,-0.57358 -1.72818,-0.66181 -0.17732,-0.0226 -0.34904,-0.0361 -0.51523,-0.0418 z" />
  </g>
</svg>
