<?xml version="1.0" encoding="UTF-8" standalone="no"?>
<!-- Created with Inkscape (http://www.inkscape.org/) -->

<svg
   width="135.46666mm"
   height="127.16457mm"
   viewBox="0 0 135.46666 127.16457"
   version="1.1"
   id="svg1"
   inkscape:version="1.4.3 (0d15f75, 2025-12-25)"
   sodipodi:docname="hallowed.svg"
   inkscape:export-filename="hallowed.png"
   inkscape:export-xdpi="96"
   inkscape:export-ydpi="96"
   xmlns:inkscape="http://www.inkscape.org/namespaces/inkscape"
   xmlns:sodipodi="http://sodipodi.sourceforge.net/DTD/sodipodi-0.dtd"
   xmlns="http://www.w3.org/2000/svg"
   xmlns:svg="http://www.w3.org/2000/svg">
  <sodipodi:namedview
     id="namedview1"
     pagecolor="#ffffff"
     bordercolor="#000000"
     borderopacity="0.25"
     inkscape:showpageshadow="2"
     inkscape:pageopacity="0.0"
     inkscape:pagecheckerboard="0"
     inkscape:deskcolor="#d1d1d1"
     inkscape:document-units="mm"
     inkscape:zoom="2"
     inkscape:cx="209"
     inkscape:cy="283.75"
     inkscape:window-width="2560"
     inkscape:window-height="1387"
     inkscape:window-x="1912"
     inkscape:window-y="-8"
     inkscape:window-maximized="1"
     inkscape:current-layer="layer1" />
  <defs
     id="defs1">
    <inkscape:path-effect
       effect="fillet_chamfer"
       id="path-effect4"
       is_visible="true"
       lpeversion="1"
       nodesatellites_param="F,0,0,1,0,0,0,1 @ F,0,0,1,0,0,0,1 @ F,0,0,1,0,0,0,1 @ F,0,0,1,0,0,0,1 @ F,0,0,1,0,0,0,1 @ F,0,0,1,0,0,0,1 @ F,0,0,1,0,0,0,1 @ F,0,0,1,0,0,0,1 @ F,0,0,1,0,0,0,1 @ F,0,0,1,0,0,0,1 @ F,0,0,1,0,0,0,1 @ F,0,0,1,0,0,0,1 @ F,0,0,1,0,0,0,1 @ F,0,0,1,0,0,0,1 @ F,0,0,1,0,0,0,1 @ F,0,0,1,0,0,0,1 @ F,0,0,1,0,0,0,1 @ F,0,0,1,0,0,0,1 @ F,0,0,1,0,0,0,1 @ F,0,0,1,0,0,0,1 @ F,0,0,1,0,0,0,1 @ F,0,0,1,0,0,0,1 @ F,0,0,1,0,0,0,1 @ F,0,0,1,0,0,0,1 @ F,0,0,1,0,0,0,1 @ F,0,0,1,0,0,0,1 @ F,0,0,1,0,0,0,1 @ F,0,0,1,0,0,0,1 @ F,0,0,1,0,0,0,1 @ F,0,0,1,0,0,0,1 @ F,0,0,1,0,0,0,1 @ F,0,0,1,0,0,0,1 @ F,0,0,1,0,0,0,1 @ F,0,0,1,0,0,0,1 @ F,0,0,1,0,0,0,1 @ F,0,0,1,0,0,0,1 @ F,0,0,1,0,0,0,1 @ F,0,0,1,0,0,0,1"
       radius="0"
       unit="px"
       method="auto"
       mode="F"
       chamfer_steps="1"
       flexible="false"
       use_knot_distance="true"
       apply_no_radius="true"
       apply_with_radius="true"
       only_selected="false"
       hide_knots="false" />
    <inkscape:path-effect
       effect="mirror_symmetry"
       start_point="105,0"
       end_point="105,297"
       center_point="105,148.5"
       id="path-effect1"
       is_visible="true"
       lpeversion="1.2"
       lpesatellites=""
       mode="vertical"
       discard_orig_path="false"
       fuse_paths="true"
       oposite_fuse="false"
       split_items="false"
       split_open="false"
       link_styles="false" />
  </defs>
  <g
     inkscape:label="Layer 1"
     inkscape:groupmode="layer"
     id="layer1"
     transform="translate(-73.103127,-18.091158)">
    <path
       id="path4"
       style="fill:#000000;stroke-width:0.561851"
       d="m 149.91646,18.092768 c -10.63017,0.504391 -15.47678,23.895022 -15.47727,23.897375 -1.95955,0.90611 -3.69034,2.217196 -5.0874,3.82652 -7.65263,-3.182892 -14.45787,-4.808849 -20.45054,-5.153238 C 48.759932,37.207197 70.09659,163.004 130.66754,143.12354 c 0.52732,-0.17307 1.04737,-0.34837 1.56046,-0.52564 2.44417,1.67747 5.40769,2.65782 8.60884,2.65782 3.20114,0 6.16577,-0.98035 8.60996,-2.65782 0.51306,0.17727 1.03312,0.35256 1.56043,0.52564 1.14166,0.3747 2.26972,0.69812 3.3832,0.97117 l 0.20853,-32.51062 c -0.0548,-1.34154 -1.82947,3.58284 -3.19443,2.10805 -3.65066,-3.94439 0.72949,-8.36694 2.58211,-12.20163 0.52507,-1.08682 1.66317,-5.910602 1.80078,-8.56715 0.54823,-10.578778 -5.32046,-15.872301 -4.28413,-21.559981 1.03635,-5.687704 3.59882,-2.407665 5.17739,-1.107244 2.04898,1.687859 4.46032,2.138089 6.88268,1.89735 0.51865,-0.05156 1.86992,-1.260115 2.02685,-1.77225 0.43427,-1.418067 0.64305,-2.581156 0.50587,-2.969476 -0.12274,-0.347687 -5.2921,-1.091646 -4.52774,-6.566648 0.84534,-6.055131 3.19713,-8.079007 4.96011,-11.606856 0.99885,-1.99874 1.13465,-2.752313 1.52863,-2.689648 0.53471,0.08505 -0.55392,2.32179 -0.42906,2.974964 1.25745,6.579192 5.8593,6.737956 3.911,13.162924 -1.13792,3.752532 -3.30356,3.501974 -4.98423,4.763672 -0.23555,0.176891 0.0321,2.43309 0.10214,2.549184 0.5553,0.918155 2.93823,0.37718 3.83859,-0.0845 1.94845,-0.999101 3.60238,-2.12247 4.67917,-2.931068 3.38833,-2.544506 7.93013,-1.028284 6.45693,3.911018 -1.47321,4.939302 -2.87697,4.64158 -2.45812,12.636187 0.40315,7.695465 -0.5775,6.501942 4.21719,13.805981 3.02555,4.609011 -1.5161,8.417491 -3.16263,5.581221 -1.26186,-2.17424 -1.2466,-0.87461 -1.2466,-0.87461 v 39.604 c 42.10709,-20.98374 44.34935,-125.366789 -26.65836,-95.83092 -1.39705,-1.60932 -3.12784,-2.920412 -5.08737,-3.82652 0,0 -7.29061,-18.259599 5.77544,-20.322151 0.976,-0.154063 -1.25176,-3.662664 -3.09458,-3.575224 z"
       sodipodi:nodetypes="sccsscscsccsscscsccssscsccscssscccccsss" />
  </g>
</svg>
