<?xml version="1.0" standalone="no"?>
<!DOCTYPE svg PUBLIC "-//W3C//DTD SVG 20010904//EN"
 "http://www.w3.org/TR/2001/REC-SVG-20010904/DTD/svg10.dtd">
<svg version="1.0" xmlns="http://www.w3.org/2000/svg"
 width="512.000000pt" height="512.000000pt" viewBox="0 0 512.000000 512.000000"
 preserveAspectRatio="xMidYMid meet">

<g transform="translate(0.000000,512.000000) scale(0.100000,-0.100000)"
fill="#000000" stroke="none">
<path d="M1960 5115 c-8 -2 -49 -9 -90 -15 -421 -68 -789 -390 -929 -810 -26
-80 -51 -207 -51 -263 0 -23 -4 -47 -8 -52 -4 -6 -42 -21 -86 -33 -365 -106
-662 -419 -759 -801 -19 -74 -22 -113 -22 -271 1 -160 4 -196 23 -268 120
-440 483 -770 917 -832 58 -8 547 -10 1765 -8 l1685 3 85 29 c243 81 422 233
530 451 66 134 90 236 90 390 0 150 -24 255 -85 380 -116 236 -320 406 -566
468 l-54 14 -13 104 c-49 409 -305 716 -697 835 -81 25 -105 27 -250 28 -121
0 -175 -4 -220 -16 -32 -10 -60 -16 -60 -15 -1 1 -16 29 -35 62 -61 111 -113
179 -209 275 -185 185 -406 297 -661 336 -83 12 -256 17 -300 9z"/>
<path d="M516 1510 c-59 -18 -89 -64 -260 -409 -147 -295 -169 -345 -169 -385
2 -121 131 -193 238 -133 38 21 50 42 218 375 157 312 177 358 177 401 0 62
-30 108 -90 139 -47 23 -67 26 -114 12z"/>
<path d="M1959 1510 c-67 -20 -76 -34 -260 -402 -102 -204 -179 -371 -179
-386 1 -39 33 -105 65 -130 54 -43 141 -41 196 5 45 38 379 709 379 761 0 56
-37 113 -90 140 -46 23 -68 26 -111 12z"/>
<path d="M3380 1505 c-19 -9 -43 -24 -53 -33 -11 -9 -98 -174 -193 -365 -125
-251 -174 -358 -174 -383 0 -136 158 -213 260 -128 37 32 366 681 376 743 18
112 -112 212 -216 166z"/>
<path d="M4825 1508 c-16 -6 -41 -20 -54 -32 -13 -11 -102 -178 -198 -371
-170 -338 -175 -351 -171 -400 8 -91 79 -151 168 -143 89 9 94 16 285 399 155
308 175 355 175 397 0 53 -25 101 -70 133 -32 23 -96 32 -135 17z"/>
<path d="M970 938 c-45 -23 -47 -27 -224 -378 -154 -304 -179 -362 -180 -401
0 -137 162 -209 263 -116 13 12 101 178 197 369 191 382 197 401 152 468 -52
76 -131 98 -208 58z"/>
<path d="M2414 941 c-23 -10 -50 -32 -61 -47 -44 -62 -345 -680 -350 -720 -10
-74 51 -155 126 -170 45 -9 97 4 132 33 41 35 379 708 379 756 0 56 -39 119
-90 145 -54 27 -82 27 -136 3z"/>
<path d="M3865 948 c-16 -6 -41 -20 -54 -32 -13 -11 -101 -177 -197 -368 -146
-291 -174 -355 -174 -391 0 -117 134 -193 235 -135 38 22 51 45 223 388 171
339 183 367 177 404 -9 58 -40 102 -89 125 -46 23 -75 25 -121 9z"/>
</g>
</svg>
