<?xml version="1.0" encoding="UTF-8" standalone="no"?>
<!-- Created with Inkscape (http://www.inkscape.org/) -->

<svg
   width="50mm"
   height="50mm"
   viewBox="0 0 50 50"
   version="1.1"
   id="svg7082"
   inkscape:version="1.2.2 (732a01da63, 2022-12-09)"
   sodipodi:docname="BloodMoon.svg"
   xmlns:inkscape="http://www.inkscape.org/namespaces/inkscape"
   xmlns:sodipodi="http://sodipodi.sourceforge.net/DTD/sodipodi-0.dtd"
   xmlns="http://www.w3.org/2000/svg"
   xmlns:svg="http://www.w3.org/2000/svg">
  <sodipodi:namedview
     id="namedview7084"
     pagecolor="#ffffff"
     bordercolor="#000000"
     borderopacity="0.25"
     inkscape:showpageshadow="2"
     inkscape:pageopacity="0"
     inkscape:pagecheckerboard="0"
     inkscape:deskcolor="#d1d1d1"
     inkscape:document-units="mm"
     showgrid="false"
     inkscape:zoom="0.74564394"
     inkscape:cx="193.12167"
     inkscape:cy="347.35077"
     inkscape:window-width="1920"
     inkscape:window-height="1017"
     inkscape:window-x="-8"
     inkscape:window-y="-8"
     inkscape:window-maximized="1"
     inkscape:current-layer="layer1" />
  <defs
     id="defs7079" />
  <g
     inkscape:label="Layer 1"
     inkscape:groupmode="layer"
     id="layer1">
    <path
       id="path6486"
       style="fill:#000000;stroke-width:0.232008;stroke-dasharray:none"
       d="m 25.310188,2.3495989 c -0.275829,0.012944 -0.636931,0.3774427 -0.800643,0.744481 -0.04204,0.094581 -0.0376,0.2010924 0.03767,0.4946389 0.06324,0.2464454 -0.290595,0.7207451 -0.321091,0.9104764 -0.06117,0.3794874 -0.218423,0.5351195 -0.28169,1.1158724 -0.126711,1.1614894 -0.31162,3.653341 -0.06117,4.5422994 0.620484,2.20274 -0.497235,4.33142 -0.869404,6.008623 -0.133228,0.600358 -0.694351,0.05367 -1.074791,-1.126772 -0.24468,-0.759231 -0.692076,-1.474552 -0.779682,-2.344926 -0.08745,-0.870375 0.07355,-1.5528 -0.138339,-2.322303 -0.23837,-0.8661882 -0.12753,-1.1680609 -0.355471,-2.0372487 -0.228103,-0.8691878 0.145607,-1.6486835 -0.449359,-2.3113788 -1.58476,-1.765764 -1.97651,-1.0504108 -1.589562,1.1988701 0.03598,0.2090731 0.331835,0.5583938 0.276675,0.999336 -0.05517,0.4409505 -0.318013,1.6570351 -0.300978,1.9190304 0.0682,1.047986 0.290514,1.990543 0.168513,2.595617 -0.183423,0.909364 0.584793,2.983663 0.433427,3.896752 -0.201447,1.215822 -0.95975,3.150154 -1.704408,2.802679 -0.327358,-0.15282 -0.740864,-0.434083 -1.022812,-0.737769 -0.437468,-0.471126 -0.464138,-0.401188 -0.599442,-0.695855 -0.266909,-0.581108 -0.459304,-0.870053 -0.370561,-1.554342 0.06919,-0.534072 0.298723,-0.969466 0.256543,-1.520811 -0.07539,-0.983901 -0.594966,-2.00619 -0.872745,-2.320605 -0.277778,-0.314445 -0.446518,0.359289 -0.556676,0.408278 v 6.44e-4 c -0.333978,0.912282 -0.237172,1.121792 -0.560037,1.609678 -0.354759,0.536174 0.128118,1.181482 0.02348,1.820104 -0.261427,1.373753 -0.08188,1.496407 0.319423,2.807724 0.85253,1.165669 2.236201,3.041762 2.490796,3.949559 3.028426,5.057277 2.575109,9.825344 1.722872,15.14103 -0.455443,-0.119728 -0.931522,-0.185172 -1.419379,-0.185287 -0.935058,3.87e-4 -1.853178,0.234202 -2.660152,0.677411 -0.673422,-0.535186 -1.508218,-0.826556 -2.368405,-0.826638 -1.63361,0.0016 -3.084511,1.044047 -3.605839,2.592247 -1.479112,0.0164 -2.814882,0.887877 -3.425596,2.235107 -0.135888,-0.01805 -0.272458,-0.02687 -0.409127,-0.0268 -2.102546,1.31e-4 -3.806977,0.38872 -3.807052,2.973702 l -0.005,1.500694 v 0.367206 h 48.739648 c -0.754993,-2.017412 -2.519223,-3.395618 -4.587571,-3.148092 -1.019872,-2.689094 -1.307078,-3.670135 -4.168401,-3.960467 -1.889795,-0.191758 -3.483883,1.5645 -4.06276,1.431935 -1.079071,-0.247114 -2.073766,-0.775027 -3.180783,-0.77548 -0.835329,0.0016 -1.663598,0.153307 -2.444685,0.449359 -0.522184,-0.595708 -1.143326,-1.08188 -1.827656,-1.445357 -0.295171,-1.910479 -0.452749,-3.979774 -0.26577,-5.907172 0.111285,-1.147688 -0.06167,-2.805795 0.270799,-3.474221 0.332503,-0.668399 0.836144,-2.592204 1.183783,-4.043481 0.347606,-1.451284 1.252064,-2.594297 1.46882,-4.389716 0.108375,-0.897697 1.259567,-1.839414 1.92072,-3.072638 0.165287,-0.308296 1.563963,-1.862076 1.660821,-2.220854 0.09686,-0.358769 1.17192,-1.609225 1.2433,-1.83351 0.142928,-0.448617 0.343847,-1.696633 -0.1585,-1.809212 -0.527075,-0.118276 -1.157889,0.334538 -1.551828,0.628785 -0.196971,0.14714 -0.608414,1.125568 -0.799803,1.422718 -0.191388,0.297149 -1.573352,1.048556 -1.804183,1.363184 -0.361202,0.492256 -1.073817,0.332691 -1.799138,0.378119 -0.06893,0.0049 0.388935,-1.961457 0.706738,-3.4298 0.07791,-0.359692 0.510806,-0.874324 0.617878,-1.33887 0.107072,-0.464547 0.297941,-1.107092 0.412481,-1.571951 0.114542,-0.464868 0.344894,-0.818748 0.55668,-1.0957483 0.211801,-0.2770169 0.516363,-1.0480532 0.554155,-1.2055897 0.07107,-0.2962837 0.339733,-1.5121211 0.145047,-1.9441921 -0.614812,-1.364412 -1.683129,-0.1725003 -2.340729,1.2299025 -0.1014,0.2163447 -0.395334,0.2347465 -0.713457,0.8970544 -0.318148,0.6623 -0.910049,2.0675392 -1.092401,2.4975082 -0.182344,0.429952 -0.740927,0.963381 -0.906272,1.593749 -0.165318,0.630344 -0.123626,1.014473 -0.143422,1.080661 -0.368365,1.229763 0.03265,1.358155 -1.077305,1.961803 -0.508522,0.276612 -0.789528,-3.852637 -0.658119,-4.92126 0.06709,-0.545803 -0.359878,-1.8585298 -0.48545,-2.4036086 C 25.916754,8.0494354 25.727295,7.286701 25.912014,6.534602 26.048164,5.980281 26.268251,5.1103264 26.245703,4.6574873 26.216683,4.0775176 25.933969,3.0070725 25.547334,2.4676576 25.484924,2.3805376 25.402015,2.3453335 25.310081,2.3493898 Z" />
  </g>
</svg>
