<?xml version="1.0" encoding="UTF-8" standalone="no"?>
<!-- Created with Inkscape (http://www.inkscape.org/) -->

<svg
   width="50mm"
   height="50mm"
   viewBox="0 0 50 50"
   version="1.1"
   id="svg7082"
   inkscape:version="1.2.2 (732a01da63, 2022-12-09)"
   sodipodi:docname="MajoraMoon.svg"
   xmlns:inkscape="http://www.inkscape.org/namespaces/inkscape"
   xmlns:sodipodi="http://sodipodi.sourceforge.net/DTD/sodipodi-0.dtd"
   xmlns="http://www.w3.org/2000/svg"
   xmlns:svg="http://www.w3.org/2000/svg">
  <sodipodi:namedview
     id="namedview7084"
     pagecolor="#ffffff"
     bordercolor="#000000"
     borderopacity="0.25"
     inkscape:showpageshadow="2"
     inkscape:pageopacity="0"
     inkscape:pagecheckerboard="0"
     inkscape:deskcolor="#d1d1d1"
     inkscape:document-units="mm"
     showgrid="false"
     inkscape:zoom="0.74564394"
     inkscape:cx="193.12167"
     inkscape:cy="347.35077"
     inkscape:window-width="1920"
     inkscape:window-height="1017"
     inkscape:window-x="-8"
     inkscape:window-y="-8"
     inkscape:window-maximized="1"
     inkscape:current-layer="layer1" />
  <defs
     id="defs7079" />
  <g
     inkscape:label="Layer 1"
     inkscape:groupmode="layer"
     id="layer1">
    <path
       style="fill:#000000;stroke-width:0.0313915"
       d="m 34.276182,46.098115 c -0.312699,-0.08284 -2.014112,-0.959788 -3.06067,-1.57756 -1.632336,-0.963581 -2.705612,-1.990898 -2.527982,-2.419751 0.12509,-0.301972 1.69038,-1.582417 3.062008,-2.504771 0.492979,-0.331508 0.653683,-0.410577 0.720946,-0.35476 0.08483,0.07038 0.256399,0.405108 0.426778,0.832445 0.179747,0.450837 1.158549,3.379583 1.426816,4.269242 0.322965,1.07108 0.418078,1.661528 0.28356,1.760269 -0.07381,0.05415 -0.109687,0.05361 -0.331456,-0.0054 z m -18.932161,-0.05007 c -0.09438,-0.176338 0.06937,-0.955738 0.453733,-2.16022 0.420548,-1.317803 1.117787,-3.387747 1.27241,-3.777501 0.177582,-0.447645 0.356492,-0.805875 0.440398,-0.881795 0.05068,-0.04588 0.06751,-0.0433 0.209348,0.0317 0.407961,0.215749 1.547862,1.03082 2.423963,1.733237 0.551414,0.44209 1.080116,0.942479 1.148855,1.087335 0.04812,0.101427 0.04763,0.117823 -0.0069,0.262122 -0.168095,0.442379 -0.75414,1.008545 -1.716291,1.658057 -0.522856,0.352953 -0.881218,0.565048 -1.844244,1.091461 -1.745038,0.953889 -2.26933,1.164319 -2.381016,0.955652 z m 9.435485,-1.827336 c -0.206692,-0.09004 -0.198425,0.03084 -0.345845,-5.05496 -0.03109,-1.071508 -0.05904,-1.644261 -0.08178,-1.671595 -0.04822,-0.05812 -0.291807,-0.0534 -0.341603,0.0065 -0.03218,0.03879 -0.03287,0.268599 -0.004,1.185034 0.04005,1.250306 0.04832,4.381295 0.01171,4.436135 -0.05894,0.08832 -0.161355,0.109861 -0.266063,0.05598 -0.13625,-0.07006 -0.407578,-0.279269 -0.808867,-0.62365 -0.548806,-0.470981 -0.899975,-0.765529 -1.45945,-1.224197 -0.992648,-0.813772 -1.73556,-1.51073 -1.788653,-1.677978 -0.02923,-0.09197 -0.02991,-0.09154 0.768431,-0.505396 1.346837,-0.698248 2.015931,-1.151157 2.35782,-1.59604 0.642621,-0.836195 0.933248,-2.056461 0.835821,-3.509354 -0.01831,-0.273316 -0.03455,-0.737077 -0.03611,-1.030594 -0.0029,-0.496639 0.002,-0.54501 0.07125,-0.697323 0.103382,-0.228631 0.328022,-0.430421 0.558352,-0.50156 0.15108,-0.04663 0.288235,-0.0563 0.770182,-0.05436 l 0.58637,0.0021 0.20186,0.09939 c 0.223963,0.110259 0.337724,0.243758 0.423461,0.496972 0.04408,0.130105 0.05225,0.336451 0.05649,1.423517 0.0029,0.767077 0.01997,1.395862 0.04281,1.585264 0.105274,0.871137 0.365921,1.580419 0.791921,2.154966 0.355744,0.479792 0.897101,0.849132 2.380416,1.62403 0.857255,0.447838 0.813876,0.415648 0.741464,0.550114 -0.124124,0.230489 -0.792845,0.84247 -2.059901,1.885098 -0.353944,0.29126 -0.791851,0.658751 -0.973135,0.816672 -0.47116,0.410427 -0.841666,0.702825 -0.979962,0.773384 -0.09802,0.04997 -0.132333,0.05436 -0.189815,0.02407 -0.03857,-0.02041 -0.08059,-0.05243 -0.09329,-0.07156 -0.03661,-0.05469 -0.02873,-2.988776 0.01162,-4.341874 0.02962,-0.993999 0.02903,-1.24025 -0.0029,-1.279198 -0.05984,-0.07199 -0.303745,-0.0649 -0.343887,0.0097 -0.01772,0.0332 -0.05187,0.782902 -0.07893,1.734374 -0.113438,3.986621 -0.145401,4.714384 -0.213236,4.855865 -0.0741,0.154603 -0.331998,0.211376 -0.542833,0.119522 z M 8.8873691,42.687084 c 0.029913,-0.265333 0.4945227,-1.296013 1.2558469,-2.785996 1.228244,-2.403763 2.183644,-4.011204 2.656605,-4.469679 l 0.125827,-0.12197 0.138603,0.08123 c 0.268119,0.157126 0.737203,0.610691 1.450642,1.402673 0.511224,0.567499 1.05197,1.262598 1.05197,1.352261 0,0.01461 -0.08601,0.118618 -0.191132,0.230994 -0.441422,0.471874 -1.90536,1.558908 -3.93684,2.923245 -1.5998521,1.074453 -2.3335627,1.520658 -2.5004666,1.520658 -0.059245,0 -0.064553,-0.01397 -0.051079,-0.133413 z m 31.7291649,-0.04974 c -0.852207,-0.47456 -3.257766,-2.097548 -4.660916,-3.144624 -0.991014,-0.739549 -1.52248,-1.205684 -1.52248,-1.335348 0,-0.199632 1.431628,-1.869002 2.113614,-2.46462 0.360999,-0.315262 0.461162,-0.370467 0.568232,-0.313167 0.364573,0.195118 1.595542,2.274572 2.946031,4.976686 0.746179,1.492991 1.058505,2.203176 1.058505,2.406944 0,0.104543 -0.162063,0.06393 -0.502986,-0.125871 z M 18.206846,38.862662 c -0.56597,-0.359025 -1.905682,-1.487587 -3.298517,-2.778615 -1.041451,-0.965311 -1.618679,-1.614435 -1.726694,-1.941732 -0.06731,-0.204026 0.07056,-0.311083 0.303882,-0.235872 0.235467,0.07586 0.524194,0.315048 1.564209,1.295723 0.516595,0.48711 0.96592,0.867268 1.273236,1.077246 l 0.206878,0.141365 0.524982,-8.48e-4 c 0.839463,-0.001 1.363293,-0.09595 1.864902,-0.336967 0.881729,-0.423599 1.178791,-1.251897 0.85073,-2.372132 -0.05295,-0.180829 -0.08444,-0.230199 -0.225538,-0.353685 -0.320219,-0.280257 -0.886492,-0.516151 -1.543246,-0.642892 -0.432062,-0.08338 -0.903518,-0.13957 -1.995324,-0.237839 -1.084731,-0.09767 -1.542636,-0.152001 -2.11892,-0.251666 C 12.775602,32.032487 11.851083,31.723446 11.077704,31.285557 10.787412,31.121188 10.734379,31.075664 10.460118,30.755459 8.8686019,28.897244 7.6129312,26.519622 6.8726675,23.962568 6.6311179,23.128167 6.4304884,22.145826 6.372042,21.511357 6.2781573,20.491519 6.6908827,18.37807 7.1858684,17.344478 7.3598883,16.981102 7.5175121,16.811705 7.709285,16.781975 c 0.3443093,-0.05329 0.6557699,-0.159254 1.0613299,-0.360712 0.5255321,-0.261078 0.9371831,-0.52119 2.2455721,-1.418854 2.24026,-1.537053 2.42418,-1.621472 3.326418,-1.527017 0.805275,0.08434 1.746662,0.451318 2.888007,1.125928 1.34493,0.794959 2.028716,1.057273 2.681544,1.028714 0.412202,-0.01805 0.567366,-0.10218 1.179608,-0.639862 0.883275,-0.775672 1.167081,-0.900899 1.411298,-0.622747 0.124882,0.142235 0.125276,0.28462 0.002,0.685462 -0.134921,0.438318 -0.168557,0.673277 -0.148245,1.035633 0.03022,0.5388 0.161108,0.928403 0.621266,1.848943 0.153894,0.30787 0.279801,0.587783 0.279801,0.622047 0,0.205649 -0.193859,0.301725 -0.683816,0.338912 -0.203109,0.01547 -0.408129,0.04577 -0.455621,0.06737 -0.167781,0.0765 -0.142873,0.233573 0.0805,0.507813 0.518172,0.636177 1.105978,2.433848 1.403483,4.292268 0.123623,0.772201 0.16351,1.252476 0.18769,2.260174 0.01457,0.606523 0.03906,1.066276 0.06033,1.133794 0.05059,0.160199 0.159977,0.312287 0.285263,0.396717 0.437533,0.294848 1.397943,0.280923 1.76777,-0.02557 0.261901,-0.21708 0.299611,-0.412651 0.317395,-1.646131 0.01358,-0.942802 0.04546,-1.307758 0.194468,-2.228802 0.287911,-1.77934 0.87494,-3.555081 1.380406,-4.175657 0.138011,-0.16944 0.21614,-0.350344 0.185632,-0.429842 -0.03189,-0.08305 -0.176115,-0.12341 -0.538354,-0.150722 -0.491169,-0.03696 -0.700734,-0.138056 -0.700734,-0.33774 0,-0.03288 0.14676,-0.358488 0.326143,-0.723594 0.617054,-1.255915 0.711007,-1.82984 0.445308,-2.720369 -0.142144,-0.476429 -0.144821,-0.604771 -0.01564,-0.751884 0.250533,-0.285339 0.54361,-0.145468 1.535786,0.732984 0.46743,0.413843 0.66008,0.512509 1.035802,0.530475 0.656005,0.03137 1.299797,-0.208851 2.589912,-0.966343 1.305141,-0.766325 2.203502,-1.11598 3.063474,-1.192351 0.843684,-0.075 1.107404,0.04663 3.129517,1.442535 2.016789,1.392229 2.675913,1.750502 3.437012,1.868261 0.06751,0.01074 0.165585,0.05974 0.228135,0.114675 0.305486,0.268224 0.652275,1.219266 0.908084,2.490331 0.311558,1.548099 0.283177,2.269684 -0.159022,4.042448 -0.673207,2.698902 -2.028863,5.351388 -3.768488,7.373498 -0.220773,0.256609 -0.304138,0.328049 -0.541111,0.463654 -1.084139,0.620416 -2.347506,0.956447 -4.314293,1.147525 -0.452009,0.04384 -1.118475,0.108756 -1.481051,0.144094 -1.449558,0.14131 -2.259074,0.385821 -2.726495,0.823528 -0.163067,0.152689 -0.178025,0.179378 -0.240861,0.429637 -0.09388,0.37411 -0.116203,0.898244 -0.0494,1.161483 0.08227,0.324084 0.198485,0.530366 0.424337,0.75343 0.44713,0.441628 1.207863,0.684538 2.169748,0.692822 0.784845,0.0065 0.712297,0.02041 1.008492,-0.19024 0.32765,-0.233068 0.925957,-0.755172 1.564445,-1.365197 0.922118,-0.881021 1.290026,-1.112112 1.475401,-0.926739 0.07725,0.07725 0.07735,0.106155 4.43e-4,0.275616 -0.223786,0.49305 -1.420576,1.687669 -3.377403,3.371276 -1.00618,0.86569 -1.657581,1.355979 -1.851961,1.393918 -0.06071,0.01182 -0.246696,-0.01859 -0.502269,-0.0823 -1.182255,-0.29443 -2.266555,-0.815803 -2.979882,-1.432823 -1.287311,-1.113508 -1.648872,-2.727127 -0.941623,-4.202379 0.421266,-0.878722 1.285341,-1.713048 2.256653,-2.178979 0.99137,-0.475537 2.09536,-0.677651 3.254451,-0.595778 2.004281,0.141558 3.468925,-0.06812 4.778948,-0.684173 0.27923,-0.131307 0.327638,-0.167591 0.522541,-0.391666 0.903705,-1.038985 1.976922,-3.107136 2.482753,-4.784415 0.181941,-0.603289 0.216552,-0.864776 0.217576,-1.643971 0.002,-1.673369 -0.28669,-3.181445 -0.68113,-3.555608 -0.112178,-0.10637 -0.331171,-0.156031 -1.066929,-0.241739 -2.423125,-0.282288 -6.32867,-0.514808 -6.930746,-0.412619 -1.070265,0.181657 -2.72072,1.221598 -3.090881,1.947534 -0.09083,0.178153 -0.409261,0.965644 -0.508636,1.257914 -0.360399,1.059937 -0.659223,2.767913 -0.829326,4.740105 -0.06003,0.695938 -0.105317,0.847112 -0.394804,1.317502 -0.324991,0.5281 -0.780308,0.90973 -1.297682,1.087712 -0.219839,0.07554 -0.309807,0.088 -0.722009,0.09896 -0.385741,0.01075 -0.526694,0.001 -0.779689,-0.05093 -0.782482,-0.161037 -1.315454,-0.627646 -1.689788,-1.479366 -0.126724,-0.288337 -0.133366,-0.320002 -0.187817,-0.895344 -0.205649,-2.172812 -0.452895,-3.615776 -0.811258,-4.734507 -0.118132,-0.368781 -0.474615,-1.24039 -0.579029,-1.415728 -0.430162,-0.722347 -2.018647,-1.699241 -3.046881,-1.873784 -0.719501,-0.122131 -6.454745,0.267665 -7.688647,0.522566 -0.332392,0.06866 -0.4759339,0.247702 -0.6556902,0.817865 -0.2214039,0.702245 -0.3163212,1.550044 -0.317748,2.838139 l -9.802e-4,0.98883 0.1199034,0.421106 c 0.52442,1.84183 1.587432,3.926914 2.591536,5.083271 0.150765,0.173641 0.217547,0.220713 0.519657,0.366385 1.137579,0.548492 2.734035,0.812149 4.254892,0.702707 1.095468,-0.07886 1.857009,-0.03567 2.578576,0.145941 1.043979,0.262863 1.857757,0.711818 2.555026,1.409604 0.410185,0.41049 0.626304,0.701857 0.841843,1.135008 0.280363,0.563405 0.380958,0.992591 0.378105,1.613113 -0.002,0.501228 -0.05274,0.765229 -0.231098,1.210768 -0.485471,1.212411 -1.749633,2.187166 -3.542016,2.731177 -0.419101,0.127204 -0.8551,0.233252 -0.957143,0.232811 -0.03819,-3.01e-4 -0.159847,-0.0577 -0.270362,-0.127762 z M 4.6112495,37.836258 c 0,-0.310815 1.5817249,-2.733585 3.1504103,-4.825545 0.9278057,-1.237306 1.6310871,-2.056149 1.7659779,-2.056149 0.1636966,0 1.0374553,1.100616 1.8192483,2.291569 0.314767,0.479514 0.453004,0.718835 0.453004,0.784246 0,0.06415 -0.268257,0.323559 -0.517591,0.500519 -1.185641,0.841503 -6.1269468,3.361177 -6.5915632,3.361177 -0.055307,0 -0.079516,-0.01708 -0.079516,-0.05576 z m 40.2595455,-0.06672 c -0.827367,-0.317874 -3.580513,-1.701175 -5.078195,-2.55151 -0.845898,-0.480276 -1.493323,-0.938998 -1.595964,-1.130807 -0.04133,-0.07725 0.11264,-0.352697 0.592874,-1.060807 0.72695,-1.071896 1.52697,-2.071837 1.657609,-2.071837 0.403317,0 4.782099,6.097233 4.899837,6.822772 0.01781,0.109969 0.01486,0.114696 -0.07184,0.113762 -0.04969,-5.27e-4 -0.231698,-0.05522 -0.404349,-0.121573 z m 3.893638,-5.969901 c -1.426316,-0.30715 -4.709106,-1.323186 -6.310779,-1.953185 -0.702652,-0.276368 -1.020224,-0.454124 -1.020224,-0.571023 0,-0.428165 1.363253,-3.293638 1.636539,-3.43989 0.142184,-0.07607 0.670355,0.296556 1.578467,1.113701 1.703224,1.532617 4.570073,4.596184 4.570073,4.883672 0,0.04577 -0.131801,0.03611 -0.454076,-0.03331 z m -47.9829418,-0.0065 c 0,-0.145995 1.1186337,-1.438302 2.2318549,-2.57835 1.279978,-1.310819 2.1944785,-2.189004 2.8535641,-2.740245 0.6044285,-0.505536 0.9244994,-0.705103 1.0522259,-0.656087 0.2054322,0.07886 1.1865181,2.063476 1.5433148,3.122006 l 0.1198153,0.355447 -0.078434,0.06533 c -0.1316138,0.109647 -0.8005209,0.414799 -1.3969286,0.637251 -1.8519017,0.690738 -5.4373556,1.758669 -6.1291824,1.825585 -0.1664321,0.01612 -0.1961915,0.01139 -0.1961915,-0.03094 z M 23.760985,30.34947 c -0.179697,-0.0909 -0.295635,-0.410984 -0.277272,-0.7654 l 0.0099,-0.183267 0.243842,0.0054 c 0.134114,0.0032 0.321193,0.02826 0.415756,0.05576 0.226462,0.06586 0.282261,0.149713 0.281798,0.423642 -4.03e-4,0.231843 -0.06199,0.367878 -0.20494,0.452308 -0.102953,0.06082 -0.358549,0.06694 -0.46868,0.01117 z m 1.964631,-0.02536 c -0.128986,-0.101426 -0.176263,-0.223042 -0.176263,-0.453263 0,-0.185911 0.0088,-0.217338 0.08778,-0.295805 0.09585,-0.09584 0.252039,-0.13956 0.630084,-0.176284 l 0.231314,-0.02246 -0.0124,0.326179 c -0.01042,0.274219 -0.0248,0.348559 -0.09014,0.466598 -0.09566,0.172577 -0.18328,0.21953 -0.410767,0.220132 -0.131712,3.43e-4 -0.197342,-0.01612 -0.259606,-0.065 z m -4.162977,-0.338029 c -0.07774,-0.0304 -0.207213,-0.09401 -0.287821,-0.141279 -0.08059,-0.04727 -0.221867,-0.100246 -0.31392,-0.117727 -0.09398,-0.01784 -1.158195,-0.04341 -2.427535,-0.05812 -2.964993,-0.0346 -3.233084,-0.0664 -3.380729,-0.400198 -0.06701,-0.151411 -0.06268,-0.318572 0.01053,-0.406741 0.13807,-0.166355 0.705742,-0.325212 1.488599,-0.416572 0.358382,-0.04179 0.560547,-0.101857 0.874023,-0.259434 1.133928,-0.570131 1.977021,-1.58665 2.283068,-2.7527 0.08227,-0.313457 0.113763,-1.039361 0.05974,-1.376671 -0.163638,-1.021418 -0.807577,-1.969356 -1.711873,-2.52005 -0.703744,-0.428563 -1.583989,-0.62034 -2.471878,-0.538575 -0.454441,0.04179 -0.879102,0.125838 -1.1517,0.227771 -1.157545,0.432828 -2.060936,1.628166 -2.311381,3.058335 -0.06327,0.361442 -0.06455,1.04902 -0.0029,1.384752 0.09791,0.529603 0.248802,0.87987 0.645427,1.498018 0.423914,0.660643 0.463288,0.792197 0.282655,0.944188 -0.109851,0.0924 -0.161961,0.08853 -0.433476,-0.03224 -0.223705,-0.09949 -0.630202,-0.507198 -0.864162,-0.86662 -0.227555,-0.349592 -0.939222,-1.757497 -1.110289,-2.196536 -0.156059,-0.400508 -0.20308,-0.596734 -0.274526,-1.145731 -0.03868,-0.297556 -0.04655,-0.474345 -0.02785,-0.627829 0.01436,-0.117501 0.02687,-0.651541 0.02795,-1.186775 0.0019,-1.033699 0.02421,-1.229978 0.171804,-1.519325 0.07401,-0.14505 0.317129,-0.366836 0.424672,-0.387401 0.08355,-0.01591 0.251981,0.0562 0.421394,0.180485 0.172819,0.126784 0.318988,0.149863 0.834984,0.131823 0.364366,-0.01268 0.651932,-0.04857 1.271359,-0.157975 1.092299,-0.193109 1.408936,-0.237323 1.992304,-0.278151 1.31327,-0.09197 2.262263,0.175359 3.090753,0.87048 0.575358,0.482736 0.984166,1.058251 1.597648,2.249141 0.469605,0.91161 0.526575,1.13201 1.183062,4.57709 0.206142,1.081781 0.292684,1.466753 0.428402,1.905792 0.08189,0.26471 0.09211,0.32893 0.05894,0.368845 -0.05236,0.06307 -0.201407,0.05909 -0.37773,-0.0097 z m 6.46743,0.01214 c -0.03473,-0.0419 -0.0367,-0.07671 -0.0099,-0.16816 0.194273,-0.651123 0.294642,-1.089431 0.511638,-2.234228 0.05402,-0.284877 0.133179,-0.701599 0.175948,-0.926051 0.265246,-1.391854 0.485302,-2.356219 0.628618,-2.754837 0.08807,-0.245112 0.424376,-0.932583 0.679288,-1.388834 0.808247,-1.446618 1.681013,-2.167698 2.950008,-2.43734 0.267469,-0.05683 0.426354,-0.06833 0.949072,-0.0692 0.7176,-9.37e-4 0.909983,0.01945 2.171756,0.232564 1.227298,0.207205 1.315799,0.218637 1.701451,0.219745 0.39687,0.001 0.567583,-0.04384 0.792422,-0.208904 0.205865,-0.15112 0.324302,-0.156912 0.489444,-0.02396 0.180693,0.145534 0.283955,0.31551 0.359574,0.591889 0.06387,0.23353 0.0683,0.312727 0.06279,1.130098 -0.0029,0.49809 0.0099,1.017711 0.03011,1.199174 0.02688,0.239053 0.02706,0.366385 5.01e-4,0.50227 -0.01959,0.100138 -0.04881,0.31162 -0.06504,0.470004 -0.01879,0.183987 -0.07263,0.416346 -0.148847,0.643526 -0.145057,0.432108 -0.929999,2.023808 -1.205687,2.444871 -0.455789,0.69612 -1.082449,1.110877 -1.319805,0.873532 -0.05452,-0.05447 -0.06387,-0.09348 -0.05187,-0.217735 0.012,-0.125495 0.07262,-0.244071 0.3548,-0.694821 0.364897,-0.582863 0.505141,-0.884953 0.617349,-1.329804 0.09448,-0.374421 0.10362,-1.296927 0.01692,-1.698618 -0.312118,-1.445651 -1.237768,-2.590147 -2.393209,-2.959056 -0.618854,-0.19759 -1.411355,-0.267494 -2.017358,-0.17795 -0.907553,0.134091 -1.594981,0.46835 -2.192944,1.06632 -1.115631,1.115626 -1.374373,2.701266 -0.671642,4.116123 0.232248,0.467618 0.503085,0.830361 0.906056,1.213517 0.364573,0.346648 0.682144,0.573699 1.076495,0.769656 0.315957,0.156987 0.611524,0.234099 1.172868,0.305969 0.710948,0.09101 1.137519,0.246746 1.234788,0.450739 0.04635,0.09724 0.04557,0.116835 -0.01171,0.283266 -0.05147,0.149487 -0.0808,0.188199 -0.179146,0.236237 -0.320612,0.156665 -1.122945,0.207034 -3.384076,0.212471 -0.940137,0.0021 -1.857648,0.01687 -2.038941,0.03234 -0.302169,0.026 -0.352378,0.04008 -0.603099,0.169493 -0.31642,0.163391 -0.52135,0.207077 -0.588988,0.125592 z M 16.069131,26.265033 c -0.496885,-0.139012 -0.903763,-0.513777 -1.103233,-1.016175 -0.102437,-0.257985 -0.101545,-0.700654 0.002,-0.96168 0.17954,-0.452909 0.840309,-0.898716 1.329991,-0.897331 0.925088,0.0032 1.606494,0.769817 1.471927,1.65723 -0.06573,0.433194 -0.34057,0.883052 -0.664696,1.087819 -0.265137,0.167495 -0.704885,0.222743 -1.035918,0.130137 z m 17.048049,-0.0075 c -0.431166,-0.150927 -0.759877,-0.540885 -0.895783,-1.062644 -0.154721,-0.594016 0.08247,-1.235201 0.573577,-1.550323 0.262893,-0.168699 0.486011,-0.231435 0.837682,-0.235518 0.306026,-0.0043 0.320621,-4.41e-4 0.580739,0.124388 0.984009,0.472185 1.164868,1.52113 0.395286,2.292526 -0.340057,0.340866 -0.670992,0.483413 -1.117285,0.481275 -0.129498,-6.23e-4 -0.297889,-0.023 -0.374216,-0.04974 z m -8.848347,-1.181425 c -0.161639,-0.172061 -0.227604,-0.549685 -0.415214,-2.37702 -0.07756,-0.755559 -0.1405,-1.089205 -0.327501,-1.73645 -0.144614,-0.500506 -0.204862,-0.777444 -0.188022,-0.864227 0.03828,-0.197106 0.0499,-0.218874 0.136712,-0.254825 0.12561,-0.05211 0.211247,-0.01773 0.297199,0.119091 0.151031,0.240374 0.24029,0.604664 0.424338,1.731893 0.370003,2.266181 0.446036,3.019622 0.334232,3.312365 -0.06239,0.163423 -0.151159,0.186878 -0.261744,0.0692 z m 1.162408,-0.0462 c -0.119894,-0.270803 -0.03365,-1.127316 0.340205,-3.378787 0.202637,-1.220299 0.299847,-1.582031 0.471151,-1.753329 0.108242,-0.10825 0.196752,-0.109926 0.300979,-0.0054 0.07597,0.07596 0.08,0.09509 0.06426,0.306066 -0.0099,0.128879 -0.08503,0.46562 -0.176499,0.787985 -0.21117,0.744094 -0.23465,0.879259 -0.36468,2.09975 -0.159731,1.499126 -0.222182,1.828915 -0.379256,2.00247 -0.09083,0.100352 -0.196555,0.07617 -0.256182,-0.05845 z m -2.46561,-8.477423 c -0.173912,-0.18199 -0.25642,-0.497993 -0.176057,-0.674373 0.04419,-0.09692 0.200443,-0.188823 0.278846,-0.163939 0.03356,0.01075 0.09694,0.0621 0.140895,0.114266 0.06583,0.07822 0.07981,0.127505 0.07981,0.280215 0,0.215082 -0.06583,0.399488 -0.169709,0.475226 -0.07027,0.05125 -0.07597,0.05007 -0.153826,-0.03138 z m 3.880941,0.04148 c -0.12452,-0.08725 -0.181065,-0.282568 -0.170171,-0.587946 0.0029,-0.09541 0.172149,-0.307151 0.244738,-0.307151 0.09438,0 0.229345,0.109432 0.263817,0.213879 0.06338,0.191982 -0.03906,0.514336 -0.213659,0.672322 -0.05304,0.04803 -0.06741,0.04899 -0.124725,0.0086 z M 8.1270872,16.037816 c 0,-0.100782 0.1056391,-0.397328 0.2047438,-0.574847 0.3238304,-0.580016 0.9962109,-1.215441 2.005402,-1.895175 1.033774,-0.696282 1.664124,-0.977818 1.80616,-0.80667 0.0494,0.05952 0.05226,0.223892 0.0049,0.281041 -0.02077,0.02515 -0.13242,0.105725 -0.248022,0.179293 -1.393671,0.886511 -1.9962305,1.35818 -2.831333,2.216294 -0.4828714,0.496167 -0.6096341,0.591674 -0.8334783,0.627989 -0.081679,0.01332 -0.1082715,0.0065 -0.1082715,-0.02793 z M 41.55915,16.020411 c -0.113654,-0.04018 -0.257137,-0.166592 -0.737696,-0.650317 -0.804143,-0.809442 -1.520366,-1.377639 -2.502484,-1.985268 -0.549712,-0.340114 -0.627024,-0.430969 -0.509472,-0.598786 0.108518,-0.154945 0.462658,-0.05125 1.096924,0.32113 1.644127,0.965299 2.903704,2.205603 2.903704,2.859271 0,0.125667 -0.02972,0.13206 -0.250976,0.05394 z M 20.322675,15.042282 c -0.255385,-0.06544 -0.455179,-0.225966 -0.455179,-0.365654 0,-0.156181 0.504089,-0.731512 0.773685,-0.883041 0.119057,-0.06694 0.123466,-0.06715 0.278807,-0.01236 0.221266,0.0779 0.419967,0.210311 0.455345,0.303379 0.04222,0.111141 -0.05659,0.292066 -0.295733,0.541154 -0.351237,0.365879 -0.543001,0.471421 -0.756925,0.416572 z m 9.033791,-0.02181 c -0.237789,-0.1198 -0.737537,-0.641324 -0.781183,-0.815233 -0.0118,-0.04685 3.44e-4,-0.106692 0.031,-0.153559 0.0614,-0.09369 0.284958,-0.228265 0.473385,-0.284974 0.132155,-0.03975 0.145668,-0.03782 0.258663,0.03739 0.303409,0.201963 0.762741,0.732028 0.762741,0.880183 0,0.214835 -0.519746,0.449481 -0.744644,0.336182 z M 18.272318,14.535887 c -0.155744,-0.03191 -0.359838,-0.147714 -0.333975,-0.189553 0.0099,-0.01558 0.187217,-0.114858 0.394646,-0.220604 0.424967,-0.216662 0.770772,-0.463204 1.046961,-0.746447 0.103049,-0.105726 0.209752,-0.192143 0.237121,-0.192143 0.187875,0 0.627121,0.360422 0.627121,0.514582 0,0.196322 -0.774905,0.676512 -1.271347,0.787824 -0.268917,0.06038 -0.54358,0.07843 -0.700527,0.04631 z m 12.930844,-0.0032 c -0.28854,-0.04255 -0.54364,-0.134694 -0.869921,-0.314255 -0.356866,-0.196386 -0.608826,-0.410178 -0.608826,-0.516591 0,-0.151217 0.430458,-0.514819 0.609476,-0.514819 0.02558,0 0.15051,0.09928 0.277627,0.220701 0.336859,0.321699 0.554986,0.475118 1.005953,0.707585 0.221197,0.114019 0.397018,0.223623 0.390986,0.243737 -0.01851,0.06145 -0.281681,0.172126 -0.447641,0.188113 -0.08631,0.0075 -0.247267,0.0021 -0.357654,-0.01451 z m -13.97255,-0.560596 c -0.110534,-0.110539 -0.0681,-0.203833 0.155156,-0.34121 0.08591,-0.05286 0.37144,-0.315521 0.634579,-0.583745 0.537421,-0.547782 0.539302,-0.548717 0.822361,-0.406547 0.195639,0.09831 0.428351,0.284061 0.428351,0.341995 0,0.102609 -0.794913,0.739742 -1.080676,0.86615 -0.199617,0.08821 -0.599498,0.186136 -0.760744,0.186136 -0.09438,0 -0.155529,-0.01923 -0.199027,-0.06275 z m 14.879552,-0.0116 c -0.14675,-0.03922 -0.324175,-0.101106 -0.394282,-0.137358 -0.301,-0.155686 -1.018334,-0.748906 -1.018334,-0.842157 0,-0.05802 0.237612,-0.252129 0.419928,-0.342984 0.286031,-0.142535 0.301047,-0.135466 0.773813,0.364279 0.230369,0.243511 0.518574,0.512788 0.640467,0.598378 0.121891,0.08563 0.232878,0.175768 0.246646,0.200362 0.02589,0.04631 -0.02352,0.169246 -0.08433,0.209892 -0.06446,0.04298 -0.316046,0.02128 -0.583891,-0.05039 z M 15.394212,13.355709 c -0.05176,-0.0075 -0.207185,-0.03653 -0.345304,-0.06382 -0.760999,-0.150089 -1.703656,-0.651337 -1.982994,-1.054415 l -0.08217,-0.118625 0.0185,-0.996309 c 0.0435,-2.3442715 0.349899,-4.4721075 0.873394,-6.0660203 0.124165,-0.3780209 0.439227,-1.1462684 0.491562,-1.1986153 0.04763,-0.047598 0.960223,1.8066961 1.787295,3.6314531 0.164335,0.36257 0.51766,1.13244 0.785169,1.710834 0.775161,1.6760225 1.107159,2.5031705 1.107159,2.7583615 0,0.403517 -0.90718,1.125972 -1.679436,1.337465 -0.184973,0.05072 -0.787984,0.08757 -0.973144,0.05963 z m 18.379701,-0.02515 c -0.664222,-0.147629 -1.436804,-0.633792 -1.727785,-1.087239 -0.131743,-0.205304 -0.129853,-0.304776 0.01398,-0.733844 0.160095,-0.477611 0.347991,-0.915242 0.99193,-2.3102005 0.307101,-0.665273 0.657266,-1.428084 0.778143,-1.695126 0.567327,-1.253401 1.623274,-3.4385473 1.74795,-3.6171733 0.03366,-0.04835 0.05649,-0.016653 0.180682,0.2511293 0.473818,1.0215365 0.86259,2.618329 1.056705,4.340198 0.169472,1.503198 0.249283,3.5018645 0.147684,3.6983265 -0.05993,0.115943 -0.349466,0.385359 -0.555695,0.517128 -0.819032,0.523308 -1.932657,0.792584 -2.633567,0.636801 z"
       id="path3302" />
  </g>
</svg>
