<?xml version="1.0" encoding="UTF-8" standalone="no"?>
<!-- Created with Inkscape (http://www.inkscape.org/) -->

<svg
   width="50mm"
   height="50mm"
   viewBox="0 0 50 50"
   version="1.1"
   id="svg7082"
   inkscape:version="1.2.2 (732a01da63, 2022-12-09)"
   sodipodi:docname="Blizzard.svg"
   xmlns:inkscape="http://www.inkscape.org/namespaces/inkscape"
   xmlns:sodipodi="http://sodipodi.sourceforge.net/DTD/sodipodi-0.dtd"
   xmlns="http://www.w3.org/2000/svg"
   xmlns:svg="http://www.w3.org/2000/svg">
  <sodipodi:namedview
     id="namedview7084"
     pagecolor="#ffffff"
     bordercolor="#000000"
     borderopacity="0.25"
     inkscape:showpageshadow="2"
     inkscape:pageopacity="0"
     inkscape:pagecheckerboard="0"
     inkscape:deskcolor="#d1d1d1"
     inkscape:document-units="mm"
     showgrid="false"
     inkscape:zoom="2.4367572"
     inkscape:cx="23.391744"
     inkscape:cy="87.411253"
     inkscape:window-width="1920"
     inkscape:window-height="1017"
     inkscape:window-x="-8"
     inkscape:window-y="-8"
     inkscape:window-maximized="1"
     inkscape:current-layer="layer1" />
  <defs
     id="defs7079" />
  <g
     inkscape:label="Layer 1"
     inkscape:groupmode="layer"
     id="layer1">
    <g
       id="g9180"
       transform="matrix(0.07895735,0,0,0.07895735,41.474956,3.6540582)">
      <rect
         style="fill:#000000;stroke-width:0.20413"
         id="rect12266"
         width="26.612904"
         height="141.22581"
         x="19.338711"
         y="-39.387096"
         ry="15.967742" />
      <rect
         style="fill:#000000;stroke-width:0.20413"
         id="rect12266-8"
         width="26.612904"
         height="141.22581"
         x="17.919359"
         y="-103.25807"
         ry="15.967742"
         transform="rotate(90)" />
      <path
         id="rect12266-8-2"
         style="fill:#000000;stroke-width:0.154634"
         d="M 77.444661,61.69929 V 76.0253 h -14.32596 l -75.273039,-75.27228 -2e-6,-14.326716 H 2.172437 Z"
         sodipodi:nodetypes="ccccccc" />
      <path
         id="rect12266-8-2-6"
         style="fill:#000000;stroke-width:0.154634"
         d="m 2.171678,76.02531 h -14.32602 l 10e-6,-14.32595 75.272273,-75.273056 h 14.32672 V 0.75308 Z"
         sodipodi:nodetypes="ccccccc" />
    </g>
    <g
       id="g9180-1"
       transform="matrix(0.10986815,0,0,0.10986815,38.13411,26.940005)">
      <rect
         style="fill:#000000;stroke-width:0.20413"
         id="rect12266-2"
         width="26.612904"
         height="141.22581"
         x="19.338711"
         y="-39.387096"
         ry="15.967742" />
      <rect
         style="fill:#000000;stroke-width:0.20413"
         id="rect12266-8-0"
         width="26.612904"
         height="141.22581"
         x="17.919359"
         y="-103.25807"
         ry="15.967742"
         transform="rotate(90)" />
      <path
         id="rect12266-8-2-7"
         style="fill:#000000;stroke-width:0.154634"
         d="M 77.444661,61.69929 V 76.0253 h -14.32596 l -75.273039,-75.27228 -2e-6,-14.326716 H 2.172437 Z"
         sodipodi:nodetypes="ccccccc" />
      <path
         id="rect12266-8-2-6-0"
         style="fill:#000000;stroke-width:0.154634"
         d="m 2.171678,76.02531 h -14.32602 l 10e-6,-14.32595 75.272273,-75.273056 h 14.32672 V 0.75308 Z"
         sodipodi:nodetypes="ccccccc" />
    </g>
    <g
       id="g9180-1-4"
       transform="matrix(0.10986815,0,0,0.10986815,13.750219,38.352414)">
      <rect
         style="fill:#000000;stroke-width:0.20413"
         id="rect12266-2-5"
         width="26.612904"
         height="141.22581"
         x="19.338711"
         y="-39.387096"
         ry="15.967742" />
      <rect
         style="fill:#000000;stroke-width:0.20413"
         id="rect12266-8-0-7"
         width="26.612904"
         height="141.22581"
         x="17.919359"
         y="-103.25807"
         ry="15.967742"
         transform="rotate(90)" />
      <path
         id="rect12266-8-2-7-2"
         style="fill:#000000;stroke-width:0.154634"
         d="M 77.444661,61.69929 V 76.0253 h -14.32596 l -75.273039,-75.27228 -2e-6,-14.326716 H 2.172437 Z"
         sodipodi:nodetypes="ccccccc" />
      <path
         id="rect12266-8-2-6-0-9"
         style="fill:#000000;stroke-width:0.154634"
         d="m 2.171678,76.02531 h -14.32602 l 10e-6,-14.32595 75.272273,-75.273056 h 14.32672 V 0.75308 Z"
         sodipodi:nodetypes="ccccccc" />
    </g>
    <path
       id="path12058-1"
       style="fill:#000000;stroke-width:0.0781229"
       inkscape:transform-center-x="-2.7953871"
       inkscape:transform-center-y="-5.807826"
       d="m 30.497251,10.442464 c -2.783897,0.0287 -6.018635,1.855723 -5.915045,4.288972 0.09431,2.215445 3.735031,3.785223 5.697976,3.433207 0.264228,-0.04734 0.201401,1.149838 0.203594,1.417854 -3.878215,1.539325 -7.574841,-0.801894 -8.321967,-3.606884 -0.741213,-5.114134 3.669146,-8.6520418 8.335442,-8.8416238 z"
       sodipodi:nodetypes="caccccc" />
    <path
       id="path10552"
       style="fill:#000000;stroke-width:0.0781858"
       inkscape:transform-center-x="2.7953909"
       inkscape:transform-center-y="5.8172098"
       d="M 30.383675 7.1515015 C 30.348685 8.7489517 30.369675 9.1968207 30.383675 10.436572 C 33.887717 10.436572 36.72799 13.287889 36.727991 16.805176 C 36.72799 20.322461 33.887717 23.173779 30.383675 23.173779 L 30.383675 23.174296 L 0.37413737 23.174296 L 0.37413737 26.45885 L 30.383675 26.457817 L 30.383675 26.45885 C 35.695117 26.458792 40.000666 22.136707 40.000659 16.805176 C 40.000609 11.473691 35.695078 7.1515593 30.383675 7.1515015 z " />
    <path
       id="path11947"
       style="fill:#000000;stroke-width:0.0781858"
       inkscape:transform-center-x="2.7953885"
       inkscape:transform-center-y="5.8170914"
       d="M 12.130526 0.63355306 C 12.130526 0.63355306 11.550721 1.124368 11.384318 1.4546916 C 11.253582 1.7142205 11.212437 2.0193495 11.214819 2.3099365 C 11.217019 2.5783848 11.261565 2.8587222 11.384318 3.0974854 C 11.553421 3.426425 12.130526 3.9186239 12.130526 3.9186239 C 15.634564 3.9186239 18.474839 6.7699404 18.474841 10.287227 C 18.474839 13.804524 15.634564 16.655831 12.130526 16.655831 L 12.130526 16.656348 L 0.1245402 16.656348 L 0.1245402 19.939351 L 12.130526 19.939351 L 12.130526 19.940385 C 17.441795 19.94034 21.747236 15.617991 21.74751 10.286711 C 21.747179 4.9554723 17.441753 0.63359845 12.130526 0.63355306 z " />
    <path
       id="path12058"
       style="fill:#000000;stroke-width:0.0781858"
       inkscape:transform-center-x="2.7953886"
       inkscape:transform-center-y="-5.8172116"
       d="M 25.811861 29.820402 L 25.811861 29.821436 L 0.37413737 29.820919 L 0.37413737 33.104956 L 25.811861 33.104956 L 25.811861 33.105473 C 29.315901 33.105473 32.156175 35.95679 32.156177 39.474076 C 32.156175 42.991362 29.315901 45.84267 25.811861 45.84268 C 25.811861 45.84268 25.234755 46.334878 25.065653 46.663818 C 24.94291 46.902569 24.898355 47.182401 24.896155 47.45085 C 24.893774 47.741449 24.934918 48.046567 25.065653 48.306095 C 25.232055 48.636407 25.811861 49.127234 25.811861 49.127234 C 31.123262 49.127189 35.428795 44.805562 35.428845 39.474076 C 35.42885 34.142546 31.123301 29.82046 25.811861 29.820402 z " />
    <path
       id="path12103"
       style="fill:#000000;stroke-width:0.0781858"
       inkscape:transform-center-x="2.7953888"
       inkscape:transform-center-y="5.8172077"
       d="M 1.9957438 26.458333 L 1.9957438 23.174296 L 1.3720093 23.174296 L 1.3720093 26.458333 L 1.9957438 26.458333 z " />
    <path
       id="path10547"
       style="fill:#000000;stroke-width:0.0781858"
       inkscape:transform-center-x="2.7953888"
       inkscape:transform-center-y="5.8172077"
       d="M 33.40778 10.359574 C 34.837813 12.121845 36.645838 14.774411 36.727991 16.805176 C 36.72799 20.322449 33.887708 23.173779 30.383675 23.173779 L 30.383675 23.174296 L 1.9957438 23.174296 L 1.9957438 26.458333 L 30.383675 26.457817 L 30.383675 26.45885 C 35.6951 26.458803 40.000666 22.136677 40.000659 16.805176 C 36.771501 13.736445 34.688551 11.672303 33.40778 10.359574 z " />
    <path
       id="path10545"
       style="fill:#000000;stroke-width:0.0781858"
       inkscape:transform-center-x="2.7953888"
       inkscape:transform-center-y="5.8172077"
       d="M 31.677136 8.4697673 C 31.659338 8.4982143 32.141638 9.0618426 33.40778 10.359574 C 32.473019 9.2076429 31.699213 8.434481 31.677136 8.4697673 z " />
  </g>
</svg>
