<?xml version="1.0" encoding="UTF-8" standalone="no"?>
<!-- Created with Inkscape (http://www.inkscape.org/) -->

<svg
   width="50mm"
   height="50mm"
   viewBox="0 0 50 50"
   version="1.1"
   id="svg7082"
   inkscape:version="1.2.2 (732a01da63, 2022-12-09)"
   sodipodi:docname="Heatwave.svg"
   xmlns:inkscape="http://www.inkscape.org/namespaces/inkscape"
   xmlns:sodipodi="http://sodipodi.sourceforge.net/DTD/sodipodi-0.dtd"
   xmlns="http://www.w3.org/2000/svg"
   xmlns:svg="http://www.w3.org/2000/svg">
  <sodipodi:namedview
     id="namedview7084"
     pagecolor="#ffffff"
     bordercolor="#000000"
     borderopacity="0.25"
     inkscape:showpageshadow="2"
     inkscape:pageopacity="0"
     inkscape:pagecheckerboard="0"
     inkscape:deskcolor="#d1d1d1"
     inkscape:document-units="mm"
     showgrid="false"
     inkscape:zoom="0.74564394"
     inkscape:cx="193.12167"
     inkscape:cy="25.481331"
     inkscape:window-width="1920"
     inkscape:window-height="1017"
     inkscape:window-x="-8"
     inkscape:window-y="-8"
     inkscape:window-maximized="1"
     inkscape:current-layer="layer1" />
  <defs
     id="defs7079" />
  <g
     inkscape:label="Layer 1"
     inkscape:groupmode="layer"
     id="layer1">
    <g
       id="g8515"
       transform="matrix(0.28031843,0,0,0.28031843,20.026608,20.026609)">
      <circle
         style="fill:#000000;stroke-width:0.240205"
         id="path13856"
         cx="-1.584138"
         cy="14.822673"
         r="25" />
      <rect
         style="fill:#000000;stroke-width:0.264583"
         id="rect13858"
         width="10.862059"
         height="25.838535"
         x="-7.0151682"
         y="-45.177341"
         ry="3.5266416" />
      <rect
         style="fill:#000000;stroke-width:0.264583"
         id="rect13858-1"
         width="10.862059"
         height="25.838535"
         x="-7.0151377"
         y="54.822674"
         ry="3.5266416" />
      <rect
         style="fill:#000000;stroke-width:0.264583"
         id="rect13858-1-3"
         width="10.862059"
         height="25.838535"
         x="9.3916426"
         y="39.276207"
         ry="3.5266416"
         transform="rotate(90)" />
      <path
         id="rect13858-1-3-8"
         style="fill:#000000;stroke-width:0.264583"
         d="m 100.15299,10.72178 c 1.21961,4.89983 -0.0992,8.08047 -3.526644,6.90041 -3.42747,-1.18006 -14.20739,-17.15496 -31.34316,0.39421 -17.13577,17.54917 -26.27195,2.9349 -27.1396,1.62611 -0.86765,-1.30878 -2.28868,-3.46094 -2.76202,-5.43821 -1.05609,-6.15499 2.72871,-3.56324 4.34588,-1.92841 3.91864,3.97645 15.4033,6.45389 27.12545,-6.0867 11.72215,-12.54058 32.08048,-0.36723 33.300094,4.53259 z"
         sodipodi:nodetypes="zzzzcczz" />
      <path
         id="rect13858-1-3-8-8"
         style="fill:#000000;stroke-width:0.264583"
         d="m 100.15298,-26.286127 c 1.21961,4.89983 -0.0992,8.08047 -3.526634,6.90041 -3.42747,-1.18006 -14.20739,-17.154976 -31.34316,0.3942 -17.13578,17.549167 -26.27196,2.9349 -27.13961,1.62612 -0.86764,-1.30878 -2.28868,-3.46094 -2.76202,-5.43821 -1.05609,-6.155 2.72871,-3.56325 4.34588,-1.92842 3.91864,3.97646 15.4033,6.4539 27.12545,-6.086692 11.72215,-12.540594 32.08048,-0.36724 33.300094,4.532592 z"
         sodipodi:nodetypes="zzzzcczz" />
      <path
         id="rect13858-1-3-8-1"
         style="fill:#000000;stroke-width:0.264583"
         d="m 100.15299,47.7297 c 1.21961,4.89983 -0.0992,8.08047 -3.526644,6.90041 -3.42747,-1.18006 -14.20739,-17.15497 -31.34316,0.3942 -17.13577,17.54917 -26.27195,2.9349 -27.1396,1.62612 -0.86765,-1.30878 -2.28868,-3.46094 -2.76202,-5.43821 -1.05609,-6.155 2.72871,-3.56325 4.34588,-1.92842 3.91864,3.97646 15.4033,6.4539 27.12545,-6.08669 11.72215,-12.54059 32.08048,-0.36724 33.300094,4.53259 z"
         sodipodi:nodetypes="zzzzcczz" />
      <rect
         style="fill:#000000;stroke-width:0.264583"
         id="rect13858-1-36"
         width="10.862059"
         height="25.838535"
         x="6.0480833"
         y="51.010044"
         ry="3.5266416"
         transform="rotate(45)" />
      <rect
         style="fill:#000000;stroke-width:0.264583"
         id="rect13858-1-3-5"
         width="10.862059"
         height="25.838535"
         x="5.5790024"
         y="26.213015"
         ry="3.5266416"
         transform="rotate(135)" />
    </g>
  </g>
</svg>
