<?xml version="1.0" encoding="UTF-8" standalone="no"?>
<!-- Created with Inkscape (http://www.inkscape.org/) -->

<svg
   width="50mm"
   height="50mm"
   viewBox="0 0 50 50"
   version="1.1"
   id="svg7082"
   inkscape:version="1.2.2 (732a01da63, 2022-12-09)"
   sodipodi:docname="ToxicSmog.svg"
   xmlns:inkscape="http://www.inkscape.org/namespaces/inkscape"
   xmlns:sodipodi="http://sodipodi.sourceforge.net/DTD/sodipodi-0.dtd"
   xmlns="http://www.w3.org/2000/svg"
   xmlns:svg="http://www.w3.org/2000/svg">
  <sodipodi:namedview
     id="namedview7084"
     pagecolor="#ffffff"
     bordercolor="#000000"
     borderopacity="0.25"
     inkscape:showpageshadow="2"
     inkscape:pageopacity="0"
     inkscape:pagecheckerboard="0"
     inkscape:deskcolor="#d1d1d1"
     inkscape:document-units="mm"
     showgrid="false"
     inkscape:zoom="0.74564394"
     inkscape:cx="193.12167"
     inkscape:cy="25.481331"
     inkscape:window-width="1920"
     inkscape:window-height="1017"
     inkscape:window-x="-8"
     inkscape:window-y="-8"
     inkscape:window-maximized="1"
     inkscape:current-layer="layer1" />
  <defs
     id="defs7079" />
  <g
     inkscape:label="Layer 1"
     inkscape:groupmode="layer"
     id="layer1">
    <g
       id="g13709"
       transform="matrix(0.34250116,0,0,0.34250116,-15.054246,-11.682334)"
       inkscape:export-filename="ToxicSmogIcon.png"
       inkscape:export-xdpi="67.212975"
       inkscape:export-ydpi="67.212975"
       style="fill:#000000">
      <path
         id="path13662"
         style="fill:#000000;stroke-width:0.291455"
         d="m 120.47413,44.342349 -0.46819,0.833024 0.46819,0.833024 c 0.17179,0.02177 0.34337,0.0452 0.5147,0.07028 0.26748,0.04075 0.53433,0.08554 0.80046,0.134358 0.26605,0.0487 0.53136,0.101416 0.79582,0.15813 0.26428,0.05683 0.52769,0.117639 0.79013,0.182418 0.26268,0.0646 0.52436,0.133166 0.78497,0.205672 0.26056,0.07273 0.52001,0.149392 0.77825,0.22996 0.25809,0.08035 0.51494,0.164593 0.77049,0.252698 0.2558,0.08831 0.51025,0.180473 0.76326,0.276469 0.25281,0.09593 0.50416,0.195682 0.75396,0.299207 0.24982,0.103385 0.49807,0.210543 0.74466,0.321427 0.24667,0.111015 0.49164,0.22575 0.73484,0.344165 0.24316,0.118476 0.48451,0.240619 0.72398,0.366386 0.23948,0.125596 0.47704,0.254802 0.71262,0.387573 0.23545,0.132894 0.46889,0.269335 0.70022,0.409278 0.2316,0.139838 0.46107,0.283176 0.68833,0.429947 0.22705,0.146975 0.45187,0.29737 0.67438,0.451136 0.2225,0.153591 0.44266,0.310533 0.66042,0.470772 0.21795,0.160205 0.43346,0.323696 0.64647,0.490409 0.21288,0.166829 0.42323,0.336864 0.63097,0.510047 0.20781,0.173108 0.41299,0.349345 0.61547,0.52865 0.20239,0.179389 0.40205,0.36183 0.59893,0.547253 0.19696,0.185331 0.39111,0.37363 0.58239,0.564823 0.19119,0.191277 0.37949,0.38543 0.56482,0.582394 0.18543,0.196877 0.36787,0.396543 0.54726,0.59893 0.17931,0.202482 0.35554,0.407661 0.52865,0.615466 0.17318,0.207743 0.34321,0.41809 0.51004,0.630969 0.16671,0.212838 0.3302,0.428181 0.49041,0.645956 0.16025,0.217927 0.31719,0.438269 0.47078,0.660941 0.15376,0.222508 0.30416,0.447327 0.45113,0.674378 0.14677,0.227091 0.2901,0.456391 0.42995,0.687813 0.13995,0.231503 0.27639,0.46511 0.40928,0.700732 0.13277,0.235575 0.26197,0.473144 0.38757,0.712618 0.12577,0.23947 0.24792,0.480827 0.36639,0.723987 0.11842,0.243199 0.23314,0.488174 0.34416,0.734839 0.11089,0.246587 0.21804,0.494837 0.32143,0.744657 0.10352,0.2498 0.20327,0.501148 0.2992,0.75396 0.096,0.252839 0.18816,0.507119 0.27647,0.762744 0.0881,0.255717 0.17235,0.51275 0.2527,0.771012 0.0806,0.258243 0.15723,0.517688 0.22996,0.778247 0.0725,0.260433 0.14107,0.521948 0.20567,0.784448 0.0648,0.262616 0.1256,0.526196 0.18242,0.79065 0.0567,0.264461 0.10943,0.529764 0.15813,0.795817 0.0488,0.265959 0.0936,0.53264 0.13436,0.799951 0.0407,0.267459 0.0774,0.535521 0.11007,0.804085 0.0325,0.268445 0.0609,0.537368 0.0853,0.806669 0.0246,0.269426 0.0451,0.539211 0.0615,0.809253 0.0163,0.269896 0.0285,0.540022 0.0367,0.810287 0.008,0.270362 0.0123,0.540833 0.0124,0.81132 -4e-5,0.781428 -0.0342,1.562491 -0.10231,2.340942 -0.0681,0.778364 -0.17022,1.553392 -0.30593,2.322856 -0.13562,0.769584 -0.30477,1.532884 -0.50695,2.287714 -0.20234,0.75473 -0.43752,1.50027 -0.70486,2.23449 -0.26723,0.73428 -0.56638,1.45654 -0.89659,2.16473 -0.0599,0.12834 -0.12623,0.25348 -0.1881,0.38085 a 38.604691,37.720612 0 0 0 -24.15563,-8.29975 38.604691,37.720612 0 0 0 -24.153054,8.29923 c -0.0618,-0.12716 -0.12782,-0.2522 -0.18758,-0.38033 -0.33021,-0.70819 -0.62936,-1.43045 -0.89659,-2.16473 -0.26717,-0.73423 -0.50218,-1.47977 -0.70435,-2.23449 -0.20235,-0.75483 -0.37167,-1.51812 -0.50746,-2.287714 -0.13571,-0.769464 -0.23779,-1.544492 -0.30593,-2.322856 -0.068,-0.778459 -0.10193,-1.559522 -0.1018,-2.340942 -1.3e-4,-0.781421 0.0338,-1.562481 0.1018,-2.340943 0.0681,-0.778536 0.1702,-1.553737 0.30593,-2.323372 0.13581,-0.769415 0.30512,-1.532546 0.50746,-2.287199 0.20216,-0.754891 0.43716,-1.500606 0.70435,-2.235006 0.26723,-0.734271 0.56638,-1.456539 0.89659,-2.164725 0.33029,-0.708221 0.69134,-1.401692 1.0821,-2.078426 0.39067,-0.6767 0.81068,-1.336032 1.25884,-1.976107 0.44816,-0.640048 0.92404,-1.260245 1.42627,-1.858801 0.5024,-0.598609 1.0307,-1.175006 1.58337,-1.727544 0.55254,-0.552491 1.12894,-1.080613 1.72754,-1.582849 0.598564,-0.502231 1.218754,-0.978113 1.858804,-1.426269 0.64008,-0.448157 1.29941,-0.86817 1.97611,-1.258838 0.67673,-0.390766 1.3702,-0.751811 2.07842,-1.082105 0.70819,-0.330206 1.43046,-0.629355 2.16473,-0.896586 0.73422,-0.267344 1.47976,-0.502526 2.23449,-0.704866 0.75481,-0.202182 1.51813,-0.371325 2.28771,-0.506946 0.37786,-0.06565 0.75708,-0.123193 1.1374,-0.172599 l 0.64905,-0.866614 -0.64905,-0.794784 C 94.164416,46.165914 79.450235,62.333311 79.44774,81.67599 c -4e-6,4.76621 0.891486,9.32402 2.513025,13.51803 -7.873981,1.05067 -15.478555,4.5986 -21.529435,10.64948 -13.678518,13.67867 -14.707259,35.51797 -2.375566,50.42225 l 0.919841,-0.25787 0.257865,-0.92035 c -0.10606,-0.13689 -0.210793,-0.27503 -0.314193,-0.41393 -0.160287,-0.21799 -0.317142,-0.4382 -0.470772,-0.66094 -0.153691,-0.22256 -0.304225,-0.44728 -0.451135,-0.67438 -0.14671,-0.22704 -0.289671,-0.45643 -0.429431,-0.68781 -0.14007,-0.23142 -0.276787,-0.46468 -0.409794,-0.70022 -0.13284,-0.23566 -0.261944,-0.47355 -0.387574,-0.71313 -0.12565,-0.23935 -0.247986,-0.48047 -0.366386,-0.72347 -0.118437,-0.24332 -0.233145,-0.48857 -0.344165,-0.73536 -0.11096,-0.24658 -0.217997,-0.49481 -0.321427,-0.74466 -0.10355,-0.24975 -0.203247,-0.50119 -0.299207,-0.75396 -0.0959,-0.25292 -0.188239,-0.50704 -0.276469,-0.76274 -0.0882,-0.25571 -0.172297,-0.51276 -0.252697,-0.77101 -0.0805,-0.25815 -0.15726,-0.51727 -0.22996,-0.77773 -0.0725,-0.26046 -0.141053,-0.52243 -0.205673,-0.78497 -0.0649,-0.26265 -0.126014,-0.52617 -0.182934,-0.79065 -0.0566,-0.26448 -0.109013,-0.52974 -0.157613,-0.79581 -0.0487,-0.26594 -0.09365,-0.53267 -0.134359,-0.79996 -0.0408,-0.2674 -0.07732,-0.53505 -0.110071,-0.80356 -0.0326,-0.2685 -0.06138,-0.53783 -0.08578,-0.80719 -0.0245,-0.26934 -0.04458,-0.53878 -0.06098,-0.80874 -0.0162,-0.26996 -0.02859,-0.53995 -0.03669,-0.81028 -0.008,-0.27032 -0.0124,-0.54087 -0.0124,-0.81132 7e-5,-0.27045 0.004,-0.541 0.0124,-0.81132 0.008,-0.27034 0.02049,-0.54034 0.03669,-0.81029 0.0164,-0.26998 0.03648,-0.5399 0.06098,-0.80925 0.0244,-0.26935 0.05318,-0.53818 0.08578,-0.80667 0.0326,-0.26839 0.06939,-0.5363 0.110071,-0.80357 0.0408,-0.26742 0.0855,-0.53441 0.134359,-0.80047 0.0486,-0.26606 0.100993,-0.53137 0.157613,-0.79581 0.0568,-0.26437 0.117658,-0.5276 0.182418,-0.79014 0.0647,-0.26265 0.133539,-0.52438 0.206189,-0.78496 0.0727,-0.26046 0.14943,-0.5201 0.22996,-0.77825 0.0804,-0.25827 0.16453,-0.51529 0.252697,-0.77101 0.0882,-0.2557 0.180559,-0.50983 0.276469,-0.76275 0.096,-0.25278 0.195667,-0.5042 0.299207,-0.75396 0.10344,-0.24984 0.210497,-0.49805 0.321427,-0.74465 0.1109,-0.24666 0.225339,-0.49164 0.343649,-0.73484 0.11853,-0.24312 0.241102,-0.48456 0.366902,-0.72399 0.12562,-0.2396 0.254754,-0.47695 0.387574,-0.71262 0.132887,-0.23542 0.269337,-0.46892 0.409277,-0.70021 0.13988,-0.23153 0.283138,-0.46065 0.429948,-0.68782 0.14691,-0.22709 0.297434,-0.45232 0.451135,-0.67489 0.15355,-0.22257 0.310066,-0.44258 0.470256,-0.66042 0.160347,-0.2179 0.324126,-0.43348 0.490926,-0.64648 0.16684,-0.21281 0.336876,-0.42329 0.510046,-0.63097 0.17312,-0.20791 0.3493,-0.41292 0.52865,-0.61546 0.17932,-0.20238 0.361946,-0.40202 0.547253,-0.59893 0.18551,-0.19683 0.373624,-0.39107 0.564824,-0.5824 0.552577,-0.5525 1.128936,-1.08056 1.727543,-1.58284 0.598547,-0.50223 1.218744,-0.97813 1.858801,-1.42627 0.64008,-0.44828 1.2994,-0.86857 1.976107,-1.25936 0.676747,-0.39059 1.370219,-0.75145 2.078426,-1.08159 0.708166,-0.33025 1.430469,-0.62931 2.164726,-0.89658 0.734337,-0.26724 1.480186,-0.50214 2.235006,-0.70435 0.754747,-0.20226 1.517701,-0.37175 2.287198,-0.50746 0.76948,-0.13569 1.544489,-0.23782 2.322856,-0.30593 0.06621,-0.006 0.132703,-0.008 0.198954,-0.0129 a 38.604691,37.720612 0 0 0 -0.06873,1.79782 38.604691,37.720612 0 0 0 26.747213,35.88102 c -0.0653,0.1468 -0.12588,0.29569 -0.19379,0.44132 -0.33026,0.70807 -0.69138,1.4018 -1.0821,2.07842 -0.39066,0.67683 -0.81068,1.33591 -1.25884,1.97611 -0.44814,0.64006 -0.92407,1.26022 -1.42627,1.8588 -0.50237,0.59853 -1.03073,1.17509 -1.583375,1.72754 -0.55245,0.55264 -1.12848,1.08101 -1.72702,1.58337 -0.59867,0.50236 -1.21914,0.97803 -1.85932,1.42627 -0.6401,0.44803 -1.29942,0.8683 -1.97611,1.25884 -0.67675,0.39085 -1.3702,0.75173 -2.07842,1.0821 -0.70816,0.33025 -1.43047,0.62931 -2.16473,0.89659 -0.73434,0.26723 -1.48017,0.50264 -2.23501,0.70486 -0.75474,0.20225 -1.51769,0.37124 -2.287196,0.50695 -0.769477,0.13568 -1.544488,0.2378 -2.322855,0.30592 -0.77854,0.068 -1.55996,0.10191 -2.34146,0.10181 -0.781387,-3e-5 -1.562022,-0.0342 -2.340425,-0.10232 -0.778367,-0.0681 -1.553883,-0.17024 -2.323373,-0.30593 -0.769487,-0.13571 -1.532461,-0.30468 -2.287198,-0.50694 -0.75484,-0.20221 -1.500669,-0.43712 -2.235006,-0.70435 -0.734257,-0.26727 -1.45656,-0.56686 -2.164726,-0.89711 -0.708217,-0.33014 -1.401679,-0.69098 -2.078426,-1.08158 -0.676707,-0.39079 -1.336027,-0.81056 -1.976107,-1.25884 -0.313637,-0.22073 -0.622174,-0.44866 -0.926041,-0.68265 l -1.07177,0.15451 -0.102836,1.02061 c 14.902894,12.33058 36.739019,11.30312 50.418114,-2.37246 1.27262,-1.27262 2.43207,-2.61561 3.48351,-4.01371 1.05146,1.39815 2.21085,2.74105 3.48351,4.01371 13.67864,13.67853 35.51745,14.70724 50.42173,2.37557 l -0.25735,-0.92036 -0.92036,-0.25735 c -0.13689,0.10606 -0.27503,0.21079 -0.41393,0.31419 -0.21792,0.16035 -0.4382,0.31713 -0.66094,0.47077 -0.22256,0.15369 -0.44727,0.30425 -0.67438,0.45114 -0.22704,0.14671 -0.45644,0.28966 -0.68781,0.42943 -0.23142,0.14007 -0.46517,0.27679 -0.70073,0.40979 -0.23565,0.13284 -0.47305,0.26194 -0.71262,0.38758 -0.23928,0.12571 -0.48047,0.24798 -0.72347,0.36638 -0.24331,0.11844 -0.48858,0.23314 -0.73536,0.34417 -0.24657,0.11095 -0.49481,0.218 -0.74465,0.32143 -0.24976,0.10354 -0.50118,0.20325 -0.75396,0.2992 -0.25292,0.0959 -0.50705,0.18823 -0.76275,0.27647 -0.25571,0.0882 -0.51275,0.1723 -0.77101,0.2527 -0.25815,0.0805 -0.51778,0.15727 -0.77825,0.22996 -0.26046,0.0725 -0.52192,0.14105 -0.78445,0.20567 -0.26265,0.0649 -0.52619,0.12551 -0.79064,0.18242 -0.26448,0.0566 -0.52976,0.10951 -0.79582,0.15813 -0.26594,0.0487 -0.53267,0.0931 -0.79995,0.13384 -0.2674,0.0408 -0.53559,0.0778 -0.80409,0.11059 -0.26849,0.0326 -0.53732,0.0609 -0.80667,0.0853 -0.26935,0.0245 -0.53877,0.0451 -0.80873,0.0615 -0.26996,0.0163 -0.54047,0.0286 -0.81081,0.0367 -0.27031,0.008 -0.54034,0.0124 -0.8108,0.0124 -0.27044,-6e-5 -0.541,-0.004 -0.81132,-0.0124 -0.27033,-0.008 -0.54085,-0.0205 -0.8108,-0.0367 -0.26998,-0.0164 -0.53939,-0.0369 -0.80874,-0.0615 -0.26935,-0.0244 -0.53818,-0.0528 -0.80667,-0.0853 -0.26839,-0.0326 -0.5363,-0.0694 -0.80357,-0.11007 -0.26742,-0.0408 -0.53443,-0.0855 -0.80046,-0.13436 -0.26606,-0.0486 -0.53134,-0.1015 -0.79582,-0.15813 -0.26436,-0.0568 -0.52759,-0.11714 -0.79013,-0.1819 -0.26265,-0.0647 -0.52439,-0.13354 -0.78497,-0.20619 -0.26046,-0.0727 -0.52009,-0.14944 -0.77825,-0.22996 -0.25826,-0.0804 -0.5153,-0.16453 -0.77101,-0.2527 -0.2557,-0.0882 -0.50982,-0.18056 -0.76274,-0.27647 -0.25278,-0.096 -0.5042,-0.19566 -0.75396,-0.2992 -0.24984,-0.10343 -0.49806,-0.2105 -0.74466,-0.32143 -0.24666,-0.1109 -0.49164,-0.22586 -0.73484,-0.34417 -0.24312,-0.11852 -0.48456,-0.24058 -0.72399,-0.36638 -0.23961,-0.12561 -0.47694,-0.25476 -0.71261,-0.38758 -0.23542,-0.13288 -0.46892,-0.26933 -0.70022,-0.40927 -0.23152,-0.13988 -0.46116,-0.28313 -0.68833,-0.42995 -0.22709,-0.14691 -0.45181,-0.29745 -0.67438,-0.45114 -0.22257,-0.15356 -0.44258,-0.31057 -0.66042,-0.47077 -0.2179,-0.16034 -0.43347,-0.32361 -0.64647,-0.49041 -0.21281,-0.16684 -0.42329,-0.33687 -0.63097,-0.51004 -0.20791,-0.17312 -0.41293,-0.34982 -0.61547,-0.52917 -0.20238,-0.17932 -0.40203,-0.36144 -0.59893,-0.54674 -0.19683,-0.18552 -0.39106,-0.37363 -0.58239,-0.56482 -0.55253,-0.55259 -1.08109,-1.12892 -1.58337,-1.72754 -0.50223,-0.59854 -0.97761,-1.21926 -1.42575,-1.85932 -0.44828,-0.64007 -0.86857,-1.2994 -1.25936,-1.97611 -0.3906,-0.67675 -0.75144,-1.37024 -1.08158,-2.07842 -0.0663,-0.14218 -0.12587,-0.2872 -0.18966,-0.43047 a 38.604691,37.720612 0 0 0 26.73946,-35.89187 38.604691,37.720612 0 0 0 -0.045,-1.79678 c 0.0594,0.005 0.11893,0.007 0.17828,0.0119 0.77838,0.0681 1.55338,0.17024 2.32286,0.30593 0.7695,0.13571 1.53246,0.30521 2.2872,0.50746 0.75484,0.20221 1.50066,0.43711 2.235,0.70435 0.73426,0.26727 1.45655,0.56633 2.16473,0.89658 0.7081,0.33026 1.40129,0.6914 2.07791,1.08211 0.67683,0.39066 1.33641,0.81067 1.97662,1.25884 0.64006,0.44813 1.26023,0.92406 1.8588,1.42627 0.59851,0.50239 1.1751,1.03072 1.72755,1.58336 0.55264,0.55246 1.08097,1.12852 1.58336,1.72703 0.50234,0.59868 0.97803,1.21913 1.42627,1.85932 0.44803,0.64009 0.86778,1.29941 1.25832,1.9761 0.39085,0.67674 0.75225,1.3702 1.08262,2.07843 0.33025,0.70817 0.62931,1.43049 0.89659,2.16472 0.26723,0.73434 0.50213,1.48017 0.70435,2.23501 0.20225,0.75474 0.37175,1.5177 0.50746,2.2872 0.13569,0.76948 0.23781,1.5445 0.30593,2.32285 0.068,0.77854 0.10189,1.55996 0.1018,2.34146 -3e-5,0.78139 -0.0342,1.56203 -0.10232,2.34043 -0.0681,0.77839 -0.17026,1.55337 -0.30592,2.32286 -0.1357,0.76946 -0.3047,1.53297 -0.50695,2.28771 -0.20221,0.75485 -0.43763,1.50067 -0.70487,2.23501 -0.26727,0.73425 -0.56633,1.45604 -0.89658,2.16421 -0.33013,0.70819 -0.69099,1.40167 -1.08159,2.07842 -0.39079,0.67672 -0.81108,1.33604 -1.25936,1.97611 -0.2208,0.31358 -0.44812,0.6227 -0.68212,0.92656 l 0.15451,1.07177 1.02061,0.10283 c 12.33057,-14.90288 11.30257,-36.73953 -2.37298,-50.41863 -6.05077,-6.05075 -13.65513,-9.59873 -21.52892,-10.64948 1.62154,-4.19401 2.51251,-8.75182 2.51251,-13.51803 -1e-4,-19.344458 -14.71491,-35.514557 -33.97364,-37.333641 z m -3.52795,42.957071 a 27.105421,26.484684 0 0 1 0.68678,0.0088 27.105421,26.484684 0 0 1 0.68626,0.02532 27.105421,26.484684 0 0 1 0.68523,0.04238 27.105421,26.484684 0 0 1 0.68368,0.05943 27.105421,26.484684 0 0 1 0.68265,0.07648 27.105421,26.484684 0 0 1 0.68006,0.09301 27.105421,26.484684 0 0 1 0.67748,0.11007 27.105421,26.484684 0 0 1 0.67437,0.12661 27.105421,26.484684 0 0 1 0.67076,0.14366 27.105421,26.484684 0 0 1 0.66663,0.15968 27.105421,26.484684 0 0 1 0.66249,0.17674 27.105421,26.484684 0 0 1 0.65784,0.19275 27.105421,26.484684 0 0 1 0.65268,0.20877 27.105421,26.484684 0 0 1 0.64698,0.22531 27.105421,26.484684 0 0 1 0.64079,0.24081 27.105421,26.484684 0 0 1 0.63459,0.25684 27.105421,26.484684 0 0 1 0.62735,0.27233 27.105421,26.484684 0 0 1 0.62063,0.28784 27.105421,26.484684 0 0 1 0.61237,0.30282 27.105421,26.484684 0 0 1 0.60461,0.31833 27.105421,26.484684 0 0 1 0.59635,0.33331 27.105421,26.484684 0 0 1 0.58704,0.34727 27.105421,26.484684 0 0 1 0.57826,0.36225 27.105421,26.484684 0 0 1 0.56844,0.3762 27.105421,26.484684 0 0 1 0.55863,0.39068 27.105421,26.484684 0 0 1 0.54828,0.40359 27.105421,26.484684 0 0 1 0.53796,0.41755 27.105421,26.484684 0 0 1 0.0356,0.0289 c -0.56783,0.47185 -1.15323,0.92216 -1.75803,1.34566 -0.64008,0.44816 -1.29941,0.86817 -1.97611,1.25884 -0.67673,0.39076 -1.3702,0.75181 -2.07842,1.0821 -0.70819,0.33021 -1.43045,0.62936 -2.16473,0.89659 -0.73423,0.26717 -1.47977,0.50218 -2.23449,0.70435 -0.75482,0.20235 -1.51812,0.37167 -2.28771,0.50746 -0.76948,0.13554 -1.5445,0.23744 -2.32286,0.30541 -0.77845,0.0681 -1.55951,0.10228 -2.34094,0.10232 -0.78143,-4e-5 -1.56249,-0.0342 -2.34094,-0.10232 -0.77836,-0.068 -1.55338,-0.16987 -2.32286,-0.30541 -0.76959,-0.13579 -1.53291,-0.30511 -2.28771,-0.50746 -0.75472,-0.20217 -1.50027,-0.43718 -2.23449,-0.70435 -0.73427,-0.26723 -1.45654,-0.56638 -2.16473,-0.89659 -0.70822,-0.33029 -1.40169,-0.69134 -2.07842,-1.0821 -0.6767,-0.39067 -1.33603,-0.81068 -1.97611,-1.25884 -0.60241,-0.42196 -1.18558,-0.87055 -1.751314,-1.34049 a 27.105421,26.484684 0 0 1 0.255284,-0.21445 27.105421,26.484684 0 0 1 1.63091,-1.17616 27.105421,26.484684 0 0 1 1.71617,-1.05368 27.105421,26.484684 0 0 1 1.79214,-0.92553 27.105421,26.484684 0 0 1 1.85777,-0.7922 27.105421,26.484684 0 0 1 1.91306,-0.65422 27.105421,26.484684 0 0 1 1.95802,-0.51263 27.105421,26.484684 0 0 1 1.9916,-0.36794 27.105421,26.484684 0 0 1 2.01435,-0.22169 27.105421,26.484684 0 0 1 2.02572,-0.07441 z m 0,15.76389 a 9.8709688,10 0 0 1 0.64544,0.0212 9.8709688,10 0 0 1 0.64285,0.0641 9.8709688,10 0 0 1 0.63769,0.10697 9.8709688,10 0 0 1 0.6289,0.14831 9.8709688,10 0 0 1 0.61805,0.19017 9.8709688,10 0 0 1 0.60462,0.23048 9.8709688,10 0 0 1 0.58859,0.26975 9.8709688,10 0 0 1 0.56947,0.30851 9.8709688,10 0 0 1 0.54829,0.34571 9.8709688,10 0 0 1 0.52503,0.38137 9.8709688,10 0 0 1 0.49972,0.41496 9.8709688,10 0 0 1 0.47128,0.44752 9.8709688,10 0 0 1 0.44132,0.47749 9.8709688,10 0 0 1 0.40979,0.50591 9.8709688,10 0 0 1 0.37673,0.53176 9.8709688,10 0 0 1 0.34106,0.55552 9.8709688,10 0 0 1 0.30437,0.57722 9.8709688,10 0 0 1 0.26666,0.59635 9.8709688,10 0 0 1 0.22737,0.61236 9.8709688,10 0 0 1 0.18759,0.62581 9.8709688,10 0 0 1 0.14676,0.63768 9.8709688,10 0 0 1 0.1049,0.64544 9.8709688,10 0 0 1 0.0636,0.65112 9.8709688,10 0 0 1 0.0212,0.65423 9.8709688,10 0 0 1 -0.18965,1.95078 9.8709688,10 0 0 1 -0.56172,1.87586 9.8709688,10 0 0 1 -0.91209,1.72909 9.8709688,10 0 0 1 -1.22784,1.51515 9.8709688,10 0 0 1 -1.49603,1.24386 9.8709688,10 0 0 1 -1.70635,0.92397 9.8709688,10 0 0 1 -1.85157,0.56896 9.8709688,10 0 0 1 -1.92598,0.19223 9.8709688,10 0 0 1 -1.92547,-0.19223 9.8709688,10 0 0 1 -1.85208,-0.56896 9.8709688,10 0 0 1 -1.70635,-0.92397 9.8709688,10 0 0 1 -1.49604,-1.24386 9.8709688,10 0 0 1 -1.22731,-1.51515 9.8709688,10 0 0 1 -0.91209,-1.72909 9.8709688,10 0 0 1 -0.56172,-1.87586 9.8709688,10 0 0 1 -0.18965,-1.95078 9.8709688,10 0 0 1 0.18965,-1.95079 9.8709688,10 0 0 1 0.56172,-1.87585 9.8709688,10 0 0 1 0.91209,-1.72909 9.8709688,10 0 0 1 1.22731,-1.51516 9.8709688,10 0 0 1 1.49604,-1.24385 9.8709688,10 0 0 1 1.70635,-0.92397 9.8709688,10 0 0 1 1.85208,-0.56896 9.8709688,10 0 0 1 1.92547,-0.19224 z m 27.10274,10.49549 a 27.105421,26.484684 0 0 1 0.003,0.2253 27.105421,26.484684 0 0 1 -0.0765,1.97921 27.105421,26.484684 0 0 1 -0.22686,1.96836 27.105421,26.484684 0 0 1 -0.37672,1.94613 27.105421,26.484684 0 0 1 -0.52452,1.91306 27.105421,26.484684 0 0 1 -0.66973,1.86914 27.105421,26.484684 0 0 1 -0.81028,1.81539 27.105421,26.484684 0 0 1 -0.94723,1.75132 27.105421,26.484684 0 0 1 -1.07849,1.6769 27.105421,26.484684 0 0 1 -1.20354,1.5937 27.105421,26.484684 0 0 1 -1.3224,1.5012 27.105421,26.484684 0 0 1 -1.43299,1.40043 27.105421,26.484684 0 0 1 -1.53686,1.29191 27.105421,26.484684 0 0 1 -1.63091,1.17616 27.105421,26.484684 0 0 1 -1.71617,1.05368 27.105421,26.484684 0 0 1 -1.79214,0.92552 27.105421,26.484684 0 0 1 -1.85777,0.79169 27.105421,26.484684 0 0 1 -0.36018,0.12299 c 0.005,-0.71619 0.0358,-1.43209 0.0982,-2.14561 0.0681,-0.77862 0.17022,-1.55416 0.30593,-2.32389 0.13571,-0.7695 0.30468,-1.53246 0.50694,-2.2872 0.20221,-0.75483 0.43763,-1.50066 0.70487,-2.235 0.26727,-0.73426 0.56634,-1.45656 0.89659,-2.16473 0.33026,-0.7081 0.69139,-1.40129 1.0821,-2.07791 0.39066,-0.67682 0.81068,-1.33642 1.25884,-1.97662 0.44826,-0.63994 0.92395,-1.25985 1.42627,-1.85829 0.5023,-0.59858 1.03032,-1.17496 1.58285,-1.72754 0.55258,-0.55253 1.12893,-1.08057 1.72754,-1.58285 0.59847,-0.5023 1.21885,-0.97851 1.8588,-1.42678 0.6402,-0.44816 1.2998,-0.86818 1.97663,-1.25884 0.67659,-0.39071 1.36984,-0.75185 2.0779,-1.08211 0.67317,-0.31392 1.35989,-0.59767 2.05673,-0.85472 z m -54.199284,10e-4 c 0.69589,0.25679 1.3813,0.54016 2.05363,0.85369 0.70809,0.33026 1.40179,0.6914 2.07842,1.08211 0.67682,0.39066 1.33643,0.81068 1.97662,1.25884 0.63995,0.44826 1.25984,0.92395 1.85829,1.42627 0.5986,0.5023 1.17495,1.03083 1.72754,1.58336 0.552524,0.55258 1.080574,1.12896 1.582854,1.72754 0.5023,0.59847 0.97853,1.21834 1.42679,1.85829 0.44817,0.6402 0.86818,1.29979 1.25884,1.97662 0.39072,0.67662 0.75184,1.36981 1.0821,2.07791 0.33024,0.70816 0.62932,1.43047 0.89659,2.16473 0.26723,0.73434 0.50213,1.48016 0.70435,2.235 0.20225,0.75474 0.37176,1.5177 0.50746,2.2872 0.13558,0.76961 0.23742,1.5449 0.30541,2.32337 0.0625,0.71402 0.093,1.43045 0.0982,2.14716 a 27.105421,26.484684 0 0 1 -0.36328,-0.12402 27.105421,26.484684 0 0 1 -1.85777,-0.79169 27.105421,26.484684 0 0 1 -1.79214,-0.92552 27.105421,26.484684 0 0 1 -1.71617,-1.05368 27.105421,26.484684 0 0 1 -1.63091,-1.17616 27.105421,26.484684 0 0 1 -1.536864,-1.29191 27.105421,26.484684 0 0 1 -1.43299,-1.40043 27.105421,26.484684 0 0 1 -1.3224,-1.5012 27.105421,26.484684 0 0 1 -1.20354,-1.5937 27.105421,26.484684 0 0 1 -1.07849,-1.6769 27.105421,26.484684 0 0 1 -0.94723,-1.75132 27.105421,26.484684 0 0 1 -0.81028,-1.81539 27.105421,26.484684 0 0 1 -0.66973,-1.86914 27.105421,26.484684 0 0 1 -0.52452,-1.91306 27.105421,26.484684 0 0 1 -0.37672,-1.94613 27.105421,26.484684 0 0 1 -0.22737,-1.96836 27.105421,26.484684 0 0 1 -0.0755,-1.97921 27.105421,26.484684 0 0 1 0.009,-0.22427 z" />
    </g>
  </g>
</svg>
