<?xml version="1.0" encoding="UTF-8" standalone="no"?>
<!-- Created with Inkscape (http://www.inkscape.org/) -->

<svg
   width="50mm"
   height="50mm"
   viewBox="0 0 50 50"
   version="1.1"
   id="svg7082"
   inkscape:version="1.2.2 (732a01da63, 2022-12-09)"
   sodipodi:docname="DustClouds.svg"
   xmlns:inkscape="http://www.inkscape.org/namespaces/inkscape"
   xmlns:sodipodi="http://sodipodi.sourceforge.net/DTD/sodipodi-0.dtd"
   xmlns="http://www.w3.org/2000/svg"
   xmlns:svg="http://www.w3.org/2000/svg">
  <sodipodi:namedview
     id="namedview7084"
     pagecolor="#ffffff"
     bordercolor="#000000"
     borderopacity="0.25"
     inkscape:showpageshadow="2"
     inkscape:pageopacity="0"
     inkscape:pagecheckerboard="0"
     inkscape:deskcolor="#d1d1d1"
     inkscape:document-units="mm"
     showgrid="false"
     inkscape:zoom="0.74564394"
     inkscape:cx="193.12167"
     inkscape:cy="25.481331"
     inkscape:window-width="1920"
     inkscape:window-height="1017"
     inkscape:window-x="-8"
     inkscape:window-y="-8"
     inkscape:window-maximized="1"
     inkscape:current-layer="layer1" />
  <defs
     id="defs7079" />
  <g
     inkscape:label="Layer 1"
     inkscape:groupmode="layer"
     id="layer1">
    <g
       id="g8108"
       style="fill:#000000"
       transform="matrix(0.16668297,0,0,0.16668297,20.918956,20.800664)">
      <path
         id="path11947"
         style="fill:#000000;stroke-width:0.406486"
         inkscape:transform-center-x="14.533137"
         inkscape:transform-center-y="30.243487"
         d="m 67.12438,-50.676773 c -2.6e-4,-27.718249 -22.38518,-50.188317 -49.99901,-50.188577 0,0 -3.01419,2.552248 -3.87931,4.269558 -0.67972,1.34928 -0.89404,2.93512 -0.88166,4.4459 0.0114,1.39566 0.24354,2.85195 0.88166,4.09324 0.87916,1.71016 3.87931,4.26957 3.87931,4.26957 18.21741,1e-5 32.98505,14.82402 32.98506,33.110309 -1e-5,18.286293 -14.76765,33.110293 -32.98506,33.110303 v 0.002 H -113.0536 l -1e-5,17.06957 H 17.12537 v 0.007 c 27.61404,-2.7e-4 49.99904,-22.47064 49.99901,-50.189093 z"
         sodipodi:nodetypes="ccaaacscccccccc" />
      <path
         id="path12058"
         style="fill:#000000;stroke-width:0.406486"
         inkscape:transform-center-x="14.533137"
         inkscape:transform-center-y="-30.243487"
         d="m 138.25243,101.06387 c -2.6e-4,27.71825 -22.38518,50.18832 -49.99901,50.18858 0,0 -3.01419,-2.55225 -3.87931,-4.26956 -0.67972,-1.34928 -0.89404,-2.93512 -0.88166,-4.4459 0.0114,-1.39566 0.24354,-2.85195 0.88166,-4.09324 0.87916,-1.71016 3.87931,-4.26957 3.87931,-4.26957 18.21741,-1e-5 32.98505,-14.82402 32.98506,-33.11031 -10e-6,-18.28629 -14.76765,-33.11029 -32.98506,-33.1103 v -0.002 H -113.05361 V 50.87471 l 201.30703,0.007 v -0.007 c 27.61404,2.7e-4 49.99904,22.47093 49.99901,50.18938 z"
         sodipodi:nodetypes="ccaaacscccccccc" />
      <path
         id="path12058-1"
         style="fill:#000000;stroke-width:0.406158"
         inkscape:transform-center-x="-14.533127"
         inkscape:transform-center-y="-30.194696"
         d="m 112.61358,-49.869369 c -14.47339,0.149458 -31.29069,9.647849 -30.75213,22.298259 0.49035,11.51802 19.41831,19.67924 29.62359,17.84911 1.37372,-0.24636 1.04708,5.97797 1.05848,7.37137 -20.16271,8.00295 -39.38135,-4.16898 -43.26564,-18.75203 -3.85354,-26.588244 19.07578,-44.981738 43.33569,-45.967334 z"
         sodipodi:nodetypes="caccccc" />
      <path
         id="path12058-0"
         style="fill:#000000;stroke-width:0.406486"
         inkscape:transform-center-x="14.533137"
         inkscape:transform-center-y="30.243487"
         d="m 162.02135,-16.79039 c -2.6e-4,-27.71825 -22.38518,-50.188315 -49.99901,-50.188575 -0.1819,8.305061 -0.0728,10.632851 0,17.07827 18.21741,10e-6 32.98505,14.824015 32.98506,33.110305 -1e-5,18.28629 -14.76765,33.11029 -32.98506,33.1103 v 0.002 H -88.89671 v 17.07686 l 200.91905,-0.007 v 0.007 c 27.61404,-2.7e-4 49.99904,-22.47093 49.99901,-50.18938 z"
         sodipodi:nodetypes="cccscccccccc" />
      <path
         id="path12103"
         style="fill:#000000;stroke-width:0.406486"
         inkscape:transform-center-x="14.533137"
         inkscape:transform-center-y="30.243487"
         d="m 162.02135,-16.79039 c -85.46547,-81.219454 -18.173,-28.65109 -17.01395,0 -1e-5,18.28629 -14.76765,33.11029 -32.98506,33.1103 v 0.002 h -225.07595 v 17.077 l 225.07595,-0.007 5e-5,0.007 c 27.61404,-2.7e-4 49.99899,-22.47087 49.99896,-50.18932 z"
         sodipodi:nodetypes="cccccccccc" />
    </g>
  </g>
</svg>
