<?xml version="1.0" encoding="UTF-8" standalone="no"?>
<!-- Created with Inkscape (http://www.inkscape.org/) -->

<svg
   width="50mm"
   height="50mm"
   viewBox="0 0 50 50"
   version="1.1"
   id="svg7082"
   inkscape:version="1.2.2 (732a01da63, 2022-12-09)"
   sodipodi:docname="Eclipsed.svg"
   xml:space="preserve"
   xmlns:inkscape="http://www.inkscape.org/namespaces/inkscape"
   xmlns:sodipodi="http://sodipodi.sourceforge.net/DTD/sodipodi-0.dtd"
   xmlns="http://www.w3.org/2000/svg"
   xmlns:svg="http://www.w3.org/2000/svg"><sodipodi:namedview
     id="namedview7084"
     pagecolor="#ffffff"
     bordercolor="#000000"
     borderopacity="0.25"
     inkscape:showpageshadow="2"
     inkscape:pageopacity="0"
     inkscape:pagecheckerboard="0"
     inkscape:deskcolor="#d1d1d1"
     inkscape:document-units="mm"
     showgrid="false"
     inkscape:zoom="1.9720632"
     inkscape:cx="111.05121"
     inkscape:cy="54.76498"
     inkscape:window-width="1920"
     inkscape:window-height="1017"
     inkscape:window-x="-8"
     inkscape:window-y="-8"
     inkscape:window-maximized="1"
     inkscape:current-layer="layer1" /><defs
     id="defs7079" /><g
     inkscape:label="Layer 1"
     inkscape:groupmode="layer"
     id="layer1"><path
       style="fill:#000000;stroke-width:0.0710235"
       id="path10970"
       d="" /><path
       style="fill:#000000;stroke-width:0.0710235"
       id="path10968"
       d="" /><path
       style="fill:#000000;stroke-width:0.0710235"
       id="path10966"
       d="" /><path
       style="fill:#000000;stroke-width:0.0598462"
       d="m 22.785689,46.215496 v -2.723005 h 2.214312 2.214311 v 2.723005 2.723004 h -2.214311 -2.214312 z m 15.829012,-4.460655 -2.094298,-2.096726 1.534827,-1.523972 c 0.844155,-0.838183 1.557968,-1.523971 1.586251,-1.523971 0.02828,0 0.978071,0.92694 2.110641,2.059866 l 2.059217,2.059866 -1.516808,1.560832 c -0.834245,0.858458 -1.532271,1.560832 -1.55117,1.560832 -0.0189,0 -0.976796,-0.943527 -2.12866,-2.096727 z m -30.9401895,0.509615 -1.556003,-1.520824 2.124172,-2.126522 2.1241725,-2.126523 1.541411,1.540556 c 0.847776,0.847307 1.541411,1.558699 1.541411,1.580874 0,0.04529 -4.1143795,4.143171 -4.1782825,4.161522 -0.02248,0.0065 -0.74108,-0.67263 -1.596881,-1.509083 z M 23.054997,39.026508 c -2.406038,-0.316927 -4.505157,-1.180964 -6.493318,-2.672771 -0.700234,-0.525418 -2.018006,-1.80395 -2.603953,-2.526415 -1.090467,-1.34453 -1.95546,-2.944724 -2.4257,-4.487417 -0.771731,-2.531779 -0.832816,-5.338557 -0.172263,-7.915169 0.604687,-2.358696 1.970058,-4.708795 3.713549,-6.391823 0.5647,-0.545117 1.454053,-1.284008 1.545473,-1.284008 0.0271,0 0.06639,0.09129 0.08732,0.202859 0.08338,0.444466 0.664144,2.216215 1.032058,3.148531 3.033473,7.687014 9.769808,13.808406 17.655614,16.043875 0.487982,0.138333 0.897746,0.260394 0.910589,0.271246 0.03681,0.03111 -0.410054,0.599721 -0.952969,1.212607 -1.733388,1.956789 -4.506838,3.572545 -7.149753,4.165303 -1.17049,0.262519 -1.909158,0.334999 -3.291415,0.322959 -0.691225,-0.006 -1.52608,-0.04642 -1.855234,-0.08978 z M 36.866908,30.09007 c -0.500646,-0.127225 -1.052728,-0.277236 -1.226848,-0.333358 -0.456118,-0.147017 -1.842661,-0.691648 -1.842661,-0.723794 0,-0.01496 0.0686,-0.162578 0.152448,-0.328042 0.808086,-1.59468 1.04629,-3.82222 0.625029,-5.844889 C 33.786,19.072227 30.63106,16.028876 26.79668,15.3569 c -0.918597,-0.160984 -2.417436,-0.172385 -3.262913,-0.02482 -0.701922,0.122511 -1.563463,0.385446 -2.15996,0.659202 L 20.94939,16.186065 20.697088,15.545904 C 20.32033,14.589963 20.05404,13.693689 19.792631,12.501706 l -0.10946,-0.499123 0.309449,-0.136513 c 0.928705,-0.409691 2.437284,-0.798036 3.627514,-0.93381 0.799813,-0.09124 2.932022,-0.03916 3.743793,0.09144 2.969364,0.477728 5.493764,1.784636 7.690672,3.981544 2.227537,2.227539 3.501187,4.712679 3.987524,7.780442 0.169265,1.067716 0.154585,3.425765 -0.02738,4.398699 -0.174771,0.934447 -0.381969,1.693382 -0.680988,2.49436 -0.224096,0.600288 -0.253239,0.647388 -0.399161,0.645105 -0.08658,-0.0014 -0.567034,-0.106557 -1.067681,-0.233782 z M 1.0615005,25 v -2.214311 h 2.723004 2.723005 V 25 27.214311 H 3.7845045 1.0615005 Z M 43.492491,25 V 22.845535 H 46.215496 48.9385 V 25 27.154465 H 46.215496 43.492491 Z M 8.2466795,11.347269 6.1856135,9.2583875 l 1.52245,-1.540016 c 0.837348,-0.847009 1.525743,-1.547799 1.529769,-1.55731 0.004,-0.0095 0.9686205,0.931058 2.1435425,2.090154 l 2.136223,2.1074495 -1.544648,1.545505 c -0.849556,0.850028 -1.571772,1.542462 -1.604925,1.538742 -0.03315,-0.0037 -0.9877585,-0.946759 -2.1213455,-2.095643 z m 29.8439605,0.562419 -1.539444,-1.542096 2.094164,-2.0944925 2.094165,-2.094493 1.540934,1.540935 1.540935,1.540934 -2.095654,2.0956545 -2.095654,2.095654 z M 22.845535,3.7845045 V 1.0615005 H 25 27.154465 v 2.723004 2.723005 H 25 22.845535 Z"
       id="path11027" /></g></svg>
