<?xml version="1.0" encoding="UTF-8" standalone="no"?>
<!-- Created with Inkscape (http://www.inkscape.org/) -->

<svg
   width="50mm"
   height="50mm"
   viewBox="0 0 50 50"
   version="1.1"
   id="svg7082"
   inkscape:version="1.2.2 (732a01da63, 2022-12-09)"
   sodipodi:docname="Flooded.svg"
   xml:space="preserve"
   xmlns:inkscape="http://www.inkscape.org/namespaces/inkscape"
   xmlns:sodipodi="http://sodipodi.sourceforge.net/DTD/sodipodi-0.dtd"
   xmlns="http://www.w3.org/2000/svg"
   xmlns:svg="http://www.w3.org/2000/svg"><sodipodi:namedview
     id="namedview7084"
     pagecolor="#ffffff"
     bordercolor="#000000"
     borderopacity="0.25"
     inkscape:showpageshadow="2"
     inkscape:pageopacity="0"
     inkscape:pagecheckerboard="0"
     inkscape:deskcolor="#d1d1d1"
     inkscape:document-units="mm"
     showgrid="false"
     inkscape:zoom="3.959798"
     inkscape:cx="26.516504"
     inkscape:cy="120.20815"
     inkscape:window-width="1920"
     inkscape:window-height="1017"
     inkscape:window-x="-8"
     inkscape:window-y="-8"
     inkscape:window-maximized="1"
     inkscape:current-layer="layer1" /><defs
     id="defs7079" /><g
     inkscape:label="Layer 1"
     inkscape:groupmode="layer"
     id="layer1"><path
       style="fill:#000000;stroke-width:0.0710235"
       id="path10970"
       d="" /><path
       style="fill:#000000;stroke-width:0.0710235"
       id="path10968"
       d="" /><path
       style="fill:#000000;stroke-width:0.0710235"
       id="path10966"
       d="" /><path
       style="fill:#000000;stroke-width:0.0664869"
       d="m 2.4102244,45.56306 c 0.091784,-0.728138 -0.1582842,-1.760227 0.1450751,-2.300247 2.1594262,0.102596 3.5914269,-1.787953 5.621551,-2.076799 2.3440955,-0.330963 4.9463055,-0.164805 6.8186895,1.450735 2.328606,1.367498 5.008499,0.241858 7.007099,-1.13902 2.685135,-0.849224 5.867738,-0.616762 8.116745,1.20521 1.890922,0.940677 4.372744,0.639306 5.856963,-0.918584 2.042418,-1.440941 4.888107,-1.360708 7.146738,-0.523078 1.137877,1.274122 3.32907,1.732456 4.482463,2.235855 0,1.443487 0,2.886973 0,4.330459 -1.90797,0.09305 -3.693573,-0.695214 -5.135323,-1.897786 -1.876441,-1.186413 -4.45871,-0.766324 -5.980884,0.814932 -2.170077,1.409523 -5.080814,1.326565 -7.439538,0.449351 -1.987113,-1.649539 -5.066714,-2.247784 -7.207908,-0.52827 -2.202942,1.505202 -5.206691,1.410227 -7.643798,0.584122 -2.017129,-1.608873 -4.9872942,-2.313772 -7.2387182,-0.717288 -1.1176277,0.782499 -3.5932786,1.749173 -4.5646863,1.057509 0.00518,-0.6757 0.010355,-1.351401 0.015532,-2.027101 z M 2.3944844,34.814047 C 2.4831082,34.096749 2.2191611,33.061701 2.5223592,32.537786 4.8377158,32.681964 6.2967828,30.504261 8.5445175,30.408903 9.9738337,30.17778 12.22218,31.053138 11.023502,28.897283 10.438727,26.766225 9.880797,24.626493 9.2336895,22.513419 7.8201136,23.436845 6.7437278,27.514527 4.9666406,25.322829 3.7588079,24.335644 1.5971459,23.404326 3.7135383,22.041506 9.1295512,15.40676 14.510836,8.7409575 19.981693,2.1527129 c 8.537223,3.2442819 17.077253,6.4811988 25.611142,9.7342371 -0.91359,1.333651 -0.779629,5.311214 -3.077722,3.716847 -1.271869,-0.30623 -4.093556,-2.235969 -2.722801,0.38481 1.335135,4.974062 2.662932,9.950307 4.033746,14.914635 0.879497,1.14717 3.49623,0.909769 3.75019,2.113387 0.01034,1.346699 0.02069,2.693398 0.03103,4.040097 -1.910532,0.129757 -3.688216,-0.683136 -5.136614,-1.869527 -1.929195,-1.271509 -4.546862,-0.708198 -6.110115,0.88453 -2.169047,1.336154 -5.052923,1.237023 -7.359043,0.322256 -2.088869,-1.763664 -5.371631,-2.164003 -7.507155,-0.25474 -2.17939,1.220544 -4.976279,1.159392 -7.288497,0.349632 -1.965789,-1.536289 -4.7802212,-2.314352 -7.0258465,-0.848088 -1.1059728,0.761467 -4.0223003,2.13019 -4.7855305,1.0505 2.5e-6,-0.625747 4.9e-6,-1.251495 7.4e-6,-1.877242 z M 30.647933,26.408438 c -0.548344,-2.060506 -1.088967,-4.123137 -1.650398,-6.180116 -2.639513,0.455227 -5.225328,1.315059 -7.838915,1.95379 0.730921,2.731131 1.463522,5.461813 2.195421,8.192682 2.100376,0.01594 4.428452,-0.255691 6.140304,1.235949 1.087036,0.704563 3.583139,1.608148 2.386029,-0.514191 -0.406706,-1.56378 -0.818879,-3.126136 -1.232441,-4.688114 z"
       id="path461" /></g></svg>
