<?xml version="1.0" encoding="UTF-8" standalone="no"?>
<!-- Created with Inkscape (http://www.inkscape.org/) -->

<svg
   width="50mm"
   height="50mm"
   viewBox="0 0 50 50"
   version="1.1"
   id="svg7082"
   inkscape:version="1.2.2 (732a01da63, 2022-12-09)"
   sodipodi:docname="Flooded.svg"
   xml:space="preserve"
   xmlns:inkscape="http://www.inkscape.org/namespaces/inkscape"
   xmlns:sodipodi="http://sodipodi.sourceforge.net/DTD/sodipodi-0.dtd"
   xmlns="http://www.w3.org/2000/svg"
   xmlns:svg="http://www.w3.org/2000/svg"><sodipodi:namedview
     id="namedview7084"
     pagecolor="#ffffff"
     bordercolor="#000000"
     borderopacity="0.25"
     inkscape:showpageshadow="2"
     inkscape:pageopacity="0"
     inkscape:pagecheckerboard="0"
     inkscape:deskcolor="#d1d1d1"
     inkscape:document-units="mm"
     showgrid="false"
     inkscape:zoom="2.4323688"
     inkscape:cx="111.00291"
     inkscape:cy="54.679209"
     inkscape:window-width="1920"
     inkscape:window-height="1017"
     inkscape:window-x="-8"
     inkscape:window-y="-8"
     inkscape:window-maximized="1"
     inkscape:current-layer="layer1" /><defs
     id="defs7079" /><g
     inkscape:label="Layer 1"
     inkscape:groupmode="layer"
     id="layer1"><g
       id="g10972"
       style="fill:#000000;stroke:#000000"
       transform="translate(-6.0000005e-8,-0.07236518)"><path
         style="fill:#000000;fill-opacity:1;stroke:#000000;stroke-width:0.0710235"
         d="m 1.0118155,49.347611 c 0.06836,-0.01786 0.1802221,-0.01786 0.2485822,0 0.06836,0.01787 0.012429,0.03248 -0.1242911,0.03248 -0.13672022,0 -0.19265122,-0.01462 -0.1242911,-0.03248 z m 15.7301195,-0.0023 c 0.126083,-0.01569 0.349807,-0.01595 0.497165,-5.68e-4 0.147356,0.01538 0.0442,0.02821 -0.229243,0.02853 -0.27344,2.84e-4 -0.394005,-0.01226 -0.267922,-0.02795 z m 15.980286,0 c 0.126083,-0.01569 0.349807,-0.01595 0.497165,-5.68e-4 0.147356,0.01538 0.0442,0.02821 -0.229243,0.02853 -0.27344,2.84e-4 -0.394006,-0.01226 -0.267922,-0.02795 z m 16.089757,0.002 c 0.0691,-0.01801 0.164985,-0.01682 0.21307,0.0026 0.04809,0.01946 -0.0085,0.03419 -0.125643,0.03274 -0.117188,-0.0014 -0.156531,-0.01737 -0.08743,-0.03537 z M 8.4382094,47.004278 c 0.05127,-0.02052 0.1125275,-0.01799 0.1361286,0.0056 0.0236,0.0236 -0.018348,0.04039 -0.093218,0.0373 -0.082739,-0.0034 -0.099568,-0.02024 -0.04291,-0.04291 z m 15.9802856,0 c 0.05127,-0.02052 0.112528,-0.01799 0.136129,0.0056 0.0236,0.0236 -0.01835,0.04039 -0.09322,0.0373 -0.08274,-0.0034 -0.09957,-0.02024 -0.04291,-0.04291 z m 16.473012,-0.424662 c 0.04883,-0.0197 0.12873,-0.0197 0.177558,0 0.04883,0.0197 0.0089,0.03582 -0.08878,0.03582 -0.09766,0 -0.137608,-0.01612 -0.08878,-0.03582 z M 1.1227897,44.518455 c 0.05127,-0.02052 0.1125278,-0.01799 0.1361284,0.0056 0.0236,0.0236 -0.018348,0.04039 -0.093218,0.0373 -0.082738,-0.0034 -0.099568,-0.02024 -0.04291,-0.04291 z m 15.4120983,0 c 0.05127,-0.02052 0.112527,-0.01799 0.136128,0.0056 0.0236,0.0236 -0.01835,0.04039 -0.09322,0.0373 -0.08274,-0.0034 -0.09957,-0.02024 -0.04291,-0.04291 z m 0.852282,0 c 0.05127,-0.02052 0.112527,-0.01799 0.136128,0.0056 0.0236,0.0236 -0.01835,0.04039 -0.09322,0.0373 -0.08274,-0.0034 -0.09957,-0.02024 -0.04291,-0.04291 z m 15.128003,0 c 0.05127,-0.02052 0.112529,-0.01799 0.136129,0.0056 0.0236,0.0236 -0.01835,0.04039 -0.09322,0.0373 -0.08274,-0.0034 -0.09957,-0.02024 -0.04291,-0.04291 z m 0.852282,0 c 0.05127,-0.02052 0.112529,-0.01799 0.136129,0.0056 0.0236,0.0236 -0.01835,0.04039 -0.09322,0.0373 -0.08274,-0.0034 -0.09957,-0.02024 -0.04291,-0.04291 z m 15.412098,0 c 0.05127,-0.02052 0.112528,-0.01799 0.136129,0.0056 0.0236,0.0236 -0.01835,0.04039 -0.09322,0.0373 -0.08274,-0.0034 -0.09957,-0.02024 -0.04291,-0.04291 z M 8.6468409,42.170836 c 0.2050804,-0.01435 0.5406664,-0.01435 0.7457467,0 0.2050804,0.01435 0.037287,0.02609 -0.3728733,0.02609 -0.4101607,0 -0.5779537,-0.01174 -0.3728734,-0.02609 z m 15.9802861,0 c 0.20508,-0.01435 0.540666,-0.01435 0.745746,0 0.205081,0.01435 0.03729,0.02609 -0.372873,0.02609 -0.410161,0 -0.577954,-0.01174 -0.372873,-0.02609 z M 1.2612258,37.840532 c 0.088347,-0.01699 0.2161893,-0.01634 0.284094,0.0014 0.067905,0.01778 -0.00438,0.03168 -0.160631,0.03089 -0.1562517,-7.88e-4 -0.21181,-0.01533 -0.123463,-0.03232 z m 15.1280042,0 c 0.08835,-0.01699 0.216189,-0.01634 0.284094,0.0014 0.0679,0.01778 -0.0044,0.03168 -0.160631,0.03089 -0.156252,-7.89e-4 -0.21181,-0.01533 -0.123463,-0.03232 z m 0.994329,0 c 0.08835,-0.01699 0.216189,-0.01634 0.284094,0.0014 0.0679,0.01778 -0.0044,0.03168 -0.160631,0.03089 -0.156252,-7.89e-4 -0.21181,-0.01533 -0.123463,-0.03232 z m 15.02064,0.0013 c 0.06836,-0.01786 0.180222,-0.01786 0.248582,0 0.06836,0.01787 0.01243,0.03248 -0.124291,0.03248 -0.13672,0 -0.192651,-0.01462 -0.124291,-0.03248 z m 0.959646,-0.0013 c 0.08835,-0.01699 0.216189,-0.01634 0.284093,0.0014 0.0679,0.01778 -0.0044,0.03168 -0.16063,0.03089 -0.156252,-7.89e-4 -0.21181,-0.01533 -0.123463,-0.03232 z m 15.091664,0.0013 c 0.06836,-0.01786 0.180222,-0.01786 0.248582,0 0.06836,0.01787 0.01243,0.03248 -0.124291,0.03248 -0.136721,0 -0.192652,-0.01462 -0.124291,-0.03248 z M 8.5758175,35.499949 c 0.048829,-0.0197 0.12873,-0.0197 0.1775587,0 0.048829,0.0197 0.00888,0.03582 -0.088779,0.03582 -0.097657,0 -0.137608,-0.01612 -0.08878,-0.03582 z m 0.7856973,-0.0015 c 0.05127,-0.02052 0.1125275,-0.01799 0.1361286,0.0056 0.0236,0.0236 -0.018348,0.04039 -0.093218,0.0373 -0.082739,-0.0034 -0.099568,-0.02024 -0.04291,-0.04291 z m 15.1945882,0.0015 c 0.04883,-0.0197 0.12873,-0.0197 0.177559,0 0.04883,0.0197 0.0089,0.03582 -0.08878,0.03582 -0.09766,0 -0.137608,-0.01612 -0.08878,-0.03582 z m 0.785698,-0.0015 c 0.05127,-0.02052 0.112528,-0.01799 0.136128,0.0056 0.0236,0.0236 -0.01835,0.04039 -0.09322,0.0373 -0.08274,-0.0034 -0.09957,-0.02024 -0.04291,-0.04291 z M 8.083092,30.739898 c 0.05127,-0.02052 0.1125275,-0.01799 0.1361286,0.0056 0.0236,0.0236 -0.018348,0.04039 -0.093218,0.0373 -0.082739,-0.0034 -0.099568,-0.02024 -0.04291,-0.04291 z m 17.89792,0 c 0.05127,-0.02052 0.112528,-0.01799 0.136129,0.0056 0.0236,0.0236 -0.01835,0.04039 -0.09322,0.0373 -0.08274,-0.0034 -0.09957,-0.02024 -0.04291,-0.04291 z"
         id="path10982" /><path
         style="fill:#000000;fill-opacity:1;stroke:#000000;stroke-width:0.0710235"
         d="m 40.682875,46.578137 c 0.05127,-0.02052 0.112528,-0.01799 0.136129,0.0056 0.0236,0.0236 -0.01835,0.04039 -0.09322,0.0373 -0.08274,-0.0034 -0.09957,-0.02024 -0.04291,-0.04291 z m 0.497165,0 c 0.05127,-0.02052 0.112528,-0.01799 0.136128,0.0056 0.0236,0.0236 -0.01835,0.04039 -0.09322,0.0373 -0.08274,-0.0034 -0.09957,-0.02024 -0.04291,-0.04291 z M 0.98074271,37.842247 c 0.0512701,-0.02052 0.11252789,-0.01799 0.13612839,0.0056 0.0236,0.0236 -0.018348,0.04039 -0.093218,0.0373 -0.0827383,-0.0034 -0.0995677,-0.02024 -0.04291,-0.04291 z m 15.90565129,-0.0017 c 0.08835,-0.01699 0.216189,-0.01634 0.284094,0.0014 0.0679,0.01778 -0.0044,0.03168 -0.160631,0.03089 -0.156251,-7.88e-4 -0.21181,-0.01533 -0.123463,-0.03232 z m 15.980286,0 c 0.08835,-0.01699 0.216189,-0.01634 0.284094,0.0014 0.06791,0.01778 -0.0044,0.03168 -0.160631,0.03089 -0.156252,-7.88e-4 -0.21181,-0.01533 -0.123463,-0.03232 z m 15.979458,0.0032 c 0.04883,-0.0197 0.12873,-0.0197 0.177559,0 0.04883,0.0197 0.0089,0.03582 -0.08878,0.03582 -0.09766,0 -0.137608,-0.01612 -0.08878,-0.03582 z"
         id="path10980" /><path
         style="fill:#000000;fill-opacity:1;stroke:#000000;stroke-width:0.0710235"
         d="m 31.804939,49.277029 c 0.05127,-0.02052 0.112528,-0.01799 0.136128,0.0056 0.0236,0.0236 -0.01835,0.04039 -0.09322,0.0373 -0.08274,-0.0034 -0.09957,-0.02024 -0.04291,-0.04291 z M 16.250794,44.518455 c 0.05127,-0.02052 0.112527,-0.01799 0.136128,0.0056 0.0236,0.0236 -0.01835,0.04039 -0.09322,0.0373 -0.08274,-0.0034 -0.09957,-0.02024 -0.04291,-0.04291 z m 25.497433,-2.698892 c 0.05127,-0.02052 0.112529,-0.01799 0.136129,0.0056 0.0236,0.0236 -0.01835,0.04039 -0.09322,0.0373 -0.08274,-0.0034 -0.09957,-0.02024 -0.04291,-0.04291 z m -26.065621,-4.04834 c 0.05127,-0.02052 0.112527,-0.01799 0.136128,0.0056 0.0236,0.0236 -0.01835,0.04039 -0.09322,0.0373 -0.08274,-0.0034 -0.09957,-0.02024 -0.04291,-0.04291 z m 25.174365,-2.70134 c 0.10796,-0.01633 0.267763,-0.01589 0.355118,9.65e-4 0.08736,0.01686 -9.73e-4,0.03022 -0.196291,0.02968 -0.195315,-5.69e-4 -0.266787,-0.01433 -0.158827,-0.03065 z M 8.4337705,30.741377 c 0.048829,-0.0197 0.1287301,-0.0197 0.1775587,0 0.048829,0.0197 0.00888,0.03582 -0.088779,0.03582 -0.097657,0 -0.137608,-0.01612 -0.08878,-0.03582 z m 0.8567209,-0.0015 c 0.05127,-0.02052 0.1125274,-0.01799 0.1361285,0.0056 0.0236,0.0236 -0.018348,0.04039 -0.093218,0.0373 -0.082739,-0.0034 -0.099568,-0.02024 -0.04291,-0.04291 z m 16.2599406,0.0015 c 0.04883,-0.0197 0.12873,-0.0197 0.177559,0 0.04883,0.0197 0.0089,0.03582 -0.08878,0.03582 -0.09766,0 -0.137608,-0.01612 -0.08878,-0.03582 z"
         id="path10978" /><path
         style="fill:#000000;fill-opacity:1;stroke:#000000;stroke-width:0.0710235"
         d="m 37.429111,48.020308 c 0,-0.01475 0.05593,-0.07068 0.124291,-0.124291 0.112648,-0.08834 0.11516,-0.08583 0.02682,0.02681 -0.09278,0.118308 -0.151107,0.155931 -0.151107,0.09748 z m 7.949256,-4.85605 -0.172183,-0.195314 0.195314,0.172183 c 0.107423,0.0947 0.195315,0.182592 0.195315,0.195314 0,0.0557 -0.05751,0.01037 -0.218446,-0.172183 z m -8.872561,0.02645 c 0,-0.01475 0.05593,-0.07068 0.124291,-0.124291 0.112648,-0.08834 0.11516,-0.08583 0.02682,0.02682 -0.09278,0.118307 -0.151107,0.15593 -0.151107,0.09748 z m 3.821952,-1.371147 c 0.05127,-0.02052 0.112528,-0.01799 0.136128,0.0056 0.0236,0.0236 -0.01835,0.04039 -0.09322,0.0373 -0.08274,-0.0034 -0.09957,-0.02024 -0.04291,-0.04291 z m -2.96967,-5.234038 c 0,-0.01475 0.05593,-0.07068 0.124291,-0.124291 0.112647,-0.08834 0.11516,-0.08583 0.02682,0.02682 -0.09278,0.118307 -0.151107,0.155931 -0.151107,0.09747 z m 7.164313,-0.168499 c -0.08834,-0.112647 -0.08583,-0.115159 0.02681,-0.02681 0.06836,0.05361 0.124292,0.109543 0.124292,0.124291 0,0.05846 -0.05832,0.02083 -0.151107,-0.09748 z M 8.7888879,30.738291 c 0.087892,-0.01693 0.2317142,-0.01693 0.3196058,0 0.087891,0.01693 0.01598,0.03078 -0.1598029,0.03078 -0.1757832,0 -0.2476944,-0.01385 -0.1598029,-0.03078 z m 15.4859051,-0.0025 c 0.245674,-0.01391 0.6292,-0.01379 0.852282,2.84e-4 0.22308,0.01405 0.02207,0.02543 -0.446681,0.02529 -0.468755,-1.42e-4 -0.651276,-0.01163 -0.405601,-0.02554 z"
         id="path10976" /><path
         style="fill:#000000;fill-opacity:1;stroke:#000000;stroke-width:0.0710235"
         d="M 0.92303612,46.956936 V 44.566972 H 1.162315 c 0.4463284,0 1.4522746,-0.211049 2.0681673,-0.433905 0.4165393,-0.150722 0.8194132,-0.369905 1.2555979,-0.683108 1.2755883,-0.915938 2.3913657,-1.219571 4.4999853,-1.224569 2.0990435,-0.005 3.4630375,0.361563 4.6096305,1.23872 0.560091,0.428476 1.211376,0.755202 1.851644,0.9289 0.636293,0.172621 2.006779,0.214422 2.698893,0.08232 0.979084,-0.186876 1.36994,-0.370792 2.621476,-1.233519 0.952225,-0.656401 1.983755,-0.931643 3.735485,-0.996733 2.271407,-0.0844 3.811107,0.275952 5.035496,1.178508 1.033852,0.762103 1.920674,1.072917 3.202871,1.122545 1.555918,0.06022 2.528154,-0.277239 3.728733,-1.294232 1.050195,-0.889605 1.971875,-1.240093 3.651643,-1.388614 0.676913,-0.05985 1.135125,-0.05963 1.804545,8.87e-4 1.637739,0.148048 2.531346,0.485061 3.44413,1.298915 0.873332,0.778678 2.01892,1.266851 3.240616,1.380935 l 0.465736,0.04349 v 2.369016 2.369017 l -0.337361,-0.0022 c -0.919091,-0.006 -2.212811,-0.286746 -2.970268,-0.644627 -0.254624,-0.120303 -0.805104,-0.476464 -1.223288,-0.791468 -1.30395,-0.982223 -2.144815,-1.286725 -3.565761,-1.291269 -0.73322,-0.0023 -0.980538,0.02582 -1.42047,0.161754 -0.716239,0.221311 -1.300466,0.55665 -1.998184,1.146935 -1.170985,0.990679 -2.558499,1.421933 -4.569626,1.420287 -1.942261,-0.0016 -3.408844,-0.391705 -4.501979,-1.197536 -0.571154,-0.421042 -1.156869,-0.721034 -1.820975,-0.932668 -0.706443,-0.225127 -2.145566,-0.278547 -2.92139,-0.108441 -0.693189,0.151988 -1.55137,0.54899 -2.152995,0.995997 -1.239676,0.921076 -2.867064,1.311924 -5.081974,1.220533 -1.118558,-0.04615 -1.940334,-0.183933 -2.68821,-0.450706 -0.565906,-0.201863 -0.808708,-0.336274 -1.431153,-0.792259 -0.546304,-0.400207 -1.07751,-0.667283 -1.742578,-0.876121 -0.460688,-0.144661 -0.674455,-0.16648 -1.6310377,-0.16648 -1.5630273,0 -2.243967,0.213742 -3.669994,1.151987 -1.0356098,0.681373 -2.1858794,1.03078 -3.725565,1.131682 l -0.70111918,0.04595 z m 0,-11.465009 v -2.349516 l 0.40838508,-0.04523 c 1.4226209,-0.15755 2.3528363,-0.489903 3.1783013,-1.135562 0.5517566,-0.43157 0.9563569,-0.634788 1.6832031,-0.845421 0.8787225,-0.254643 1.8110519,-0.349799 2.9808479,-0.304233 0.5598057,0.02181 1.1212805,0.06095 1.2477225,0.08699 0.226932,0.04674 0.229024,0.04473 0.162379,-0.155892 C 10.546741,30.63129 10.018522,28.71808 9.410053,26.491493 8.8015848,24.264907 8.2867554,22.386759 8.2659881,22.317832 8.2452209,22.248904 8.1996699,22.210159 8.1647647,22.231732 8.1298595,22.253305 7.376252,23.156655 6.4900813,24.239177 5.6039108,25.321699 4.8505826,26.199024 4.8160188,26.188788 4.781455,26.178552 3.9395,25.527846 2.9450078,24.742775 L 1.1368399,23.315373 1.5863497,22.772729 c 0.2472304,-0.298455 4.374425,-5.352712 9.1715443,-11.231681 4.797118,-5.8789699 8.757964,-10.72827103 8.801879,-10.77622498 0.06209,-0.0677981 3.095559,1.05848078 13.639654,5.06418288 7.457895,2.8332544 13.596993,5.1736511 13.642443,5.2008811 0.05741,0.0344 -0.174887,0.70954 -0.761176,2.212211 -0.464095,1.189487 -0.854629,2.173524 -0.867853,2.186748 -0.01322,0.01323 -1.11512,-0.381701 -2.448657,-0.877611 -1.333536,-0.495911 -2.440119,-0.886147 -2.459073,-0.867194 -0.02554,0.02554 4.472056,16.839794 4.692988,17.544713 0.02081,0.0664 0.36379,0.298777 0.762174,0.516387 0.398383,0.217609 0.980018,0.539033 1.292522,0.714275 0.645924,0.362215 1.341564,0.60175 1.747557,0.60175 h 0.276612 v 2.379287 2.379287 l -0.443897,-2.84e-4 c -0.579192,-3.55e-4 -1.655584,-0.176986 -2.207751,-0.362247 -0.647968,-0.217402 -1.294535,-0.580296 -1.893855,-1.062949 -0.608571,-0.490101 -1.597039,-1.003951 -2.272752,-1.181477 -0.626094,-0.164491 -1.930437,-0.159818 -2.555632,0.0092 -0.780595,0.210974 -1.39393,0.552054 -2.142687,1.191567 -0.761195,0.650136 -1.565943,1.028964 -2.688124,1.265411 -0.615185,0.129621 -2.427795,0.170865 -3.259392,0.07416 -1.328607,-0.154494 -2.28832,-0.501075 -3.166806,-1.143626 -0.587472,-0.429694 -1.316543,-0.790281 -1.954575,-0.966701 -0.647299,-0.178982 -2.332684,-0.181123 -2.982986,-0.0038 -0.670529,0.182849 -1.273429,0.483619 -1.939552,0.96759 -0.32259,0.234378 -0.770236,0.507385 -0.994768,0.606685 -1.866685,0.825536 -5.35124,0.813371 -7.174925,-0.02505 -0.240759,-0.110687 -0.661468,-0.367121 -0.934908,-0.569854 -0.587776,-0.435786 -1.313325,-0.798424 -1.953146,-0.976207 -0.6476366,-0.179955 -2.3970986,-0.178148 -3.0540106,0.0032 -0.6480557,0.178857 -1.3566947,0.520004 -2.048408,0.986129 -1.0727015,0.722861 -2.1885588,1.071836 -3.7222507,1.164105 l -0.76350258,0.04593 z M 31.069301,26.369072 c -0.964629,-3.643646 -1.760749,-6.63285 -1.769154,-6.642676 -0.01312,-0.01534 -8.423188,2.188872 -8.473258,2.220773 -0.01003,0.0064 0.517319,2.000116 1.171888,4.4305 l 1.190124,4.418881 1.775587,0.01624 c 2.437748,0.02229 3.199814,0.204883 4.414173,1.057618 0.731668,0.513785 1.167647,0.727691 1.923369,0.943668 0.684545,0.195636 1.461987,0.316612 1.498094,0.233116 0.01268,-0.02932 -0.766192,-3.034471 -1.730823,-6.678118 z"
         id="path10974" /></g><path
       style="fill:#000000;stroke-width:0.0710235"
       id="path10970"
       d="" /><path
       style="fill:#000000;stroke-width:0.0710235"
       id="path10968"
       d="" /><path
       style="fill:#000000;stroke-width:0.0710235"
       id="path10966"
       d="" /></g></svg>
