<?xml version="1.0" encoding="UTF-8" standalone="no"?>
<!-- Created with Inkscape (http://www.inkscape.org/) -->

<svg
   width="50mm"
   height="50mm"
   viewBox="0 0 50 50"
   version="1.1"
   id="svg7082"
   inkscape:version="1.2.2 (732a01da63, 2022-12-09)"
   sodipodi:docname="Foggy.svg"
   xml:space="preserve"
   xmlns:inkscape="http://www.inkscape.org/namespaces/inkscape"
   xmlns:sodipodi="http://sodipodi.sourceforge.net/DTD/sodipodi-0.dtd"
   xmlns="http://www.w3.org/2000/svg"
   xmlns:svg="http://www.w3.org/2000/svg"><sodipodi:namedview
     id="namedview7084"
     pagecolor="#ffffff"
     bordercolor="#000000"
     borderopacity="0.25"
     inkscape:showpageshadow="2"
     inkscape:pageopacity="0"
     inkscape:pagecheckerboard="0"
     inkscape:deskcolor="#d1d1d1"
     inkscape:document-units="mm"
     showgrid="false"
     inkscape:zoom="0.52784843"
     inkscape:cx="111.77451"
     inkscape:cy="54.940014"
     inkscape:window-width="1920"
     inkscape:window-height="1017"
     inkscape:window-x="-8"
     inkscape:window-y="-8"
     inkscape:window-maximized="1"
     inkscape:current-layer="layer1" /><defs
     id="defs7079" /><g
     inkscape:label="Layer 1"
     inkscape:groupmode="layer"
     id="layer1"><path
       style="fill:#000000;stroke-width:0.0710235"
       id="path10970"
       d="" /><path
       style="fill:#000000;stroke-width:0.0710235"
       id="path10968"
       d="" /><path
       style="fill:#000000;stroke-width:0.0710235"
       id="path10966"
       d="" /><path
       style="fill:#000000;fill-opacity:1;stroke-width:0.0662294"
       d="m 13.174969,48.327085 c -0.723211,-0.14257 -1.456728,-0.73615 -1.795589,-1.45304 -0.147539,-0.31213 -0.172278,-0.4543 -0.172864,-0.99344 -5.96e-4,-0.56625 0.01973,-0.67225 0.203423,-1.05986 0.250098,-0.52773 0.699262,-0.98924 1.203968,-1.23708 0.343628,-0.16874 0.446878,-0.18666 1.075527,-0.18666 0.637102,0 0.727425,0.0162 1.077264,0.19338 0.453597,0.22972 0.997293,0.78133 1.182249,1.19945 0.439232,0.99296 0.224658,2.13655 -0.540772,2.8821 -0.609927,0.59409 -1.386814,0.822 -2.233206,0.65515 z m 7.212357,-10e-4 c -0.722732,-0.14204 -1.402923,-0.67676 -1.745221,-1.372 -0.199432,-0.40506 -0.21727,-0.49307 -0.21727,-1.07191 0,-0.56709 0.02056,-0.674 0.204106,-1.0613 0.250893,-0.5294 0.732775,-1.02437 1.219669,-1.25278 l 0.364418,-0.17096 8.323188,-0.0176 c 8.251074,-0.0174 8.326333,-0.0164 8.686151,0.11824 1.670242,0.62492 2.168757,2.78313 0.945048,4.09137 -0.372005,0.39771 -0.812406,0.64217 -1.326421,0.7363 -0.477917,0.0875 -16.008517,0.0881 -16.453668,6e-4 z m -9.557571,-7.63621 c -0.648532,-0.26748 -1.1040995,-0.70739 -1.3984785,-1.35043 -0.116806,-0.25514 -0.143468,-0.43673 -0.143271,-0.97578 1.99e-4,-0.59632 0.01947,-0.70187 0.193328,-1.05967 0.231172,-0.47575 0.7469085,-1.01001 1.1734775,-1.21563 0.170479,-0.0822 0.498314,-0.17846 0.728523,-0.21397 0.262339,-0.0405 4.226659,-0.0576 10.621351,-0.046 l 10.202788,0.0186 0.505487,0.24983 c 0.864678,0.42738 1.352098,1.132 1.421949,2.05559 0.08044,1.06352 -0.429685,1.97331 -1.390418,2.47977 l -0.345259,0.18201 -10.596699,0.0154 -10.5967,0.0154 z m 27.159739,0.0359 c -0.991771,-0.40002 -1.561652,-1.16687 -1.632216,-2.19636 -0.06006,-0.8763 0.301088,-1.66279 1.010254,-2.20008 0.455267,-0.34493 0.876764,-0.47394 1.539292,-0.47115 0.494002,0.002 0.594559,0.0258 1.038786,0.24539 0.565324,0.27939 0.956988,0.67504 1.22114,1.23356 0.151311,0.31992 0.17235,0.4489 0.172864,1.05967 5.29e-4,0.62824 -0.01733,0.73188 -0.184882,1.07309 -0.211879,0.43146 -0.701161,0.90521 -1.202364,1.16419 -0.451664,0.23339 -1.491172,0.28194 -1.962874,0.0917 z m -24.690341,-7.90089 c -3.5534805,-0.37672 -6.8343885,-2.40838 -8.9166475,-5.521502 -1.178501,-1.761942 -1.780297,-3.523602 -1.964608,-5.751066 -0.278172,-3.361802 0.775452,-6.457335 3.116483,-9.156194 1.926929,-2.221459 4.5378815,-3.6240488 7.5050255,-4.0316588 0.279139,-0.03835 0.327364,-0.07175 0.480269,-0.332662 0.600366,-1.024447 2.0734,-2.685542 3.100341,-3.49616 1.932747,-1.525616 3.883888,-2.402887 6.242187,-2.806609 0.847026,-0.145004 3.2218,-0.163229 4.139335,-0.03177 2.936061,0.42067 5.518768,1.756348 7.584264,3.922295 1.731129,1.815319 2.84472,3.841863 3.4712,6.3169848 l 0.183986,0.726901 0.701866,0.115267 c 2.347256,0.38549 4.067024,1.203795 5.590172,2.659935 0.840986,0.803986 1.585906,1.806993 2.073072,2.79131 0.760039,1.535657 1.019631,2.690672 1.019631,4.536713 0,1.370174 -0.122298,2.189183 -0.488805,3.273454 -1.004617,2.972052 -3.690328,5.591202 -6.591479,6.428112 -1.450403,0.41841 -0.439292,0.38964 -14.173086,0.40321 -6.950531,0.007 -12.764556,-0.0138 -13.073206,-0.0466 z"
       id="path11049" /></g></svg>
