<?xml version="1.0" encoding="UTF-8" standalone="no"?>
<!-- Created with Inkscape (http://www.inkscape.org/) -->

<svg
   width="50mm"
   height="50mm"
   viewBox="0 0 50 50"
   version="1.1"
   id="svg7082"
   inkscape:version="1.2.2 (732a01da63, 2022-12-09)"
   sodipodi:docname="Rainy.svg"
   xml:space="preserve"
   xmlns:inkscape="http://www.inkscape.org/namespaces/inkscape"
   xmlns:sodipodi="http://sodipodi.sourceforge.net/DTD/sodipodi-0.dtd"
   xmlns="http://www.w3.org/2000/svg"
   xmlns:svg="http://www.w3.org/2000/svg"><sodipodi:namedview
     id="namedview7084"
     pagecolor="#ffffff"
     bordercolor="#000000"
     borderopacity="0.25"
     inkscape:showpageshadow="2"
     inkscape:pageopacity="0"
     inkscape:pagecheckerboard="0"
     inkscape:deskcolor="#d1d1d1"
     inkscape:document-units="mm"
     showgrid="false"
     inkscape:zoom="0.52784843"
     inkscape:cx="111.77451"
     inkscape:cy="54.940014"
     inkscape:window-width="1920"
     inkscape:window-height="1017"
     inkscape:window-x="-8"
     inkscape:window-y="-8"
     inkscape:window-maximized="1"
     inkscape:current-layer="layer1" /><defs
     id="defs7079" /><g
     inkscape:label="Layer 1"
     inkscape:groupmode="layer"
     id="layer1"><path
       style="fill:#000000;stroke-width:0.0710235"
       id="path10970"
       d="" /><path
       style="fill:#000000;stroke-width:0.0710235"
       id="path10968"
       d="" /><path
       style="fill:#000000;stroke-width:0.0710235"
       id="path10966"
       d="" /><g
       id="g11071"
       transform="translate(0.03253399,-0.06025965)"
       style="fill:#000000"><path
         style="fill:#000000;fill-opacity:1;stroke-width:0.0675326"
         d="m 24.544155,48.518865 c 0.232143,-0.01319 0.612014,-0.01319 0.844157,0 0.232144,0.01319 0.04221,0.02398 -0.422078,0.02398 -0.464287,0 -0.654222,-0.01079 -0.422079,-0.02398 z m 2.232796,-0.06366 c 0.04875,-0.01951 0.106997,-0.01711 0.129438,0.0053 0.02244,0.02244 -0.01745,0.0384 -0.08864,0.03547 -0.07867,-0.0032 -0.09467,-0.01924 -0.0408,-0.0408 z M 37.392227,44.01869 c 0,-0.01402 0.05318,-0.06721 0.118182,-0.118182 0.107111,-0.084 0.109499,-0.08161 0.0255,0.0255 -0.08822,0.112493 -0.14368,0.148267 -0.14368,0.09269 z M 12.29746,43.824703 12.168811,43.672755 12.32076,43.801404 c 0.142794,0.120898 0.182692,0.175248 0.128648,0.175248 -0.01281,0 -0.08119,-0.06838 -0.151948,-0.151949 z m -1.386615,-1.384417 c -0.084,-0.107111 -0.08161,-0.1095 0.0255,-0.0255 0.112492,0.08822 0.148266,0.14368 0.09268,0.14368 -0.01402,0 -0.06721,-0.05318 -0.118182,-0.118182 z m 28.034631,0.02515 c 0,-0.01402 0.05318,-0.06721 0.118182,-0.118182 0.107111,-0.084 0.1095,-0.08161 0.0255,0.0255 -0.08822,0.112492 -0.14368,0.148267 -0.14368,0.09268 z M 24.206492,40.420233 c 0.04643,-0.01874 0.122403,-0.01874 0.168832,0 0.04643,0.01873 0.0084,0.03406 -0.08442,0.03406 -0.09286,0 -0.130844,-0.01533 -0.08442,-0.03406 z m 3.07288,-1.54229 c 7.49e-4,-0.148572 0.01458,-0.201399 0.03073,-0.117395 0.01615,0.084 0.01554,0.205563 -0.0014,0.27013 -0.0169,0.06457 -0.03012,-0.0042 -0.02937,-0.152735 z m -0.498373,-1.23247 c -0.084,-0.10711 -0.08161,-0.109499 0.0255,-0.0255 0.065,0.05098 0.118182,0.104159 0.118182,0.118182 0,0.05558 -0.05546,0.01981 -0.143679,-0.09268 z m -1.899181,-0.538464 c 0.120715,-0.01498 0.318247,-0.01498 0.438962,0 0.120714,0.01498 0.02195,0.02724 -0.219481,0.02724 -0.241429,0 -0.340195,-0.01226 -0.219481,-0.02724 z m 18.931335,-6.406135 c 0.0032,-0.07867 0.01924,-0.09467 0.0408,-0.0408 0.01951,0.04875 0.01711,0.106997 -0.0053,0.129438 -0.02244,0.02244 -0.0384,-0.01745 -0.03547,-0.08864 z M 6.070279,30.368839 c 0.00138,-0.111429 0.016512,-0.148838 0.033634,-0.08313 0.017122,0.06571 0.015996,0.156877 -0.0025,0.202598 -0.018499,0.04572 -0.032508,-0.008 -0.031132,-0.119467 z m -0.0025,-2.059743 c 0,-0.09286 0.015328,-0.130845 0.034063,-0.08442 0.018734,0.04643 0.018734,0.122403 0,0.168831 -0.018734,0.04643 -0.034063,0.0084 -0.034063,-0.08441 z M 32.256116,8.2012733 32.023388,7.9480262 32.276635,8.1807547 c 0.139286,0.1280008 0.253247,0.241962 0.253247,0.2532473 0,0.051569 -0.05715,0.00299 -0.273766,-0.2327287 z M 17.774015,8.049325 c 0.145076,-0.1485716 0.27897,-0.2701302 0.297542,-0.2701302 0.01857,0 -0.08493,0.1215586 -0.23001,0.2701302 -0.145076,0.1485717 -0.27897,0.2701303 -0.297541,0.2701303 -0.01857,0 0.08493,-0.1215586 0.230009,-0.2701303 z M 18.651938,7.1714016 C 18.797014,7.02283 18.930909,6.9012714 18.94948,6.9012714 c 0.01857,0 -0.08493,0.1215586 -0.230009,0.2701302 -0.145076,0.1485717 -0.27897,0.2701303 -0.297542,0.2701303 -0.01857,0 0.08493,-0.1215586 0.230009,-0.2701303 z M 31.108063,7.0532196 30.875334,6.7999725 31.128581,7.032701 c 0.139286,0.1280007 0.253247,0.2419619 0.253247,0.2532472 0,0.051569 -0.05715,0.00299 -0.273765,-0.2327286 z"
         id="path11081" /><path
         style="fill:#000000;fill-opacity:1;stroke-width:0.0675326"
         d="m 17.096151,37.274044 -0.335125,-0.354546 0.354546,0.335124 c 0.329451,0.311404 0.385517,0.373968 0.335125,0.373968 -0.01068,0 -0.170228,-0.159546 -0.354546,-0.354546 z M 6.0677766,30.064942 c 0,-0.09286 0.015328,-0.130844 0.034063,-0.08441 0.018734,0.04643 0.018734,0.122403 0,0.168831 -0.018734,0.04643 -0.034063,0.0084 -0.034063,-0.08442 z M 14.903881,11.130326 c 0,-0.01402 0.05318,-0.0672 0.118182,-0.118182 0.10711,-0.084 0.109499,-0.08161 0.0255,0.0255 -0.08822,0.112493 -0.143679,0.148267 -0.143679,0.09268 z m 0.641559,-0.717361 c 0.06723,-0.07429 0.137427,-0.135065 0.155999,-0.135065 0.01857,0 -0.02124,0.06078 -0.08847,0.135065 -0.06723,0.07429 -0.137428,0.135065 -0.155999,0.135065 -0.01857,0 0.02124,-0.06078 0.08847,-0.135065 z m 18.767639,-0.01688 -0.128649,-0.151948 0.151948,0.128648 c 0.142794,0.120899 0.182692,0.175248 0.128649,0.175248 -0.01281,0 -0.08119,-0.06838 -0.151948,-0.151948 z m -0.808223,-0.8779236 -0.19835,-0.2194808 0.219481,0.1983492 c 0.204588,0.1848893 0.250523,0.2406125 0.19835,0.2406125 -0.01162,0 -0.110389,-0.098766 -0.219481,-0.2194809 z M 16.254532,9.6489751 c 0,-0.011622 0.09877,-0.1103888 0.219481,-0.2194809 L 16.693494,9.231145 16.495144,9.4506258 C 16.310255,9.6552131 16.254532,9.701148 16.254532,9.6489751 Z m 15.428654,-2.0217286 -0.335124,-0.354546 0.354546,0.3351242 c 0.195,0.1843183 0.354546,0.343864 0.354546,0.3545459 0,0.050392 -0.06256,-0.00567 -0.373968,-0.3351241 z M 18.212977,7.6103633 c 0.08723,-0.092857 0.173803,-0.1688314 0.192375,-0.1688314 0.01857,0 -0.03761,0.075974 -0.124843,0.1688314 -0.08723,0.092857 -0.173804,0.1688315 -0.192375,0.1688315 -0.01857,0 0.03761,-0.075974 0.124843,-0.1688315 z m 1.755846,-1.6756794 c 0,-0.011622 0.09877,-0.1103888 0.219481,-0.2194809 L 20.407785,5.5168537 20.209436,5.7363346 C 20.024547,5.9409214 19.968823,5.9868569 19.968823,5.9346839 Z M 29.689879,5.7025683 29.45715,5.4493211 29.710397,5.6820497 c 0.139286,0.1280006 0.253247,0.2419619 0.253247,0.2532471 0,0.051569 -0.05715,0.00299 -0.273765,-0.2327285 z M 21.150643,4.8077617 c 0.06723,-0.074286 0.137428,-0.1350651 0.155999,-0.1350651 0.01857,0 -0.02124,0.060779 -0.08847,0.1350651 -0.06723,0.074286 -0.137427,0.1350652 -0.155999,0.1350652 -0.01857,0 0.02124,-0.060779 0.08847,-0.1350652 z m 7.524771,-0.050649 -0.16372,-0.1857146 0.185714,0.1637202 c 0.102143,0.090046 0.185715,0.1736177 0.185715,0.1857146 0,0.052964 -0.05469,0.00986 -0.207709,-0.1637202 z M 21.859735,4.1744714 c 0,-0.014024 0.05318,-0.067206 0.118182,-0.118182 0.107111,-0.084002 0.1095,-0.081613 0.0255,0.025497 -0.08822,0.1124923 -0.14368,0.1482664 -0.14368,0.092685 z m 6.037749,-0.1264511 -0.128648,-0.1519482 0.151948,0.1286487 c 0.08357,0.070757 0.151948,0.1391335 0.151948,0.1519483 0,0.054043 -0.05435,0.014145 -0.175248,-0.1286488 z M 22.535061,3.5666782 c 0,-0.014023 0.05318,-0.067205 0.118182,-0.118182 0.107111,-0.084002 0.1095,-0.081613 0.0255,0.025497 -0.08822,0.1124922 -0.14368,0.1482663 -0.14368,0.092685 z m 4.718666,-0.092685 c -0.084,-0.1071104 -0.08161,-0.1094991 0.0255,-0.025497 0.112493,0.088223 0.148267,0.1436793 0.09268,0.1436793 -0.01402,0 -0.0672,-0.053182 -0.118182,-0.118182 z M 23.142854,3.0264177 c 0,-0.014024 0.05318,-0.067205 0.118182,-0.118182 0.107111,-0.084002 0.1095,-0.081613 0.0255,0.025497 -0.08822,0.1124922 -0.14368,0.1482663 -0.14368,0.092685 z m 3.50308,-0.092685 c -0.084,-0.1071105 -0.08161,-0.1094991 0.0255,-0.025497 0.112493,0.088223 0.148267,0.1436793 0.09269,0.1436793 -0.01402,0 -0.06721,-0.053182 -0.118182,-0.118182 z M 26.105673,2.461005 c -0.084,-0.1071105 -0.08161,-0.1094991 0.0255,-0.025497 0.112492,0.088223 0.148266,0.1436793 0.09268,0.1436793 -0.01402,0 -0.06721,-0.053182 -0.118182,-0.118182 z"
         id="path11079" /><path
         style="fill:#000000;fill-opacity:1;stroke-width:0.0675326"
         d="m 11.991366,43.520807 c -0.084,-0.107111 -0.08161,-0.1095 0.0255,-0.0255 0.112492,0.08822 0.148266,0.14368 0.09268,0.14368 -0.01402,0 -0.06721,-0.05318 -0.118182,-0.118182 z m -0.742858,-0.742858 c -0.084,-0.107111 -0.08161,-0.1095 0.0255,-0.0255 0.112492,0.08822 0.148266,0.14368 0.09268,0.14368 -0.01402,0 -0.06721,-0.05318 -0.118182,-0.118182 z m 15.67617,-2.946282 c 0,-0.01402 0.05318,-0.06721 0.118182,-0.118182 0.107111,-0.084 0.1095,-0.08161 0.0255,0.0255 -0.08822,0.112492 -0.14368,0.148266 -0.14368,0.09268 z m 16.888475,-9.468455 c 0.0032,-0.07867 0.01924,-0.09467 0.0408,-0.0408 0.01951,0.04875 0.01711,0.106998 -0.0053,0.129438 -0.02244,0.02244 -0.0384,-0.01745 -0.03547,-0.08864 z M 6.070279,29.761046 c 0.00138,-0.111429 0.016512,-0.148838 0.033634,-0.08313 0.017122,0.06571 0.015996,0.156876 -0.0025,0.202598 -0.018499,0.04572 -0.032508,-0.008 -0.031132,-0.119467 z m 9.797226,-0.283163 c 0.06571,-0.01712 0.156876,-0.016 0.202598,0.0025 0.04572,0.0185 -0.008,0.03251 -0.119468,0.03113 -0.111428,-0.0014 -0.148837,-0.01651 -0.08313,-0.03363 z M 6.070279,28.748057 c 0.00138,-0.111428 0.016512,-0.148837 0.033634,-0.08313 0.017122,0.06571 0.015996,0.156876 -0.0025,0.202598 -0.018499,0.04572 -0.032508,-0.008 -0.031132,-0.119468 z m 37.742874,-0.478355 c 0.0032,-0.07867 0.01924,-0.09467 0.0408,-0.0408 0.01951,0.04875 0.01711,0.106997 -0.0053,0.129437 -0.02244,0.02244 -0.0384,-0.01745 -0.03547,-0.08864 z M 33.196593,9.2142619 c -0.084,-0.1071108 -0.08161,-0.1094994 0.0255,-0.025498 0.112492,0.088222 0.148266,0.1436795 0.09268,0.1436795 -0.01402,0 -0.0672,-0.053182 -0.118182,-0.1181819 z M 19.766226,6.1329159 c 0,-0.014024 0.05318,-0.067206 0.118182,-0.118182 0.10711,-0.084002 0.109499,-0.081613 0.0255,0.025497 -0.08822,0.1124923 -0.143679,0.1482664 -0.143679,0.092685 z"
         id="path11077" /><path
         style="fill:#000000;fill-opacity:1;stroke-width:0.0675326"
         d="m 12.599159,44.061067 c -0.084,-0.10711 -0.08161,-0.109499 0.0255,-0.0255 0.112492,0.08822 0.148267,0.143679 0.09268,0.143679 -0.01402,0 -0.0672,-0.05318 -0.118182,-0.118182 z m 25.637225,-0.894806 c 0.258008,-0.260001 0.484301,-0.472728 0.502872,-0.472728 0.01857,0 -0.177331,0.212727 -0.435339,0.472728 -0.258008,0.26 -0.484301,0.472728 -0.502872,0.472728 -0.01857,0 0.177331,-0.212728 0.435339,-0.472728 z m -26.611011,-0.01688 -0.266952,-0.287014 0.287013,0.266953 c 0.157857,0.146824 0.287013,0.27598 0.287013,0.287014 0,0.05109 -0.05881,-3.4e-5 -0.307074,-0.266953 z M 39.148074,42.19531 c 0,-0.01402 0.05318,-0.06721 0.118182,-0.118182 0.107111,-0.084 0.109499,-0.08161 0.0255,0.0255 -0.08822,0.112492 -0.14368,0.148266 -0.14368,0.09268 z m -19.32293,-6.981006 c -0.084,-0.107111 -0.08161,-0.1095 0.0255,-0.0255 0.112493,0.08822 0.148267,0.14368 0.09268,0.14368 -0.01402,0 -0.0672,-0.05318 -0.118182,-0.118182 z m -0.405196,-0.405196 c -0.084,-0.10711 -0.08161,-0.109499 0.0255,-0.0255 0.065,0.05098 0.118182,0.104159 0.118182,0.118182 0,0.05558 -0.05546,0.01981 -0.14368,-0.09268 z m 24.393205,-4.648491 c 0.0032,-0.07867 0.01924,-0.09467 0.0408,-0.0408 0.01951,0.04875 0.01711,0.106997 -0.0053,0.129437 -0.02244,0.02244 -0.0384,-0.01745 -0.03547,-0.08864 z m -29.078104,-0.23074 c 0.06723,-0.07429 0.137428,-0.135065 0.155999,-0.135065 0.01857,0 -0.02124,0.06078 -0.08847,0.135065 -0.06723,0.07429 -0.137428,0.135065 -0.155999,0.135065 -0.01857,0 0.02124,-0.06078 0.08847,-0.135065 z M 6.0773507,29.254552 c 0,-0.204286 0.01266,-0.287858 0.028133,-0.185715 0.015473,0.102143 0.015473,0.269286 0,0.371429 -0.015473,0.102143 -0.028133,0.01857 -0.028133,-0.185714 z M 13.823359,12.413444 c 0,-0.01402 0.05318,-0.0672 0.118182,-0.118182 0.107111,-0.084 0.1095,-0.08161 0.0255,0.0255 -0.08822,0.112492 -0.14368,0.148266 -0.14368,0.09268 z m 0.405196,-0.472728 c 0,-0.01402 0.05318,-0.0672 0.118182,-0.118182 0.107111,-0.084 0.109499,-0.08161 0.0255,0.0255 -0.08822,0.112492 -0.143679,0.148266 -0.143679,0.09268 z m 0.405195,-0.472728 c 0,-0.01402 0.05318,-0.0672 0.118182,-0.118182 0.107111,-0.084 0.1095,-0.08161 0.0255,0.0255 -0.08822,0.112492 -0.14368,0.148266 -0.14368,0.09268 z m 20.521288,-0.09268 c -0.084,-0.107111 -0.08161,-0.109499 0.0255,-0.0255 0.112493,0.08822 0.148267,0.14368 0.09269,0.14368 -0.01402,0 -0.06721,-0.05318 -0.118182,-0.118182 z M 15.27531,10.750628 c 0.06723,-0.07429 0.137427,-0.135065 0.155999,-0.135065 0.01857,0 -0.02124,0.06078 -0.08847,0.135065 -0.06723,0.07429 -0.137427,0.135065 -0.155999,0.135065 -0.01857,0 0.02124,-0.06078 0.08847,-0.135065 z m 19.339467,0.01688 c -0.084,-0.107111 -0.08161,-0.109499 0.0255,-0.0255 0.112492,0.08822 0.148266,0.14368 0.09268,0.14368 -0.01402,0 -0.06721,-0.05318 -0.118182,-0.118182 z m -0.671823,-0.742858 -0.16372,-0.1857149 0.185715,0.1637199 c 0.102143,0.09005 0.185715,0.173618 0.185715,0.185715 0,0.05296 -0.05469,0.0099 -0.20771,-0.16372 z M 15.950635,10.00777 c 0.06723,-0.074286 0.137428,-0.1350656 0.155999,-0.1350656 0.01857,0 -0.02124,0.060779 -0.08847,0.1350656 -0.06723,0.07428 -0.137427,0.135065 -0.155999,0.135065 -0.01857,0 0.02124,-0.06078 0.08847,-0.135065 z m 1.18182,-1.249353 c 0.201749,-0.204286 0.382011,-0.3714291 0.400582,-0.3714291 0.01857,0 -0.131301,0.1671431 -0.333049,0.3714291 -0.201748,0.204286 -0.38201,0.3714291 -0.400582,0.3714291 -0.01857,0 0.131301,-0.1671431 0.333049,-0.3714291 z M 32.763707,8.7753 32.428583,8.420754 32.783129,8.7558783 c 0.195,0.184318 0.354546,0.3438636 0.354546,0.3545459 0,0.050392 -0.06256,-0.00567 -0.373968,-0.3351242 z M 19.36103,6.5298422 c 0.201748,-0.204286 0.38201,-0.3714291 0.400582,-0.3714291 0.01857,0 -0.131301,0.1671431 -0.333049,0.3714291 -0.201748,0.2042861 -0.38201,0.3714292 -0.400582,0.3714292 -0.01857,0 0.131301,-0.1671431 0.333049,-0.3714292 z M 30.434065,6.4454262 30.064943,6.057114 30.453255,6.4262362 c 0.213572,0.2030172 0.388313,0.3777577 0.388313,0.3883122 0,0.050126 -0.06458,-0.00837 -0.407503,-0.3691222 z M 20.711682,5.2467234 c 0.08723,-0.092857 0.173804,-0.1688314 0.192375,-0.1688314 0.01857,0 -0.03761,0.075974 -0.124843,0.1688314 -0.08723,0.092857 -0.173804,0.1688315 -0.192375,0.1688315 -0.01857,0 0.03761,-0.075974 0.124843,-0.1688315 z m 8.403557,-0.050649 -0.19835,-0.2194808 0.219481,0.1983493 c 0.120715,0.1090921 0.219481,0.2078585 0.219481,0.2194808 0,0.052173 -0.05572,0.00624 -0.240612,-0.1983493 z M 21.589605,4.4363326 c 0.08723,-0.092857 0.173804,-0.1688314 0.192376,-0.1688314 0.01857,0 -0.03761,0.075974 -0.124843,0.1688314 -0.08723,0.092857 -0.173804,0.1688314 -0.192376,0.1688314 -0.01857,0 0.03761,-0.075974 0.124843,-0.1688314 z m 6.645542,-0.050649 -0.128649,-0.1519483 0.151949,0.1286487 c 0.08357,0.070757 0.151948,0.1391335 0.151948,0.1519483 0,0.054043 -0.05435,0.014145 -0.175248,-0.1286487 z m -5.93645,-0.59091 c 0.06723,-0.074286 0.137428,-0.1350651 0.155999,-0.1350651 0.01857,0 -0.02124,0.060779 -0.08847,0.1350651 -0.06723,0.074286 -0.137428,0.1350651 -0.155999,0.1350651 -0.01857,0 0.02124,-0.060779 0.08847,-0.1350651 z m 5.22516,-0.050649 c -0.084,-0.1071105 -0.08161,-0.1094991 0.0255,-0.025497 0.065,0.050977 0.118182,0.1041585 0.118182,0.118182 0,0.055582 -0.05546,0.019807 -0.14368,-0.092685 z M 22.872724,3.296548 c 0,-0.014024 0.05318,-0.067206 0.118182,-0.118182 0.107111,-0.084002 0.109499,-0.081613 0.0255,0.025497 -0.08822,0.1124923 -0.14368,0.1482664 -0.14368,0.092685 z m 4.04334,-0.092685 c -0.084,-0.1071104 -0.08161,-0.109499 0.0255,-0.025497 0.112492,0.088222 0.148266,0.1436792 0.09268,0.1436792 -0.01402,0 -0.06721,-0.053182 -0.118182,-0.118182 z M 23.412985,2.82382 c 0,-0.014024 0.05318,-0.067206 0.118182,-0.118182 0.10711,-0.084002 0.109499,-0.081613 0.0255,0.025497 -0.08822,0.1124923 -0.143679,0.1482664 -0.143679,0.092685 z m 2.962818,-0.092685 c -0.084,-0.1071104 -0.08161,-0.109499 0.0255,-0.025497 0.112492,0.088222 0.148266,0.1436792 0.09268,0.1436792 -0.01402,0 -0.0672,-0.053182 -0.118182,-0.118182 z M 23.953245,2.351092 c 0,-0.014023 0.05318,-0.067205 0.118182,-0.118182 0.107111,-0.084002 0.1095,-0.081613 0.0255,0.025497 -0.08822,0.1124922 -0.14368,0.1482663 -0.14368,0.092685 z m 1.882298,-0.092685 c -0.084,-0.1071105 -0.08161,-0.1094991 0.0255,-0.025497 0.112493,0.088223 0.148267,0.1436793 0.09268,0.1436793 -0.01402,0 -0.0672,-0.053182 -0.118182,-0.118182 z m -1.40957,-0.3125107 c 0,-0.014023 0.05318,-0.067205 0.118182,-0.118182 0.107111,-0.084002 0.1095,-0.081613 0.0255,0.025497 -0.08822,0.1124922 -0.14368,0.1482663 -0.14368,0.092685 z"
         id="path11075" /><path
         style="fill:#000000;fill-opacity:1;stroke-width:0.0675326"
         d="M 23.007789,48.423215 C 18.457407,47.99938 14.663324,46.203458 11.522972,42.986894 10.12387,41.553838 9.1182534,40.170061 8.2442504,38.475212 7.2340789,36.516309 6.6875654,34.791973 6.317121,32.394816 6.1203436,31.121464 6.0699301,28.446001 6.2210465,27.296107 6.9960078,21.399175 10.96659,14.944383 18.351251,7.5765971 20.730804,5.2024818 24.795084,1.532835 24.994838,1.5780889 c 0.05311,0.012032 0.531842,0.4016566 1.063851,0.8658331 9.36244,8.168708 14.904842,15.231235 16.934053,21.57859 0.710825,2.223453 0.970702,4.297752 0.820476,6.548925 -0.260809,3.908307 -1.37807,7.212207 -3.400709,10.056379 -1.318752,1.854388 -3.197639,3.674479 -5.080025,4.921056 -0.901878,0.597252 -2.619403,1.465311 -3.637083,1.838226 -1.356344,0.497016 -3.20083,0.889371 -4.905788,1.043546 -0.907115,0.08203 -2.862635,0.07819 -3.781824,-0.0074 z m 3.020422,-8.060305 c 0.463202,-0.137556 0.964899,-0.493785 1.148604,-0.815564 0.296034,-0.518536 0.178699,-1.342233 -0.258813,-1.816878 -0.435138,-0.472068 -0.796657,-0.588177 -2.019301,-0.648535 -1.403106,-0.06927 -2.215971,-0.251218 -3.282277,-0.734704 -0.507959,-0.23032 -1.310342,-0.74013 -1.681367,-1.068291 -1.012267,-0.895324 -1.762921,-2.268733 -2.130012,-3.89711 -0.174355,-0.773417 -0.309194,-1.078165 -0.610252,-1.379224 -0.437965,-0.437964 -1.0211,-0.608347 -1.641366,-0.47958 -0.496296,0.10303 -0.860131,0.379137 -1.079385,0.819123 -0.227763,0.457061 -0.228468,0.798197 -0.0037,1.800285 0.330102,1.471819 0.900878,2.858645 1.618578,3.932693 0.448617,0.671362 1.38095,1.637108 2.031983,2.104804 1.493645,1.073022 3.508114,1.918312 5.1908,2.178108 0.851574,0.131477 2.281564,0.134043 2.716526,0.0049 z"
         id="path11073" /></g></g></svg>
