<?xml version="1.0" encoding="UTF-8" standalone="no"?>
<!-- Created with Inkscape (http://www.inkscape.org/) -->

<svg
   width="50mm"
   height="50mm"
   viewBox="0 0 50 50"
   version="1.1"
   id="svg7082"
   inkscape:version="1.2.2 (732a01da63, 2022-12-09)"
   sodipodi:docname="Hurricane.svg"
   xmlns:inkscape="http://www.inkscape.org/namespaces/inkscape"
   xmlns:sodipodi="http://sodipodi.sourceforge.net/DTD/sodipodi-0.dtd"
   xmlns="http://www.w3.org/2000/svg"
   xmlns:svg="http://www.w3.org/2000/svg">
  <sodipodi:namedview
     id="namedview7084"
     pagecolor="#ffffff"
     bordercolor="#000000"
     borderopacity="0.25"
     inkscape:showpageshadow="2"
     inkscape:pageopacity="0"
     inkscape:pagecheckerboard="0"
     inkscape:deskcolor="#d1d1d1"
     inkscape:document-units="mm"
     showgrid="false"
     inkscape:zoom="0.74564394"
     inkscape:cx="193.12167"
     inkscape:cy="347.35077"
     inkscape:window-width="1920"
     inkscape:window-height="1017"
     inkscape:window-x="-8"
     inkscape:window-y="-8"
     inkscape:window-maximized="1"
     inkscape:current-layer="layer1" />
  <defs
     id="defs7079" />
  <g
     inkscape:label="Layer 1"
     inkscape:groupmode="layer"
     id="layer1">
    <path
       style="fill:#000000;stroke-width:0.191747"
       d="m 30.91696,48.593756 c 0,-0.0478 0.310908,-1.150803 0.690889,-2.451126 0.561561,-1.921625 0.710419,-2.793879 0.795044,-4.659278 l 0.104265,-2.295038 -0.459479,0.335309 c -4.096425,2.989312 -7.64483,4.54375 -12.806884,5.610294 -1.875419,0.387472 -6.731431,0.909008 -6.731431,0.722915 0,-0.01727 0.729111,-0.421599 1.620244,-0.895641 2.301053,-1.224092 3.660999,-2.161425 5.070574,-3.49483 L 20.42809,40.304783 18.465193,39.982585 C 15.992728,39.576735 13.103558,38.615284 10.637372,37.377705 8.073828,36.091246 4.305105,33.548722 2.7488613,32.055799 l -1.2649503,-1.21351 0.9587365,0.290395 c 3.1270025,0.947184 4.5774785,1.253171 6.4714765,1.365184 1.133691,0.06713 2.061262,0.06288 2.061262,-0.0085 0,-0.07224 -0.466364,-0.754075 -1.036364,-1.515337 C 6.886216,26.896878 4.795087,20.588589 4.363461,14.15429 l -0.122129,-1.821604 0.802301,1.43812 c 0.441274,0.790951 1.068277,1.890416 1.393358,2.443269 0.635873,1.081539 3.105516,4.076093 3.361552,4.076093 0.08555,0 0.300887,-0.89265 0.478664,-1.983688 0.17772,-1.09099 0.543011,-2.665739 0.811664,-3.499378 1.199449,-3.721884 4.411627,-9.2152996 7.05294,-12.0617543 l 1.245508,-1.3422342 -0.57769,1.9174774 C 18.044657,5.859734 17.701429,7.790261 17.693278,9.599483 l -0.0058,1.485237 1.502409,-1.113952 C 21.00957,8.621565 23.521842,7.304969 25.809387,6.501747 29.3465,5.259777 33.74868,4.3759569 36.382791,4.3789852 l 1.342232,0.00122 -1.821586,0.9801683 C 34.901554,5.899459 33.693549,6.605189 33.218975,6.928628 c -0.978236,0.666727 -3.259703,2.792529 -3.259703,3.037304 0,0.08878 0.296364,0.161306 0.658572,0.161306 0.912707,0 3.169662,0.487773 4.997958,1.080153 3.623467,1.173984 8.871703,4.228921 11.656459,6.785031 0.716151,0.657361 1.275261,1.22206 1.242455,1.254861 -0.03284,0.03284 -1.093338,-0.241369 -2.356732,-0.609054 -2.303358,-0.670557 -6.071133,-1.207636 -6.721437,-0.958069 -0.301029,0.11554 -0.286022,0.180303 0.151797,0.64993 3.039987,3.262375 5.880824,11.259421 6.20916,17.478927 l 0.106868,2.025659 -1.087085,-2.013339 c -0.597911,-1.10736 -1.442411,-2.487929 -1.876687,-3.067952 -0.967031,-1.291615 -2.428798,-2.876204 -2.653267,-2.876204 -0.09102,0 -0.16735,0.323573 -0.169655,0.71906 -0.0058,0.896798 -0.59235,3.575209 -1.145443,5.225096 -1.147516,3.422975 -4.24226,8.647317 -6.790509,11.463221 -0.695064,0.768073 -1.263769,1.357412 -1.263769,1.309615 z M 27.437137,28.863697 c 2.682964,-1.775497 2.642638,-5.749829 -0.07431,-7.342165 -3.394017,-1.989027 -7.467458,1.132158 -6.416261,4.9163 0.256643,0.923821 1.435324,2.259743 2.385852,2.704073 1.163935,0.544108 3.056032,0.415847 4.104866,-0.278244 z"
       id="path6078"
       sodipodi:nodetypes="csscssssscssscssssscsssssscsccssscssssssscscscssscsscccssscc" />
  </g>
</svg>
