<?xml version="1.0" encoding="UTF-8" standalone="no"?>
<!-- Created with Inkscape (http://www.inkscape.org/) -->

<svg
   width="50mm"
   height="50mm"
   viewBox="0 0 50 50"
   version="1.1"
   id="svg7082"
   inkscape:version="1.2.2 (732a01da63, 2022-12-09)"
   sodipodi:docname="Tornado.svg"
   xmlns:inkscape="http://www.inkscape.org/namespaces/inkscape"
   xmlns:sodipodi="http://sodipodi.sourceforge.net/DTD/sodipodi-0.dtd"
   xmlns="http://www.w3.org/2000/svg"
   xmlns:svg="http://www.w3.org/2000/svg">
  <sodipodi:namedview
     id="namedview7084"
     pagecolor="#ffffff"
     bordercolor="#000000"
     borderopacity="0.25"
     inkscape:showpageshadow="2"
     inkscape:pageopacity="0"
     inkscape:pagecheckerboard="0"
     inkscape:deskcolor="#d1d1d1"
     inkscape:document-units="mm"
     showgrid="false"
     inkscape:zoom="0.74564394"
     inkscape:cx="193.12167"
     inkscape:cy="25.481331"
     inkscape:window-width="1920"
     inkscape:window-height="1017"
     inkscape:window-x="-8"
     inkscape:window-y="-8"
     inkscape:window-maximized="1"
     inkscape:current-layer="layer1" />
  <defs
     id="defs7079" />
  <g
     inkscape:label="Layer 1"
     inkscape:groupmode="layer"
     id="layer1">
    <path
       id="path3266"
       style="fill:#000000;stroke-width:0.106168"
       d="m 24.234792,1.5690748 c -10.52047,-9e-7 -21.2202432,2.0273696 -16.2748766,8.8299692 3.7464946,5.15349 2.6239316,5.391817 6.6850406,8.371899 5.812179,4.265034 9.346796,14.401424 6.971075,16.311035 -6.101398,4.904329 -5.899006,14.336413 -5.320268,13.264844 4.457595,-8.253536 10.499917,-9.16708 13.049863,-11.734679 5.319375,-4.467068 7.253658,-8.947788 6.568423,-14.663282 C 35.135456,15.454664 41.415978,11.932785 42.928993,8.2116751 43.164462,7.8597434 43.283326,7.5019825 43.283936,7.1433689 43.28382,4.0647608 34.755261,1.5690739 24.234792,1.5690748 Z m 0.100141,1.9160308 c 0.126189,-3.86e-5 0.252369,2.834e-4 0.378526,9.651e-4 0.126229,7.483e-4 0.252414,0.00184 0.37853,0.00334 0.126136,0.00149 0.252194,0.00325 0.37814,0.00544 0.125853,0.00219 0.251588,0.00465 0.377176,0.00755 0.125634,0.00289 0.251109,0.00623 0.376401,0.00986 0.125346,0.0036 0.2505,0.00755 0.375432,0.01179 0.124871,0.00439 0.249512,0.00905 0.37389,0.014107 0.124391,0.005 0.24851,0.010341 0.372339,0.016046 0.123787,0.00579 0.247264,0.011887 0.370408,0.018361 0.123181,0.00649 0.246015,0.013308 0.368477,0.020493 0.122505,0.0071 0.244631,0.014598 0.366349,0.022423 0.12164,0.00781 0.242862,0.016019 0.36364,0.024555 0.12084,0.00851 0.241227,0.017441 0.361131,0.026678 0.119844,0.00925 0.239198,0.018861 0.358032,0.028801 0.118913,0.00991 0.237301,0.020152 0.355137,0.030739 0.117791,0.010625 0.235016,0.021573 0.351654,0.032863 0.1166,0.011264 0.232603,0.022871 0.347985,0.034802 0.11541,0.011913 0.23019,0.02416 0.34431,0.036732 0.114154,0.012562 0.227642,0.02545 0.340441,0.038661 0.112774,0.013274 0.224848,0.026871 0.336189,0.040794 0.111322,0.013862 0.221911,0.028038 0.331745,0.04253 0.109874,0.014511 0.218981,0.029328 0.327296,0.04446 0.108301,0.01516 0.215795,0.030626 0.322463,0.046399 0.106653,0.015748 0.212472,0.031793 0.317439,0.048136 0.104941,0.016326 0.209023,0.032959 0.312219,0.049873 0.103239,0.016975 0.205578,0.034249 0.306998,0.051813 0.101395,0.017563 0.20187,0.035416 0.301389,0.053549 0.0995,0.018081 0.198032,0.036451 0.295595,0.055093 0.09759,0.018668 0.194193,0.037617 0.289791,0.056839 0.09562,0.019256 0.190233,0.038784 0.283799,0.058576 0.09352,0.019774 0.186001,0.03982 0.277418,0.06012 0.09149,0.020291 0.181908,0.040855 0.271233,0.061673 0.08927,0.020818 0.177426,0.04189 0.264469,0.063216 0.08704,0.021344 0.172936,0.042934 0.257697,0.064761 0.0848,0.021801 0.168452,0.043837 0.250934,0.06612 0.08245,0.022327 0.163712,0.044881 0.243782,0.067665 0.08008,0.022713 0.15896,0.045654 0.236628,0.068822 0.07766,0.023239 0.154093,0.046698 0.229281,0.070366 0.07524,0.023633 0.149214,0.047479 0.221937,0.071533 0.07267,0.024091 0.144082,0.048382 0.2142,0.072885 0.07019,0.024484 0.139082,0.049163 0.206667,0.074042 0.0675,0.024879 0.133682,0.049943 0.19854,0.075201 0.06495,0.025274 0.12855,0.050724 0.190812,0.076358 0.06218,0.025599 0.123021,0.051383 0.182496,0.077332 0.05956,0.025932 0.117757,0.052032 0.174571,0.078297 0.05676,0.026327 0.112109,0.052812 0.166066,0.079455 0.05399,0.026591 0.106577,0.053339 0.157752,0.080227 0.05117,0.026924 0.100926,0.053988 0.149249,0.081192 0.04828,0.027186 0.09513,0.054514 0.140543,0.081973 0.04547,0.02752 0.08948,0.055164 0.13204,0.082938 0.04251,0.027722 0.08356,0.055557 0.123148,0.083516 0.03962,0.027924 0.07778,0.055952 0.11445,0.084095 0.03659,0.028187 0.07173,0.056479 0.105355,0.084868 0.03368,0.028389 0.06581,0.056874 0.09648,0.085447 0.03071,0.028529 0.05989,0.057137 0.08757,0.085833 0.02769,0.028731 0.05384,0.057541 0.07849,0.086411 0.02458,0.028933 0.04767,0.057936 0.06921,0.086991 0.02162,0.029003 0.04174,0.058067 0.06032,0.087193 0.01848,0.029082 0.03542,0.058207 0.05085,0.087385 0.01545,0.029213 0.02937,0.05847 0.04176,0.087768 0.01238,0.029354 0.02319,0.058743 0.03247,0.088156 0.0093,0.029363 0.01702,0.058751 0.02319,0.088156 0.0062,0.029371 0.01095,0.05876 0.01411,0.088155 0.0029,0.029441 0.0047,0.0589 0.0047,0.088349 -4.1e-5,0.085658 -0.0132,0.1712929 -0.03943,0.2567344 -0.02619,0.08543 -0.06547,0.1706069 -0.117733,0.2553799 -0.05229,0.084807 -0.117545,0.1691481 -0.195646,0.2528675 -0.07806,0.083727 -0.168912,0.1667828 -0.272392,0.2490006 -0.103468,0.08213 -0.219476,0.163382 -0.347789,0.243588 -0.128386,0.08028 -0.269019,0.159463 -0.421639,0.237401 -0.152556,0.0779 -0.316986,0.154504 -0.492976,0.229669 -0.176056,0.07519 -0.363572,0.148897 -0.562185,0.220968 -0.198525,0.0721 -0.408031,0.142506 -0.628109,0.211109 -0.220156,0.06859 -0.450742,0.135335 -0.691326,0.20009 -0.240495,0.0647 -0.490816,0.127376 -0.750481,0.187911 -0.259757,0.06061 -0.528715,0.119026 -0.806352,0.175152 -0.277556,0.05604 -0.563599,0.109754 -0.857585,0.161038 -0.294072,0.05135 -0.595914,0.1002169 -0.904947,0.1465389 -0.308972,0.04631 -0.624936,0.09003 -0.947287,0.131074 -0.322419,0.04106 -0.651021,0.07943 -0.985177,0.115028 -0.33409,0.03562 -0.673522,0.06844 -1.017657,0.09841 -0.344123,0.02989 -0.692714,0.05691 -1.045105,0.081 -0.352421,0.02416 -0.708429,0.04537 -1.06734,0.06361 -0.358942,0.01822 -0.720559,0.03343 -1.084158,0.04563 -0.363543,0.01219 -0.728833,0.02135 -1.095179,0.02745 -0.366348,0.006 -0.73351,0.0092 -1.100786,0.0091 -0.367339,2.9e-5 -0.734564,-0.0029 -1.100977,-0.0091 -0.366344,-0.0061 -0.731635,-0.01526 -1.095178,-0.02745 -0.363633,-0.0122 -0.725253,-0.0274 -1.084195,-0.04562 -0.358912,-0.01824 -0.714916,-0.03946 -1.067338,-0.06361 -0.352392,-0.02409 -0.700982,-0.05111 -1.045109,-0.081 -0.344131,-0.02997 -0.683568,-0.06279 -1.017655,-0.0984 -0.334159,-0.03561 -0.66276,-0.07396 -0.985177,-0.115028 -0.322328,-0.04106 -0.638291,-0.08477 -0.947264,-0.131083 -0.308966,-0.04632 -0.610744,-0.0952 -0.904754,-0.1465389 -0.294051,-0.05128 -0.580158,-0.104995 -0.857777,-0.161038 -0.277574,-0.05612 -0.546466,-0.114548 -0.806159,-0.175151 -0.259732,-0.06057 -0.510117,-0.123243 -0.750676,-0.187943 -0.240516,-0.06475 -0.47104,-0.131496 -0.691133,-0.20009 -0.220143,-0.0686 -0.42971,-0.139017 -0.6283,-0.211109 -0.198614,-0.07208 -0.386129,-0.145776 -0.562186,-0.220969 -0.175991,-0.07517 -0.34042,-0.151769 -0.492975,-0.229669 -0.152619,-0.07794 -0.293256,-0.157122 -0.4216389,-0.237401 -0.128315,-0.08021 -0.244319,-0.161453 -0.347789,-0.243588 -0.10348,-0.082218 -0.194336,-0.1652707 -0.272394,-0.2490008 -0.07811,-0.083718 -0.143356,-0.1680618 -0.195642,-0.2528673 -0.05226,-0.084772 -0.09153,-0.1699542 -0.117734,-0.25538 -0.02618,-0.085438 -0.03927,-0.1710745 -0.03925,-0.2567345 -2.2e-5,-0.085658 0.01307,-0.171292 0.03925,-0.2567336 0.0262,-0.08543 0.06547,-0.1706068 0.117734,-0.2553799 0.05228,-0.084807 0.117542,-0.1691488 0.195642,-0.2528674 0.07808,-0.083666 0.168933,-0.1666547 0.272394,-0.2488083 0.103446,-0.082201 0.219455,-0.1635114 0.347789,-0.2437806 0.1283829,-0.08028 0.2690199,-0.1594636 0.4216389,-0.237401 0.152555,-0.077903 0.316984,-0.1545052 0.492975,-0.2296687 0.176057,-0.075192 0.363572,-0.1488968 0.562186,-0.2209696 0.19859,-0.072095 0.408157,-0.1425058 0.6283,-0.211109 0.220108,-0.068533 0.450632,-0.1352025 0.691133,-0.1998964 0.240544,-0.06477 0.490928,-0.1275072 0.750676,-0.1881043 0.259708,-0.060541 0.528599,-0.1188939 0.806159,-0.1749572 0.277606,-0.056111 0.563713,-0.1098861 0.857777,-0.1612322 0.29401,-0.051338 0.595788,-0.1002206 0.904754,-0.1465396 0.308973,-0.046303 0.624936,-0.090025 0.947287,-0.1310733 0.322416,-0.041065 0.651018,-0.079429 0.985176,-0.1150277 0.334088,-0.035618 0.673524,-0.068436 1.017656,-0.098402 0.344126,-0.029889 0.692717,-0.056909 1.045108,-0.081 0.352422,-0.02416 0.708427,-0.045373 1.067339,-0.063603 0.358941,-0.018212 0.720561,-0.033433 1.084161,-0.045627 0.363543,-0.012185 0.728833,-0.021344 1.095177,-0.02745 0.366414,-0.00605 0.733638,-0.00912 1.100978,-0.00909 z m 7.419568,8.7778604 c -0.07243,0.02036 -0.126873,0.03363 -0.147506,0.03363 -0.0034,0 -0.08103,-0.0026 -0.0866,-0.0026 0.07827,-0.01014 0.156316,-0.02046 0.234115,-0.03094 z"
       sodipodi:nodetypes="ssssscsccscccscccccscccccccccccsccccscccsccccccccccccsccccscccccccccccccccccscccssccccccssccccscccsccccscccccscsscccscccscccsscccccscsccccscccscccs" />
  </g>
</svg>
